<?xml version="1.0" encoding="utf-8"?>
<!-- Generator: Adobe Illustrator 26.5.0, SVG Export Plug-In . SVG Version: 6.00 Build 0)  -->
<svg version="1.2" baseProfile="tiny" id="Layer_1" xmlns="http://www.w3.org/2000/svg" xmlns:xlink="http://www.w3.org/1999/xlink"
	 x="0px" y="0px" viewBox="0 0 232.4 225.3" overflow="visible" xml:space="preserve">
<g id="wME0SA.tif">
	<g>
		<g>
			<path fill="#9F53A0" d="M228.1,130.2c0,2.7,0.1,5.5,0.1,8.2c0,22.7,0,45.4,0,68.1c0,6.8-3.9,10.9-10.5,10.9
				c-24.4,0-48.7,0-73.1,0c-0.6,0-1.2-0.1-1.7-0.2c-0.1-1.2,0.8-1.8,1.5-2.4c4.5-4.5,9-9.1,13.6-13.6c0.9-0.9,1.6-1.7,1.4-3
				c10,0,20.1,0,30.1-0.1c10.1-0.1,17.3-10.1,14.4-19.8c-2-6.5-6.6-9.9-13-11.2c0-1.1,0.9-1.6,1.5-2.2
				c11.1-11.1,22.2-22.2,33.3-33.3C226.3,130.9,226.9,130,228.1,130.2z"/>
			<path fill="#7F60A9" d="M73.5,217.1c-9.1,0.3-18.3,0.3-27.4,0c-0.3-1.6,1-2.4,1.9-3.3c32.7-32.7,65.3-65.3,98-98
				c0.8-0.8,2.1-1.5,1.9-3c8.5,0,17,0,25.5,0c0,1.6-1,2.6-2,3.6c-2.3,2.5-4.8,4.8-7.2,7.2c-0.6,0.6-1.4,1.2-1.3,2.3
				c-5.3,0-10.6,0.1-15.9,0.1c-1.8,0-3.2,0.5-3.2,2.6c0,2,1.3,2.6,3.2,2.6c3.8,0,7.6,0.1,11.4,0.1c0,1.7-1.1,2.7-2.2,3.7
				c-9.9,9.9-19.7,19.7-29.6,29.6c-0.7,0.7-1.6,1.2-1.7,2.4c-3.6,0-7.3,0.1-10.9,0.1c-4.2,0-7.8,1.5-10.7,4.5
				c-5.1,5.2-5.8,11.2-3.3,17.8c-8.5,8.4-17,16.9-25.5,25.3C73.8,215.4,73.4,216.2,73.5,217.1z"/>
			<path fill="#7866AD" d="M147.9,112.8c0.2,1.5-1.1,2.2-1.9,3c-32.6,32.7-65.3,65.3-98,98c-0.9,0.9-2.2,1.6-1.9,3.3
				c-5.6,0.5-11.2,0.1-16.8,0.2c-3.2,0-6.4,0.3-9.6-0.2c-0.1-1.2,0.9-1.7,1.5-2.4c5.7-5.8,11.4-11.5,17.1-17.3
				c8.2,2.2,14.2-1,19.9-6.9c12.1-12.6,24.6-25,37.1-37.2c4.9-4.8,7.2-10.2,6.1-16.9c0.4-1,1.2-1.6,1.9-2.3
				c12.5-12.5,25-25,37.5-37.5c0.7-0.7,1.6-1.2,1.7-2.4c8.2,0,16.3,0,24.5,0c0,1-0.9,1.5-1.5,2.2c-2.5,2.6-5.1,5.1-7.7,7.7
				c-0.9,0.9-1.7,1.8-1.8,3.1c-0.4,0-0.8,0.1-1.2,0.1c-2.7,0-5.4-0.1-8.1,0c-1.7,0.1-2.9,1-2.8,2.8c0.1,1.6,1.1,2.5,2.7,2.6
				C146.9,112.7,147.4,112.8,147.9,112.8z"/>
			<path fill="#9557A3" d="M228.1,130.2c-1.2-0.1-1.8,0.7-2.5,1.4c-11.1,11.1-22.2,22.2-33.3,33.3c-0.6,0.6-1.5,1.1-1.5,2.2
				c-11,0-22,0-32.9-0.1c-0.2-1.4,0.9-2.1,1.7-2.9c10-10.1,20.1-20.1,30.2-30.2c0.7-0.7,1.7-1.4,1.6-2.7c3.5,0,7.1-0.1,10.6-0.1
				c1.6,0,2.4-1,2.5-2.5c0-1.6-0.8-2.5-2.4-2.6c-1.1-0.1-2.1-0.1-3.2-0.2c-0.1-1.2,0.8-1.8,1.5-2.5c8.4-8.4,16.9-16.9,25.3-25.3
				c0.7-0.7,1.3-1.6,2.5-1.4C228.1,107.9,228.1,119,228.1,130.2z"/>
			<path fill="#6D7BBC" d="M124.4,51.4c10.8,0,21.6,0,32.4,0c-0.1,1-0.9,1.5-1.5,2.2c-4.7,4.7-9.3,9.3-14,14
				c-0.8,0.8-1.7,1.4-1.5,2.7c-4.1,0-8.1,0.1-12.2,0.1c-3.3,0-4.8,0.8-4.7,2.7c0.2,2.8,2.4,2.7,4.4,2.8c0.2,1.4-0.9,2.1-1.7,2.9
				c-12.5,12.5-25,25-37.4,37.5c-0.7,0.7-1.3,1.5-1.9,2.2c-2.3-2.2-4.6-4.5-6.9-6.7c-2.5-2.4-5.2-4.5-7.2-7.4
				c0.6-0.4,1.2-0.8,1.8-1.3c16.4-16.3,32.7-32.7,49.1-49.1C123.8,53.2,124.6,52.6,124.4,51.4z"/>
			<path fill="#2FC2E1" d="M40.1,45.8c-11.1,0-22.3,0-33.4,0.1c-1.5,0-2-0.5-2-2c0.1-9.7,0-19.5,0.1-29.2c0.1-5.4,4-9.6,9.4-9.7
				c21.5-0.1,43.1,0,64.6,0c0.2,0,0.5,0.1,0.7,0.1c0.2,1.3-0.7,2.1-1.5,3c-1.4,1.6-3.5,2.6-4.1,4.9c-3-0.8-5.9-0.7-8.8,0.5
				c-6,2.6-8.6,7.7-7.7,15.3c-1.1-0.2-1.8,0.6-2.5,1.3c-4.5,4.6-9.1,9.1-13.6,13.6C40.8,44.4,40.1,44.9,40.1,45.8z M50.2,25.5
				c0-7.2-5.8-13.1-12.9-13.1c-7,0-13,6-13.1,13.1c0,7.1,5.9,12.9,13.1,12.9C44.7,38.4,50.2,32.9,50.2,25.5z"/>
			<path fill="#6D7BBC" d="M4.7,203.5c0.1-10.6,0.1-21.3,0.2-31.9c1.3,0.1,1.9-0.9,2.6-1.7c13.6-13.6,27.3-27.3,40.9-40.9
				c0.7-0.7,1.5-1.3,2.3-1.9c4,3.9,7.9,7.9,11.9,11.7c1.4,1.3,1.2,2-0.1,3.2c-9.5,9.4-18.9,18.9-28.4,28.3c-3.3,3.3-5.5,7-5.8,11.7
				c-1.3,0.3-2.2,1.1-3,2c-6,6-11.9,11.9-17.9,17.9C6.7,202.8,6,203.7,4.7,203.5z"/>
			<path fill="#895BA5" d="M228,96.7c-1.2-0.1-1.8,0.7-2.5,1.4c-8.4,8.4-16.9,16.9-25.3,25.3c-0.7,0.7-1.6,1.3-1.5,2.5
				c-12,0.2-24,0.2-35.9,0c-0.1-1.1,0.6-1.6,1.3-2.3c2.4-2.4,4.9-4.8,7.2-7.2c0.9-1,2-2,2-3.6c0.9,0,1.8-0.1,2.7-0.1
				c8.4,0,16.8,0,25.1,0c2.5,0,3.7-1.4,3-3.6c-0.6-1.7-2-1.7-3.5-1.7c-5.5,0-10.9-0.1-16.4-0.1c0-1.1,0.8-1.6,1.4-2.2
				c2.7-2.7,5.4-5.3,8-8.1c0.8-0.8,1.9-1.4,2-2.7c1.7,0,3.4-0.1,5.2-0.1c1.5,0,2.8-0.2,3.4-1.8c0.6-1.6-0.3-2.6-1.6-3.4
				c0-1,0.7-1.6,1.4-2.3c7.2-7.2,14.4-14.4,21.7-21.7c0.6-0.6,1.2-1.4,2.3-1.3C228.3,74.8,228.2,85.7,228,96.7z"/>
			<path fill="#43A7DE" d="M4.9,117.2c-0.2-7.6-0.2-15.3,0-22.9c1.3,0.1,1.9-0.9,2.6-1.6c13-13,26.1-26,39.1-39.1
				c0.6-0.6,1.5-1.1,1.5-2.2c7.6,0,15.3,0,22.9,0c-0.1,1.1-1,1.7-1.7,2.4C60.7,62.4,52,71.1,43.3,79.8c-0.8,0.8-1.9,1.5-1.7,2.9
				c-7.2,1.5-11.6,5.8-13.1,13c-1.3-0.2-1.9,0.8-2.7,1.5c-6.1,6.1-12.2,12.2-18.3,18.3C6.8,116.3,6.1,117.3,4.9,117.2z"/>
			<path fill="#7F60A9" d="M228,63.8c-1.1-0.1-1.7,0.6-2.3,1.3c-7.2,7.2-14.4,14.4-21.7,21.7c-0.6,0.6-1.3,1.3-1.4,2.3
				c-1.1,0-2.2-0.1-3.2-0.1c-8.7,0-17.4-0.1-26.1-0.1c0-1,0.8-1.6,1.5-2.2c2.7-2.8,5.5-5.5,8.2-8.2c0.7-0.7,1.5-1.4,1.3-2.5
				c5.6,0,11.1-0.1,16.7-0.1c1.9,0,3.4-0.6,3.4-2.7c0-2.1-1.5-2.7-3.4-2.7c-3.1,0-6.1-0.1-9.2-0.1c2-4.6,6.4-7.1,9.7-10.6
				c2.1-2.3,3.9-5.1,6.8-6.7c0.5-0.3,0.5-1,0.5-1.6c6.3-0.1,12.7-0.2,19,0.1c0,0.1,0.1,0.2,0.2,0.3C228.2,55.8,228.2,59.8,228,63.8z
				"/>
			<path fill="#9557A3" d="M159.4,198.2c0.2,1.3-0.5,2.2-1.4,3c-4.5,4.5-9.1,9-13.6,13.6c-0.7,0.7-1.6,1.3-1.5,2.4
				c-3.2,0.1-6.4,0.2-9.7,0.2c-11,0-22,0-33,0c-0.9,0-1.8-0.1-2.7-0.2c-0.2-1.2,0.6-2,1.3-2.8c4.6-4.6,9.2-9.1,13.7-13.7
				c0.7-0.7,1.6-1.3,1.4-2.5C129.1,198.2,144.2,198.2,159.4,198.2z"/>
			<path fill="#32B2E2" d="M48.1,51.4c0,1-0.9,1.6-1.5,2.2c-13,13-26,26.1-39.1,39.1c-0.7,0.7-1.4,1.7-2.6,1.6
				c-0.2-8.8-0.2-17.6,0-26.4c1,0.1,1.7-0.6,2.3-1.2c4.4-4.5,8.9-8.9,13.3-13.3c0.5-0.5,1.1-1,1.2-1.8
				C30.5,51.4,39.3,51.4,48.1,51.4z"/>
			<path fill="#618ECA" d="M96,51.4c5.5,0,11,0,16.5,0c-0.1,1.2-1.1,1.8-1.9,2.5C96.6,68,82.5,82,68.5,96c-0.8,0.8-1.7,1.4-2.1,2.4
				c-2.9-2.7-5.8-5.3-8.3-8.3c0.6-0.7,1.2-1.4,1.8-2c11.5-11.5,22.9-22.9,34.4-34.4C95,53.1,95.9,52.5,96,51.4z"/>
			<path fill="#618ECA" d="M121.4,45.8c-6,0-12,0-18,0c1.1-2.6,3.6-4,5.4-6.1c0.9-1.1,2.1-1.9,2.1-3.5c0.8-0.8,1.7-1.6,2.5-2.4
				c1.3,0.2,2-0.6,2.7-1.4c8.3-8.3,16.6-16.6,24.9-24.9c0.6-0.6,1.4-1.2,1.4-2.2c5.3-0.3,10.6-0.4,15.9,0c0.1,1.2-0.9,1.7-1.5,2.4
				c-4.1,4.2-8.3,8.3-12.5,12.5c-0.8,0.8-1.7,1.4-1.5,2.7c-1.3,0.8-2.1,1.9-2,3.5c-1.1-0.2-1.8,0.6-2.5,1.3
				c-5.2,5.2-10.4,10.4-15.6,15.6C122,44,121.3,44.7,121.4,45.8z"/>
			<path fill="#7866AD" d="M208.3,45.8c-7.2,0-14.3,0-21.5,0c0-1.1,0.9-1.6,1.5-2.2c4.2-4.2,8.3-8.3,12.5-12.5
				c0.8-0.8,1.7-1.4,1.5-2.7c0.9,0,1.8-0.1,2.7-0.1c3.5-0.1,4.5-2,2.8-4.9c1.6-1,2.8-2.6,4.2-3.9c4.2-4,8-8.4,12.5-12.2
				c2.5,1.7,3.6,4.3,3.7,7.1c0.1,4,0,7.9-0.1,11.9c-1.7,0.2-2.8,1.3-3.9,2.4c-4.5,4.4-8.9,8.9-13.4,13.4
				C209.7,43.2,208.7,44.3,208.3,45.8z"/>
			<path fill="#6786C4" d="M66.4,98.5c0.4-1,1.3-1.7,2.1-2.4c14-14,28.1-28.1,42.1-42.1c0.7-0.7,1.8-1.3,1.9-2.5c4,0,8,0,12,0
				c0.1,1.2-0.6,1.8-1.3,2.5C106.7,70.3,90.4,86.6,74,103c-0.5,0.5-1.2,0.9-1.8,1.3C70.3,102.4,68.4,100.4,66.4,98.5z"/>
			<path fill="#716FB3" d="M4.7,203.5c1.3,0.2,1.9-0.8,2.7-1.5c6-6,11.9-11.9,17.9-17.9c0.9-0.9,1.8-1.8,3-2
				c-0.1,2.1,0.1,4.1,0.9,6.1c1.8,4.3,5.1,7,9,9.2c-5.7,5.8-11.4,11.5-17.1,17.3c-0.7,0.7-1.6,1.2-1.5,2.4c-1.9,0.5-3.8,0.3-5.7,0.2
				c-5.6-0.5-9.3-4.6-9.3-10.3C4.7,205.8,4.7,204.7,4.7,203.5z"/>
			<path fill="#618ECA" d="M4.9,158.6c-0.3-5.5-0.2-11,0-16.5c1.2,0.1,1.8-0.8,2.5-1.5c9-9,18-17.9,26.9-26.9
				c0.5-0.5,0.9-1.1,1.4-1.7c2.9,2.9,5.7,5.7,8.6,8.6c-1,0.4-1.6,1.2-2.3,1.9C30.5,134,19,145.5,7.5,157
				C6.8,157.7,6.2,158.7,4.9,158.6z"/>
			<path fill="#6D7BBC" d="M171.9,5.3c5.9-0.5,11.9-0.2,17.8-0.2c4.7,0,9.4-0.3,14.1,0.2c0.1,1.2-0.9,1.7-1.6,2.4
				c-4.1,4.2-8.3,8.3-12.4,12.4c-0.7,0.7-1.7,1.4-1.5,2.7c-10.6,0-21.3,0-31.9,0c0-1.1,0.9-1.6,1.5-2.2c4-4,8-8,12-12
				C170.8,7.7,171.8,6.7,171.9,5.3z"/>
			<path fill="#6786C4" d="M4.9,158.6c1.3,0.1,1.9-0.9,2.6-1.6c11.5-11.5,23-23,34.5-34.4c0.7-0.7,1.3-1.5,2.3-1.9
				c2.3,2,4.5,4.2,6.5,6.5c-0.8,0.6-1.6,1.2-2.3,1.9c-13.6,13.6-27.3,27.3-40.9,40.9c-0.7,0.7-1.4,1.7-2.6,1.7
				C4.6,167.3,4.7,162.9,4.9,158.6z"/>
			<path fill="#895BA5" d="M114,198.2c0.2,1.2-0.7,1.8-1.4,2.5c-4.6,4.6-9.1,9.2-13.7,13.7c-0.8,0.8-1.5,1.5-1.3,2.8
				c-8,0.3-16,0.3-24,0c-0.1-1,0.3-1.7,1-2.4c8.5-8.4,17-16.9,25.5-25.3C103.2,194.7,107.6,197.9,114,198.2z"/>
			<path fill="#43A7DE" d="M94.5,5.2c4.8-0.3,9.6-0.3,14.5,0c0.2,1.3-0.7,2-1.4,2.9c-1.2,1.4-3,2.3-3.5,4.2
				c-6,0.2-10.5,2.7-12.9,8.3c-1.6,3.7-1,7.4,0.5,11c-4.9,3.5-8.6,8.1-12.8,12.3c-0.4,0.4-0.5,1.2-0.7,1.8c-7.8,0-15.6,0-23.4,0
				c0.9-2.6,3.4-3.7,5-5.7c1-1.3,2.7-2,3-3.8c7.1,4.3,14,1.9,17.4-2.1c3.8-4.5,4-9.4,2-14.6C85.3,15.4,89.4,12,93,8.1
				C93.8,7.3,94.7,6.5,94.5,5.2z"/>
			<path fill="#7866AD" d="M208.8,51.4c0,0.6,0.1,1.3-0.5,1.6c-2.9,1.6-4.7,4.4-6.8,6.7c-3.3,3.5-7.6,6-9.7,10.6
				c-8.8,0-17.6,0-26.4,0c0-1,0.9-1.6,1.5-2.2c4.7-4.7,9.3-9.3,14-14c0.7-0.7,1.7-1.4,1.5-2.7C191.1,51.4,200,51.4,208.8,51.4z"/>
			<path fill="#716FB3" d="M182.3,51.4c0.2,1.3-0.8,1.9-1.5,2.7c-4.7,4.7-9.3,9.3-14,14c-0.6,0.6-1.5,1.1-1.5,2.2
				c-8.5,0-17,0-25.5,0c-0.2-1.3,0.7-1.9,1.5-2.7c4.7-4.7,9.3-9.3,14-14c0.6-0.6,1.5-1.1,1.5-2.2C165.4,51.4,173.8,51.4,182.3,51.4z
				"/>
			<path fill="#5897D1" d="M96,51.4c-0.1,1.1-1,1.7-1.7,2.4C82.8,65.2,71.4,76.7,59.9,88.1c-0.6,0.6-1.2,1.3-1.8,2
				c-2.3-1.8-4.1-4.2-6.6-5.7c0-1.2,1-1.9,1.7-2.6c9.2-9.2,18.4-18.4,27.6-27.6c0.8-0.8,1.9-1.5,1.7-2.9C87,51.4,91.5,51.4,96,51.4z
				"/>
			<path fill="#6D7BBC" d="M164.4,45.8c-7.8,0-15.6,0-23.5,0c-0.2-1.3,0.7-2,1.5-2.7c4.2-4.2,8.4-8.3,12.5-12.5
				c0.6-0.6,1.5-1.1,1.5-2.2c7.8,0,15.6,0,23.5,0c0.2,1.3-0.7,1.9-1.5,2.7c-4.2,4.2-8.3,8.3-12.5,12.5
				C165.2,44.2,164.4,44.7,164.4,45.8z"/>
			<path fill="#716FB3" d="M164.4,45.8c0-1.1,0.9-1.6,1.5-2.2c4.2-4.2,8.3-8.3,12.5-12.5c0.8-0.8,1.7-1.4,1.5-2.7c7.5,0,15,0,22.5,0
				c0.2,1.3-0.7,1.9-1.5,2.7c-4.2,4.2-8.3,8.3-12.5,12.5c-0.6,0.6-1.5,1.1-1.5,2.2C179.3,45.8,171.8,45.8,164.4,45.8z"/>
			<path fill="#4EA0D8" d="M82.5,51.4c0.2,1.4-0.9,2.1-1.7,2.9c-9.2,9.2-18.4,18.4-27.6,27.6c-0.7,0.7-1.7,1.4-1.7,2.6
				c-3.1-1.6-6.5-2-9.9-1.7c-0.2-1.4,0.9-2.1,1.7-2.9c8.7-8.7,17.4-17.4,26.1-26.1c0.7-0.7,1.6-1.2,1.7-2.4
				C74.9,51.4,78.7,51.4,82.5,51.4z"/>
			<path fill="#716FB3" d="M188.3,22.8c-0.2-1.3,0.8-1.9,1.5-2.7c4.1-4.1,8.3-8.3,12.4-12.4c0.7-0.7,1.6-1.2,1.6-2.4
				c5.5-0.3,10.9-0.4,16.4,0.1c1.6,0.1,3.1,0.7,4.2,2c-4.4,3.8-8.3,8.2-12.5,12.2c-1.4,1.3-2.5,2.9-4.2,3.9c-1-0.5-2-0.5-3.1-0.5
				C199.2,22.9,193.8,22.8,188.3,22.8z"/>
			<path fill="#5897D1" d="M35.7,112c-0.5,0.6-0.9,1.2-1.4,1.7c-9,9-17.9,18-26.9,26.9c-0.7,0.7-1.3,1.6-2.5,1.5
				c-0.3-4.5-0.2-9,0-13.5c1.3,0.2,2.1-0.6,3-1.4c6.6-6.7,13.3-13.3,19.9-19.9c0.7-0.7,1.3-1.6,2.4-1.6
				C31.7,108.1,33.8,109.9,35.7,112z"/>
			<path fill="#6786C4" d="M156.4,28.4c0,1.1-0.9,1.6-1.5,2.2c-4.2,4.2-8.3,8.4-12.5,12.5c-0.8,0.8-1.7,1.4-1.5,2.7
				c-6.5,0-13,0-19.5,0c-0.2-1.2,0.6-1.8,1.3-2.5c5.2-5.2,10.4-10.4,15.6-15.6c0.7-0.7,1.4-1.4,2.5-1.3c0.9,1.5,2.3,2,4,1.9
				C148.7,28.3,152.6,28.3,156.4,28.4z"/>
			<path fill="#5897D1" d="M142.4,5.2c0,1.1-0.7,1.6-1.4,2.2c-8.3,8.3-16.6,16.6-24.9,24.9c-0.8,0.8-1.5,1.6-2.7,1.4
				c3.2-4.5,3.6-9.3,1.5-14.3c3.9-3.8,7.8-7.6,11.6-11.5c0.8-0.8,1.3-1.7,1.4-2.8C132.8,4.9,137.6,4.9,142.4,5.2z"/>
			<path fill="#4EA0D8" d="M30.2,105.7c-1.2,0-1.7,0.9-2.4,1.6c-6.7,6.6-13.3,13.3-19.9,19.9c-0.8,0.9-1.7,1.6-3,1.4
				c-0.2-3.8-0.2-7.7,0-11.5c1.3,0.1,1.9-0.9,2.6-1.6c6.1-6.1,12.2-12.2,18.3-18.3c0.7-0.7,1.4-1.7,2.7-1.5
				C28.1,99.2,28.7,102.5,30.2,105.7z"/>
			<path fill="#6786C4" d="M171.9,5.3c-0.1,1.4-1,2.4-2,3.3c-4,4-8,8-12,12c-0.6,0.6-1.5,1.1-1.5,2.2c-4.5,0-9,0-13.5,0.1
				c-0.2-1.3,0.7-1.9,1.5-2.7c4.2-4.2,8.3-8.3,12.5-12.5c0.7-0.7,1.6-1.2,1.5-2.4C162.9,4.9,167.4,4.9,171.9,5.3z"/>
			<path fill="#7F60A9" d="M208.3,45.8c0.4-1.5,1.4-2.6,2.4-3.7c4.5-4.5,8.9-8.9,13.4-13.4c1.1-1.1,2.2-2.2,3.9-2.4
				c0,6,0.1,11.9,0.2,17.9c0,1.3-0.5,1.7-1.8,1.7C220.4,45.8,214.3,45.8,208.3,45.8z"/>
			<path fill="#4EA0D8" d="M128,5.2c-0.1,1.1-0.6,2-1.4,2.8c-3.9,3.8-7.8,7.6-11.6,11.5c-2.6-4-6.1-6.5-10.9-7.1
				c0.5-2,2.3-2.8,3.5-4.2c0.8-0.9,1.7-1.6,1.4-2.9C115.3,4.9,121.6,4.9,128,5.2z"/>
			<path fill="#32B2E2" d="M62.6,36.3c-0.3,1.8-2,2.5-3,3.8c-1.6,2-4.1,3.2-5,5.7c-4.8,0-9.7,0-14.5,0c0-1,0.7-1.5,1.3-2
				c4.5-4.6,9.1-9.1,13.6-13.6c0.7-0.7,1.4-1.5,2.5-1.3C58.2,32,60.5,34.1,62.6,36.3z"/>
			<path fill="#32B2E2" d="M94.5,5.2c0.2,1.3-0.7,2.1-1.5,3C89.4,12,85.3,15.4,82,19.5c-2-3-4.5-5.3-8-6.5c0.6-2.3,2.7-3.3,4.1-4.9
				c0.8-0.9,1.7-1.6,1.5-3C84.5,4.9,89.5,4.9,94.5,5.2z"/>
			<path fill="#2FC2E1" d="M21.6,51.4c0,0.8-0.6,1.3-1.2,1.8c-4.4,4.5-8.9,8.9-13.3,13.3c-0.6,0.6-1.3,1.3-2.3,1.2
				c0-5-0.1-9.9-0.1-14.9c0-1.4,0.6-1.6,1.8-1.6C11.5,51.3,16.6,51.4,21.6,51.4z"/>
			<path fill="#4EA0D8" d="M78,45.8c0.2-0.6,0.3-1.4,0.7-1.8c4.2-4.2,7.9-8.8,12.8-12.3c1.6,2.3,3.5,4.3,6,5.6
				c-0.6,2-2.5,2.8-3.6,4.3c-1.1,1.4-3,2.2-3.4,4.1C86.3,45.8,82.2,45.8,78,45.8z"/>
			<path fill="#5897D1" d="M90.5,45.8c0.4-1.9,2.3-2.7,3.4-4.1c1.1-1.5,3-2.3,3.6-4.3c4.7,1.8,9.1,1.4,13.4-1.2
				c0,1.6-1.2,2.5-2.1,3.5c-1.8,2.1-4.3,3.4-5.4,6.1C99.2,45.8,94.8,45.8,90.5,45.8z"/>
			<path fill="#9F53A0" d="M228,51.8c-0.1-0.1-0.2-0.2-0.2-0.3C228,51.4,228.1,51.5,228,51.8z"/>
			<path fill="#F7FAFC" d="M114,198.2c-6.3-0.2-10.8-3.5-13.9-8.8c-2.5-6.6-1.8-12.7,3.3-17.8c2.9-2.9,6.5-4.4,10.7-4.5
				c3.6,0,7.3-0.1,10.9-0.1c11,0,22,0,32.9,0c11,0,22,0,32.9,0.1c6.4,1.3,11.1,4.7,13,11.2c2.9,9.6-4.3,19.7-14.4,19.8
				c-10,0.1-20.1,0.1-30.1,0.1C144.2,198.2,129.1,198.2,114,198.2z M183.8,172.6c-11.3,0-22.6,0-33.9,0c-11.7,0-23.4-0.1-35.2-0.1
				c-6,0-10.5,4-10.7,9.5c-0.3,5.7,3.7,10.4,9.7,10.8c6,0.3,12.1,0.3,18.2,0c1.1,0.1,2.1,0.2,3.2,0.2c10.1,0,20.2-0.1,30.2-0.1
				c8,0,16.1,0.3,24.1,0.1c5.8-0.2,10-5,9.8-10.5c-0.2-5.7-4.6-9.7-10.7-9.8C187,172.5,185.4,172.5,183.8,172.6z"/>
			<path fill="#895BA5" d="M157.9,167c-11,0-22,0-32.9,0c0.1-1.1,1-1.7,1.7-2.4c9.8-9.9,19.7-19.7,29.6-29.6
				c1.1-1.1,2.2-2.1,2.2-3.7c11,0,22,0,32.9,0c0.2,1.3-0.8,1.9-1.6,2.7c-10.1,10.1-20.1,20.1-30.2,30.2
				C158.8,165,157.7,165.6,157.9,167z"/>
			<path fill="#F7FAFC" d="M184.3,107.3c5.5,0,10.9,0.1,16.4,0.1c1.4,0,2.9,0.1,3.5,1.7c0.7,2.1-0.5,3.6-3,3.6c-8.4,0-16.8,0-25.1,0
				c-0.9,0-1.8,0.1-2.7,0.1c-8.5,0-17,0-25.5,0c-0.5,0-1-0.1-1.5-0.1c-1.7,0-2.7-1-2.7-2.6c-0.1-1.8,1.1-2.7,2.8-2.8
				c2.7-0.1,5.4,0,8.1,0c0.4,0,0.8-0.1,1.2-0.1C165.3,107.3,174.8,107.3,184.3,107.3z"/>
			<path fill="#F7FAFC" d="M191.3,131.3c-11,0-22,0-32.9,0c-3.8,0-7.6-0.1-11.4-0.1c-1.8,0-3.2-0.6-3.2-2.6c0-2,1.4-2.6,3.2-2.6
				c5.3,0,10.6-0.1,15.9-0.1c12,0.2,24,0.2,35.9,0c1.1,0.1,2.1,0.1,3.2,0.2c1.6,0.1,2.4,1,2.4,2.6c0,1.6-0.9,2.5-2.5,2.5
				C198.4,131.3,194.8,131.3,191.3,131.3z"/>
			<path fill="#F7FAFC" d="M30.2,105.7c-1.5-3.2-2.1-6.5-1.7-10c1.5-7.2,5.9-11.5,13.1-13c3.4-0.2,6.8,0.2,9.9,1.7
				c2.5,1.6,4.3,3.9,6.6,5.7c2.6,3,5.5,5.6,8.3,8.3c1.9,1.9,3.9,3.9,5.8,5.8c2,2.9,4.8,5,7.2,7.4c2.3,2.2,4.6,4.5,6.9,6.7
				c0.5,1.3,1.7,2,2.6,2.9c4.6,4.7,10.1,8.5,12.4,15.1c1.1,6.8-1.2,12.1-6.1,16.9c-12.6,12.2-25,24.5-37.1,37.2
				c-5.6,5.9-11.7,9.1-19.9,6.9c-3.8-2.2-7.2-4.9-9-9.2c-0.8-2-1-4-0.9-6.1c0.2-4.7,2.5-8.4,5.8-11.7c9.5-9.4,18.9-18.9,28.4-28.3
				c1.3-1.2,1.5-1.9,0.1-3.2c-4.1-3.8-8-7.8-11.9-11.7c-2-2.3-4.2-4.5-6.5-6.5c-2.9-2.9-5.7-5.7-8.6-8.6
				C33.8,109.9,31.7,108.1,30.2,105.7z M47.6,88.7c-3.9-1.6-7.9-0.8-10.9,2.1c-3,3-3.8,7-2.2,10.9c0.8,2.9,3.3,4.4,5.2,6.5
				c2.6,3.2,5.8,5.8,8.7,8.7c3,3,5.9,5.9,8.9,8.9c3.7,3.7,7.3,7.3,11,11c3.2,3.6,3.2,3.9-0.3,7.3c-10.3,10.3-20.7,20.7-31,31
				c-4.4,4.4-4.5,10.6-0.4,14.7c4.1,4.1,10.5,4,14.9-0.4c3.4-3.4,6.8-6.8,10.2-10.2c10.5-10.5,20.9-20.9,31.4-31.4
				c4.1-4.1,4.4-10.1,0.6-14.2c-3.4-3.6-7.1-7-10.6-10.5c-3.8-3.8-7.7-7.7-11.5-11.5c-3-3-5.9-5.9-8.9-8.9c-2.8-2.9-5.7-5.7-8.5-8.6
				C52.1,92.1,50.6,89.6,47.6,88.7z"/>
			<path fill="#716FB3" d="M101.4,136.4c-2.2-6.6-7.8-10.4-12.4-15.1c-0.9-0.9-2.1-1.6-2.6-2.9c0.6-0.7,1.2-1.5,1.9-2.2
				c12.5-12.5,25-25,37.4-37.5c0.8-0.8,1.9-1.5,1.7-2.9c10.8,0,21.6,0,32.4,0c0.2,1.1-0.6,1.8-1.3,2.5c-2.7,2.7-5.5,5.5-8.2,8.2
				c-0.6,0.6-1.5,1.1-1.5,2.2c-7.4,0-14.8,0.1-22.2,0.1c-1.9,0-3.7,0.5-3.7,2.7c0,2.3,1.7,2.7,3.7,2.7c5.2,0,10.5,0,15.7,0.1
				c-0.1,1.1-1,1.7-1.7,2.4c-12.5,12.5-25,25-37.5,37.5C102.6,134.8,101.7,135.4,101.4,136.4z"/>
			<path fill="#F7FAFC" d="M142.4,94.3c-5.2,0-10.5-0.1-15.7-0.1c-2,0-3.7-0.4-3.7-2.7c0-2.3,1.8-2.7,3.7-2.7
				c7.4,0,14.8-0.1,22.2-0.1c8.2,0,16.3,0,24.5,0c8.7,0,17.4,0.1,26.1,0.1c1.1,0,2.2,0.1,3.2,0.1c1.3,0.8,2.2,1.8,1.6,3.4
				c-0.5,1.6-1.9,1.9-3.4,1.8c-1.7,0-3.4,0-5.2,0.1c-9.6,0-19.3,0-28.9,0C158.7,94.3,150.6,94.3,142.4,94.3z"/>
			<path fill="#7F60A9" d="M166.9,94.3c9.6,0,19.3,0,28.9,0c-0.1,1.3-1.3,1.9-2,2.7c-2.6,2.7-5.4,5.4-8,8.1
				c-0.6,0.6-1.4,1.2-1.4,2.2c-9.5,0-19,0-28.4,0c0.1-1.3,0.9-2.2,1.8-3.1c2.6-2.5,5.1-5.1,7.7-7.7C166,95.8,166.8,95.3,166.9,94.3z
				"/>
			<path fill="#F7FAFC" d="M159.9,75.8c-10.8,0-21.6,0-32.4,0c-2-0.1-4.2,0-4.4-2.8c-0.1-1.9,1.4-2.7,4.7-2.7
				c4.1,0,8.1-0.1,12.2-0.1c8.5,0,17,0,25.5,0c8.8,0,17.6,0,26.4,0c3.1,0,6.1,0.1,9.2,0.1c1.9,0,3.4,0.7,3.4,2.7
				c0,2.1-1.5,2.7-3.4,2.7c-5.6,0-11.1,0-16.7,0.1C176.2,75.8,168,75.8,159.9,75.8z"/>
			<path fill="#F7FAFC" d="M74,13c3.5,1.2,6,3.5,8,6.5c2,5.2,1.8,10.2-2,14.6c-3.4,4-10.3,6.4-17.4,2.1c-2.1-2.2-4.4-4.2-5.1-7.4
				c-0.9-7.6,1.7-12.7,7.7-15.3C68.1,12.3,71,12.2,74,13z M70.2,17.9c-4.3,0-7.7,3.5-7.6,7.8c0,4.1,3.5,7.6,7.6,7.6
				c4.1,0,7.8-3.6,7.8-7.7C78,21.4,74.4,17.8,70.2,17.9z"/>
			<path fill="#F7FAFC" d="M50.2,25.5c0,7.4-5.5,12.9-12.9,12.9c-7.2,0-13.1-5.8-13.1-12.9c0-7.1,6-13,13.1-13.1
				C44.4,12.4,50.2,18.3,50.2,25.5z M29.6,25.5c0,4.2,3.5,7.8,7.7,7.8c4.2,0,7.8-3.7,7.8-7.8c0-4.1-3.5-7.6-7.6-7.6
				C33.1,17.8,29.6,21.2,29.6,25.5z"/>
			<path fill="#7866AD" d="M159.9,75.8c8.2,0,16.3,0,24.5,0c0.2,1.2-0.6,1.8-1.3,2.5c-2.7,2.7-5.5,5.5-8.2,8.2
				c-0.6,0.6-1.4,1.1-1.5,2.2c-8.2,0-16.3,0-24.5,0c0-1,0.8-1.6,1.5-2.2c2.7-2.8,5.5-5.5,8.2-8.2C159.3,77.6,160,77,159.9,75.8z"/>
			<path fill="#F7FAFC" d="M142.9,22.9c4.5,0,9,0,13.5-0.1c10.6,0,21.3,0,31.9,0c5.4,0,10.9,0.1,16.3,0.1c1.1,0,2.1,0,3.1,0.5
				c1.8,2.9,0.7,4.8-2.8,4.9c-0.9,0-1.8,0.1-2.7,0.1c-7.5,0-15,0-22.5,0c-7.8,0-15.6,0-23.5,0c-3.8,0-7.6-0.1-11.4-0.1
				c-1.7,0-3.1-0.4-4-1.9C140.8,24.8,141.6,23.6,142.9,22.9z"/>
			<path fill="#F7FAFC" d="M110.9,36.2c-4.3,2.6-8.8,3-13.4,1.2c-2.5-1.4-4.3-3.4-6-5.6c-1.5-3.6-2.1-7.3-0.5-11
				c2.4-5.7,6.9-8.1,12.9-8.3c4.8,0.6,8.3,3.1,10.9,7.1c2.1,5,1.7,9.8-1.5,14.3C112.6,34.6,111.7,35.4,110.9,36.2z M95.5,25.5
				c0,4.2,3.6,7.8,7.7,7.8c4.1,0,7.8-3.7,7.7-7.9c-0.1-4.1-3.6-7.6-7.7-7.6C99,17.8,95.5,21.3,95.5,25.5z"/>
			<path fill="#895BA5" d="M131.9,192.7c-6.1,0.4-12.1,0.4-18.2,0c-6.1-0.3-10-5-9.7-10.8c0.3-5.5,4.7-9.5,10.7-9.5
				c11.7,0,23.4,0.1,35.2,0.1c0.2,1.3-0.7,2-1.5,2.7c-5,5-10,10-15,15C132.7,191,131.8,191.5,131.9,192.7z"/>
			<path fill="#9557A3" d="M131.9,192.7c-0.1-1.2,0.8-1.7,1.5-2.4c5-5,10-10,15-15c0.8-0.8,1.7-1.4,1.5-2.7c11.3,0,22.6,0,33.9,0
				c0,1.2-1,1.7-1.6,2.4c-4.9,4.9-9.8,9.9-14.8,14.8c-0.9,0.9-1.8,1.8-2.1,3c-10.1,0.1-20.2,0.1-30.2,0.1
				C134,192.9,133,192.8,131.9,192.7z"/>
			<path fill="#9F53A0" d="M165.3,192.8c0.3-1.3,1.2-2.1,2.1-3c4.9-4.9,9.9-9.8,14.8-14.8c0.7-0.7,1.6-1.2,1.6-2.4
				c1.6,0,3.2-0.1,4.7-0.1c6.1,0.1,10.5,4.1,10.7,9.8c0.2,5.5-3.9,10.3-9.8,10.5C181.5,193.1,173.4,192.8,165.3,192.8z"/>
			<path fill="#716FB3" d="M83.1,123.1c3.5,3.5,7.2,6.9,10.6,10.5c3.8,4,3.5,10.1-0.6,14.2c-10.4,10.5-20.9,20.9-31.4,31.4
				c-3.4,3.4-6.8,6.8-10.2,10.2c-4.4,4.4-10.8,4.5-14.9,0.4c-4.1-4.1-4-10.3,0.4-14.7c10.3-10.4,20.7-20.7,31-31
				c3.4-3.4,3.4-3.7,0.3-7.3c4-3.1,7.2-7,10.8-10.4C80.4,125.1,81.4,123.7,83.1,123.1z"/>
			<path fill="#6D7BBC" d="M83.1,123.1c-1.7,0.6-2.8,2-4,3.2c-3.6,3.4-6.8,7.3-10.8,10.4c-3.7-3.7-7.3-7.3-11-11
				c5.1-4.4,9.8-9.2,14.3-14.2C75.4,115.4,79.3,119.3,83.1,123.1z"/>
			<path fill="#6786C4" d="M71.6,111.6c-4.5,5-9.2,9.8-14.3,14.2c-3-3-5.9-5.9-8.9-8.9c4.4-5,9.2-9.7,14.2-14.2
				C65.6,105.6,68.6,108.6,71.6,111.6z"/>
			<path fill="#618ECA" d="M62.7,102.6c-5,4.5-9.8,9.2-14.2,14.2c-3-2.8-6.1-5.5-8.7-8.7c5.3-4.2,9.8-9.2,14.4-14.1
				C57,96.9,59.8,99.8,62.7,102.6z"/>
			<path fill="#5897D1" d="M54.1,94.1c-4.6,4.9-9.1,10-14.4,14.1c-1.9-2-4.4-3.5-5.2-6.5c0.7,0,1.2-0.4,1.7-0.9
				c3.5-3.5,6.9-6.9,10.4-10.4c0.5-0.5,0.9-0.9,0.9-1.7C50.6,89.6,52.1,92.1,54.1,94.1z"/>
			<path fill="#4EA0D8" d="M47.6,88.7c0,0.7-0.5,1.2-0.9,1.7c-3.5,3.5-6.9,6.9-10.4,10.4c-0.5,0.5-1,0.9-1.7,0.9
				c-1.6-3.9-0.8-7.9,2.2-10.9C39.6,87.9,43.7,87.1,47.6,88.7z"/>
			<path fill="#32B2E2" d="M70.2,17.9c4.2,0,7.8,3.5,7.8,7.7c0,4.1-3.7,7.8-7.8,7.7c-4.1,0-7.6-3.5-7.6-7.6
				C62.5,21.4,65.9,17.9,70.2,17.9z"/>
			<path fill="#2FC2E1" d="M29.6,25.5c0-4.3,3.5-7.7,7.8-7.6c4.1,0,7.6,3.5,7.6,7.6c0,4.2-3.6,7.8-7.8,7.8
				C33.1,33.3,29.6,29.7,29.6,25.5z"/>
			<path fill="#4EA0D8" d="M95.5,25.5c0-4.2,3.5-7.7,7.8-7.7c4.1,0,7.6,3.5,7.7,7.6c0.1,4.1-3.6,7.8-7.7,7.9
				C99,33.3,95.5,29.8,95.5,25.5z"/>
		</g>
	</g>
</g>
</svg>
