<svg xmlns:xlink="http://www.w3.org/1999/xlink" class="IconButton black xl" width="32" height="32" viewBox="0 0 32 32" xmlns="http://www.w3.org/2000/svg"><path d="M11.0929 16.1265C11.0999 14.7619 11.4109 13.416 12.0029 12.1872C12.5951 10.9584 13.4533 9.87773 14.5152 9.02407L12.4159 6.919C12.1133 6.6157 11.7029 6.44531 11.2751 6.44531C10.8473 6.44531 10.4369 6.6157 10.1343 6.919L2.21849 14.8565C1.91601 15.1599 1.74609 15.5714 1.74609 16.0004C1.74609 16.4294 1.91601 16.8409 2.21849 17.1443L10.1343 25.0818C10.4369 25.3851 10.8473 25.5555 11.2751 25.5555C11.7029 25.5555 12.1133 25.3851 12.4159 25.0818L14.3547 23.1333C13.3342 22.2747 12.5134 21.2026 11.9499 19.9922C11.3865 18.7817 11.0939 17.4623 11.0929 16.1265Z" fill="#282729"></path><path d="M20.6647 6.81642C18.4119 6.81295 16.2273 7.59355 14.482 9.02568L20.2675 14.8461C20.4171 14.9957 20.5358 15.1736 20.6168 15.3695C20.6978 15.5654 20.7395 15.7754 20.7395 15.9876C20.7395 16.1998 20.6978 16.4098 20.6168 16.6057C20.5358 16.8016 20.4171 16.9795 20.2675 17.1291L14.3223 23.1058C16.0939 24.6149 18.3426 25.4398 20.6647 25.4322C25.958 25.4322 30.2539 21.2697 30.2539 16.1308C30.2539 10.9918 25.9493 6.81642 20.6647 6.81642Z" fill="#282729"></path></svg>