<svg xmlns="http://www.w3.org/2000/svg" xmlns:xlink="http://www.w3.org/1999/xlink" width="119" height="113" viewBox="0 0 119 113" version="1.1">
    <title>Group 4</title>
    <defs>
        <linearGradient x1="50%" y1="0%" x2="50%" y2="100%" id="linearGradient-1">
            <stop stop-color="#FAFAFA" offset="0%"/>
            <stop stop-color="#E7E7E7" offset="100%"/>
        </linearGradient>
        <linearGradient x1="50%" y1="100%" x2="50%" y2="0%" id="linearGradient-2">
            <stop stop-color="#1D93D2" offset="0%"/>
            <stop stop-color="#38B0E3" offset="100%"/>
        </linearGradient>
    </defs>
    <g id="Logo" stroke="none" stroke-width="1" fill="none" fill-rule="evenodd">
        <g id="Artboard" transform="translate(-518, -799)">
            <g id="Group-4" transform="translate(518.77, 799)">
                <g id="Group-3-Copy" transform="translate(1.23, 0)">
                    <g id="DVPN" transform="translate(0, 72)" fill="#09D2BD" fill-rule="nonzero">
                        <path d="M0,23 L0,0.032122905 L3.76595745,0.032122905 L13.9787234,0 C18.106383,0 21.3085106,0.974394786 23.5851064,2.92318436 C25.8617021,4.87197393 27,7.73091248 27,11.5 C27,15.2690875 25.8617021,18.1280261 23.5851064,20.0768156 C21.3085106,22.0256052 18.106383,23 13.9787234,23 L0,23 Z M13.6276596,4.17597765 L5.10638298,4.17597765 L5.10638298,18.8240223 L13.6276596,18.8240223 C16.3085106,18.8240223 18.3404255,18.2351024 19.7234043,17.0572626 C21.106383,15.8794227 21.7978723,14.0270019 21.7978723,11.5 C21.7978723,8.95158287 21.106383,7.09380819 19.7234043,5.92667598 C18.3404255,4.75954376 16.3085106,4.17597765 13.6276596,4.17597765 Z" id="Shape"/>
                        <polygon id="Path" points="37.4803591 24 27 1 32.6632997 1 41.28844 19.979021 41.71156 19.979021 50.3367003 1 56 1 45.5196409 24"/>
                        <path d="M58,24 L58,1 L77.4153661,1 C79.8139256,1 81.6776711,1.6004662 83.0066026,2.8013986 C84.3355342,4.002331 85,5.82517483 85,8.26993007 C85,10.7146853 84.3355342,12.5375291 83.0066026,13.7384615 C81.6776711,14.9393939 79.8139256,15.5398601 77.4153661,15.5398601 L63.1860744,15.5398601 L63.1860744,24 L58,24 Z M76.7995198,5.18181818 L63.1860744,5.18181818 L63.1860744,11.3258741 L76.7995198,11.358042 C77.7503001,11.358042 78.4795918,11.1221445 78.987395,10.6503497 C79.4951981,10.1785548 79.7490996,9.38508159 79.7490996,8.26993007 C79.7490996,7.13333333 79.4951981,6.33449883 78.987395,5.87342657 C78.4795918,5.41235431 77.7503001,5.18181818 76.7995198,5.18181818 Z" id="Shape"/>
                        <polygon id="Path" points="88 24 88 1 93.2826087 1 109.782609 17.5342657 109.782609 1 115 1 115 24 109.717391 24 93.2173913 7.43356643 93.2173913 24"/>
                    </g>
                    <g id="Group-5">
                        <g id="Group" transform="translate(66.661, 0)">
                            <rect id="Rectangle" fill="url(#linearGradient-1)" x="0" y="0" width="48" height="48" rx="12"/>
                            <path d="M31.6251491,25.7347573 C31.7005848,25.7347573 31.7933799,25.7167118 31.9035343,25.6806209 C32.0136888,25.64453 32.1276302,25.5922368 32.2453587,25.5237413 C33.5647721,24.7283138 34.6728485,24.0047115 35.569588,23.3529343 C36.4663275,22.7011571 37.1823568,22.057585 37.7176758,21.4222182 C38.2529949,20.7868513 38.6407975,20.1021939 38.8810836,19.3682459 C39.1213698,18.6342979 39.2415128,17.7806017 39.2415128,16.8071574 L39.2415128,8.72504854 L24.0089378,8.72504854 L24.0089378,16.8071574 C24.0089378,17.7806017 24.130555,18.6274008 24.3737895,19.3475546 C24.6170239,20.0677083 25.0106977,20.7384229 25.5548108,21.3596982 C26.0989239,21.9809736 26.8179015,22.6192241 27.7117435,23.2744499 C28.6055856,23.9296757 29.7004201,24.6794395 30.996247,25.5237413 C31.1139755,25.5991339 31.2277645,25.6531513 31.337614,25.6857937 C31.4474634,25.7184361 31.5433084,25.7347573 31.6251491,25.7347573 Z" id="Path" fill="#09D1BC" fill-rule="nonzero"/>
                        </g>
                        <g id="Telegram_logo" fill-rule="nonzero">
                            <circle id="Oval" fill="url(#linearGradient-2)" cx="24" cy="24" r="24"/>
                            <path d="M17.1428571,25.2948659 L19.8987957,33.516465 C19.8987957,33.516465 20.2433606,34.2857143 20.6123161,34.2857143 C20.9812715,34.2857143 26.4689517,28.1325548 26.4689517,28.1325548 L32.5714286,15.4285714 L17.2411936,23.1725976 L17.1428571,25.2948659 Z" id="Path" fill="#C8DAEA"/>
                            <path d="M19.4242862,27.4285714 L18.866904,33.4638194 C18.866904,33.4638194 18.6335908,35.3130829 20.4482949,33.4638194 C22.262999,31.6145559 24,30.1885452 24,30.1885452" id="Path" fill="#A9C6D8"/>
                            <path d="M16.60789,25.7050888 L10.8006068,23.8700473 C10.8006068,23.8700473 10.1065724,23.5969642 10.3300515,22.9777195 C10.376056,22.8500243 10.4688583,22.741368 10.7464721,22.554633 C12.0332118,21.6848056 34.5629562,13.8313588 34.5629562,13.8313588 C34.5629562,13.8313588 35.1990883,13.6234695 35.5742635,13.7617418 C35.7632241,13.8184701 35.9060507,13.9694792 35.9480506,14.1569431 C35.9885888,14.3195751 36.0055411,14.4868957 35.9984177,14.6540697 C35.996633,14.7986884 35.9785881,14.9327298 35.9649057,15.1429269 C35.8276852,17.2900908 31.7213811,33.3150686 31.7213811,33.3150686 C31.7213811,33.3150686 31.475693,34.2527821 30.5954591,34.2848982 C30.1583932,34.2985904 29.7343425,34.1395024 29.420558,33.844119 C27.6932055,32.4031249 21.7229234,28.5118831 20.4036632,27.6560945 C20.3434574,27.6163055 20.3039696,27.5531797 20.2953938,27.4830136 C20.2769523,27.3928193 20.3780831,27.281086 20.3780831,27.281086 C20.3780831,27.281086 30.7739251,18.3193449 31.0505473,17.3785544 C31.0719633,17.3056681 30.9910587,17.2697058 30.8823927,17.3016296 C30.1919276,17.5479813 18.2224122,24.878724 16.9013674,25.6877807 C16.8062748,25.7156829 16.705768,25.7216104 16.60789,25.7050888 Z" id="Path" fill="#FFFFFF"/>
                        </g>
                        <g id="+" transform="translate(54.4, 20.495)" fill="#1C1C1E" fill-rule="nonzero" stroke="#000000">
                            <polygon id="Path" points="3.03 6.21 3.03 3.18 0 3.18 0 3.03 3.03 3.03 3.03 0 3.18 0 3.18 3.03 6.21 3.03 6.21 3.18 3.18 3.18 3.18 6.21"/>
                        </g>
                    </g>
                </g>
                <g id="TELEGRAM-BOT" transform="translate(0, 104)" fill="#1C1C1E" fill-rule="nonzero" stroke="#000000">
                    <path d="M3.075,8.28 L3.075,0.33 L0,0.33 L0,0.18 L6.3,0.18 L6.3,0.33 L3.225,0.33 L3.225,8.28 L3.075,8.28 Z M15.795,8.13 L15.795,8.28 L10.74,8.28 L10.74,0.18 L15.795,0.18 L15.795,0.33 L10.89,0.33 L10.89,4.095 L14.58,4.095 L14.58,4.245 L10.89,4.245 L10.89,8.13 L15.795,8.13 Z M20.55,8.28 L20.55,0.18 L20.7,0.18 L20.7,8.13 L25.92,8.13 L25.92,5.175 L26.07,5.175 L26.07,8.28 L20.55,8.28 Z M36.03,8.13 L36.03,8.28 L30.975,8.28 L30.975,0.18 L36.03,0.18 L36.03,0.33 L31.125,0.33 L31.125,4.095 L34.815,4.095 L34.815,4.245 L31.125,4.245 L31.125,8.13 L36.03,8.13 Z M43.245,8.28 C42.695,8.28 42.245,8.245 41.895,8.175 C41.545,8.105 41.27,7.9925 41.07,7.8375 C40.87,7.6825 40.7325,7.4825 40.6575,7.2375 C40.5825,6.9925 40.545,6.695 40.545,6.345 L40.545,2.145 C40.545,1.435 40.705,0.93 41.025,0.63 C41.345,0.33 41.985,0.18 42.945,0.18 L45.54,0.18 L45.54,0.33 L42.945,0.33 C42.065,0.33 41.47,0.4675 41.16,0.7425 C40.85,1.0175 40.695,1.485 40.695,2.145 L40.695,6.345 C40.695,6.995 40.8675,7.455 41.2125,7.725 C41.5575,7.995 42.235,8.13 43.245,8.13 L46.08,8.13 L46.08,5.265 L46.23,5.265 L46.23,8.28 L43.245,8.28 Z M54.735,0.33 L51.465,0.33 L51.465,4.665 L54.735,4.665 C55.355,4.665 55.77,4.515 55.98,4.215 C56.19,3.915 56.295,3.49 56.295,2.94 L56.295,1.89 C56.295,1.43 56.1675,1.055 55.9125,0.765 C55.6575,0.475 55.265,0.33 54.735,0.33 Z M51.465,8.28 L51.315,8.28 L51.315,0.18 L54.735,0.18 C55.315,0.18 55.745,0.3425 56.025,0.6675 C56.305,0.9925 56.445,1.4 56.445,1.89 L56.445,2.925 C56.445,3.385 56.385,3.7625 56.265,4.0575 C56.145,4.3525 55.905,4.555 55.545,4.665 L55.71,4.665 C56.32,4.665 56.775,4.8025 57.075,5.0775 C57.375,5.3525 57.525,5.75 57.525,6.27 L57.525,8.28 L57.375,8.28 L57.375,6.27 C57.375,5.78 57.24,5.4125 56.97,5.1675 C56.7,4.9225 56.28,4.8 55.71,4.8 L51.465,4.8 L51.465,8.28 Z M62.355,5.085 L62.355,5.55 L68.205,5.55 L68.205,5.085 C68.205,4.815 68.1825,4.565 68.1375,4.335 C68.0925,4.105 68.035,3.89 67.965,3.69 L66.93,1.245 C66.82,0.985 66.705,0.7675 66.585,0.5925 C66.465,0.4175 66.265,0.33 65.985,0.33 L64.515,0.33 C64.215,0.33 64.005,0.4175 63.885,0.5925 C63.765,0.7675 63.655,0.98 63.555,1.23 L62.595,3.69 C62.525,3.89 62.4675,4.105 62.4225,4.335 C62.3775,4.565 62.355,4.815 62.355,5.085 Z M68.205,8.28 L68.205,5.7 L62.355,5.7 L62.355,8.28 L62.205,8.28 L62.205,5.085 C62.205,4.805 62.2275,4.5475 62.2725,4.3125 C62.3175,4.0775 62.38,3.85 62.46,3.63 L63.42,1.17 C63.53,0.89 63.655,0.655 63.795,0.465 C63.935,0.275 64.175,0.18 64.515,0.18 L65.985,0.18 C66.315,0.18 66.5475,0.275 66.6825,0.465 C66.8175,0.655 66.945,0.895 67.065,1.185 L68.1,3.63 C68.18,3.85 68.2425,4.0775 68.2875,4.3125 C68.3325,4.5475 68.355,4.805 68.355,5.085 L68.355,8.28 L68.205,8.28 Z M77.07,3.855 C77.25,3.855 77.38,3.815 77.46,3.735 C77.54,3.655 77.665,3.485 77.835,3.225 L79.665,0.435 C79.725,0.335 79.7925,0.2675 79.8675,0.2325 C79.9425,0.1975 80.02,0.18 80.1,0.18 L80.355,0.18 C80.495,0.18 80.5975,0.2175 80.6625,0.2925 C80.7275,0.3675 80.76,0.485 80.76,0.645 L80.76,8.28 L80.61,8.28 L80.61,0.645 C80.61,0.565 80.5925,0.4925 80.5575,0.4275 C80.5225,0.3625 80.455,0.33 80.355,0.33 L80.13,0.33 C80.06,0.33 80,0.34 79.95,0.36 C79.9,0.38 79.845,0.44 79.785,0.54 L77.955,3.3 C77.775,3.57 77.6375,3.755 77.5425,3.855 C77.4475,3.955 77.29,4.005 77.07,4.005 C76.85,4.005 76.6925,3.955 76.5975,3.855 C76.5025,3.755 76.365,3.57 76.185,3.3 L74.355,0.54 C74.295,0.44 74.2375,0.38 74.1825,0.36 C74.1275,0.34 74.065,0.33 73.995,0.33 L73.77,0.33 C73.67,0.33 73.605,0.3625 73.575,0.4275 C73.545,0.4925 73.53,0.565 73.53,0.645 L73.53,8.28 L73.38,8.28 L73.38,0.645 C73.38,0.485 73.4125,0.3675 73.4775,0.2925 C73.5425,0.2175 73.64,0.18 73.77,0.18 L74.025,0.18 C74.105,0.18 74.185,0.1975 74.265,0.2325 C74.345,0.2675 74.415,0.335 74.475,0.435 L76.305,3.225 C76.475,3.485 76.6,3.655 76.68,3.735 C76.76,3.815 76.89,3.855 77.07,3.855 Z M93.6,8.28 L89.565,8.28 L89.565,0.18 L92.61,0.18 C93.02,0.18 93.355,0.2225 93.615,0.3075 C93.875,0.3925 94.075,0.5075 94.215,0.6525 C94.355,0.7975 94.45,0.965 94.5,1.155 C94.55,1.345 94.575,1.55 94.575,1.77 L94.575,2.73 C94.575,3.03 94.5225,3.305 94.4175,3.555 C94.3125,3.805 94.045,3.985 93.615,4.095 C94.025,4.095 94.36,4.1375 94.62,4.2225 C94.88,4.3075 95.08,4.4275 95.22,4.5825 C95.36,4.7375 95.4525,4.92 95.4975,5.13 C95.5425,5.34 95.565,5.57 95.565,5.82 L95.565,6.78 C95.565,7 95.54,7.2025 95.49,7.3875 C95.44,7.5725 95.3475,7.73 95.2125,7.86 C95.0775,7.99 94.88,8.0925 94.62,8.1675 C94.36,8.2425 94.02,8.28 93.6,8.28 Z M92.61,0.33 L89.715,0.33 L89.715,4.095 L92.61,4.095 C93.02,4.095 93.345,4.0575 93.585,3.9825 C93.825,3.9075 94.0075,3.8075 94.1325,3.6825 C94.2575,3.5575 94.3375,3.4125 94.3725,3.2475 C94.4075,3.0825 94.425,2.91 94.425,2.73 L94.425,1.77 C94.425,1.37 94.31,1.03 94.08,0.75 C93.85,0.47 93.36,0.33 92.61,0.33 Z M93.615,4.245 L89.715,4.245 L89.715,8.13 L93.6,8.13 C94.35,8.13 94.84,8.0075 95.07,7.7625 C95.3,7.5175 95.415,7.19 95.415,6.78 L95.415,5.82 C95.415,5.37 95.3025,4.995 95.0775,4.695 C94.8525,4.395 94.365,4.245 93.615,4.245 Z M106.29,6.45 C106.29,7.05 106.075,7.5375 105.645,7.9125 C105.215,8.2875 104.415,8.475 103.245,8.475 C102.075,8.475 101.28,8.2875 100.86,7.9125 C100.44,7.5375 100.23,7.05 100.23,6.45 L100.23,2.025 C100.23,1.425 100.44,0.9375 100.86,0.5625 C101.28,0.1875 102.075,0 103.245,0 C104.415,0 105.215,0.1875 105.645,0.5625 C106.075,0.9375 106.29,1.425 106.29,2.025 L106.29,6.45 Z M100.38,6.45 C100.38,7.01 100.58,7.4625 100.98,7.8075 C101.38,8.1525 102.135,8.325 103.245,8.325 C104.355,8.325 105.115,8.1525 105.525,7.8075 C105.935,7.4625 106.14,7.01 106.14,6.45 L106.14,2.025 C106.14,1.465 105.935,1.0125 105.525,0.6675 C105.115,0.3225 104.355,0.15 103.245,0.15 C102.135,0.15 101.38,0.3225 100.98,0.6675 C100.58,1.0125 100.38,1.465 100.38,2.025 L100.38,6.45 Z M113.565,8.28 L113.565,0.33 L110.49,0.33 L110.49,0.18 L116.79,0.18 L116.79,0.33 L113.715,0.33 L113.715,8.28 L113.565,8.28 Z" id="Combined-Shape"/>
                </g>
            </g>
        </g>
    </g>
</svg>