<svg width="297" height="295" viewBox="0 0 297 295" fill="none" xmlns="http://www.w3.org/2000/svg">
<g clip-path="url(#clip0_10_48)">
<path d="M228.35 222.54L225.56 226.02C204.34 252.45 179.22 275.14 150.9 293.47L150.55 293.67C149.48 294.21 148.35 294.47 147.22 294.47C146.09 294.47 144.97 294.2 143.89 293.67L143.45 293.41C54.62 232.47 6.41 146.74 0.14 38.61L0 36.23L2.11 35.13C32.45 19.29 65 8.72 98.88 3.72L103.37 3.06L131.96 0.33C188.78 -2.16 243.29 9.54 293.95 35.1L295.9 36.09L295.97 38.28C296.37 50.38 295.21 62.54 292.53 74.43L285.4 107.16C277.74 139.81 264.45 170.54 245.89 198.5L228.36 222.55L228.35 222.54Z" fill="#32D583"/>
<path d="M262.12 63.47L262.07 61.79L260.57 61.03C221.63 41.38 179.73 32.39 136.05 34.3L133.62 34.41L133.36 36.83C130.6 62.29 134.03 87.25 143.54 111.03L144.23 112.77L146.1 112.82C170.11 113.4 193.51 118.42 215.73 127.78C216.76 128.18 217.72 128.69 218.6 129.31C216.32 135.83 213.56 142.2 210.35 148.3C208.33 146.76 206.33 145.18 204.38 143.58L204.08 143.33L203.72 143.17C190.04 137.16 175.58 133.94 160.75 133.59L155.09 133.45L158.37 138.07C173.72 159.63 193.61 176.32 217.43 187.63C218.26 188.04 219.12 188.25 219.99 188.25C220.86 188.25 221.72 188.04 222.55 187.63L223.23 187.29L223.65 186.66C237.92 165.17 248.14 141.55 254.02 116.44L254.48 114.48L252.78 113.4C226.43 96.66 197.33 86.82 166.25 84.13C164.94 77.72 163.91 71.2 163.2 64.68C195.98 66.97 226.95 76.52 255.3 93.1L258.65 95.06L259.5 91.28C261.56 82.14 262.45 72.79 262.15 63.49L262.12 63.47Z" fill="#FCFCFD"/>
<path d="M177.71 185.94L177.37 185.72L176.99 185.6C163.75 181.4 150.1 180.28 136.4 182.27L130.96 183.06L134.76 187.03C143.39 196.06 152.79 204.39 162.74 211.81C158.07 216.28 153.1 220.47 147.93 224.28C147.83 224.26 147.73 224.21 147.59 224.1C129.27 209.62 113.38 192.53 100.33 173.27C112.8 167.21 126.16 163.79 140.09 163.09C140.71 163.13 141.33 163.16 141.95 163.16C144.14 163.16 146.32 162.89 148.46 162.35L151.09 161.69L150.98 161.13L152.3 160.89L150.32 158.41C150.05 157.72 149.6 157.15 149.01 156.76C143.71 150.07 138.92 142.88 134.78 135.35L134.13 134.17L132.8 133.93C130.11 133.44 127.38 133.44 124.72 133.93C110.9 136.33 97.44 140.45 84.69 146.18C75.14 125.27 68.99 103.11 66.38 80.23C72.33 77.94 78.43 75.94 84.59 74.26C85.83 89.42 89.05 104.34 94.17 118.66L94.49 119.55L97.41 121.49L98.74 121.03C105.95 118.53 113.43 116.84 121 116.01L124.26 115.65L123.44 112.48C121.73 105.84 119.88 99.12 117.97 92.51C114.2 75.25 112.82 57.54 113.86 39.87L114.06 36.39L110.61 36.9C84.57 40.75 59.55 48.87 36.23 61.04L34.61 61.89L34.72 63.72C39.54 146.84 76.6 212.75 144.89 259.6L145.23 259.8C146.06 260.21 146.92 260.42 147.79 260.42C148.66 260.42 149.52 260.21 150.35 259.8L150.62 259.64C172.4 245.55 191.71 228.1 208.02 207.79L210.16 205.12L207.13 203.51C197.04 198.15 187.14 192.24 177.72 185.93L177.71 185.94Z" fill="#FCFCFD"/>
</g>
<defs>
<clipPath id="clip0_10_48">
<rect width="296.04" height="294.48" fill="white"/>
</clipPath>
</defs>
</svg>
