<?xml version="1.0" encoding="utf-8"?>
<!-- Generator: Adobe Illustrator 26.0.3, SVG Export Plug-In . SVG Version: 6.00 Build 0)  -->
<svg version="1.1" id="图层_1" xmlns="http://www.w3.org/2000/svg" xmlns:xlink="http://www.w3.org/1999/xlink" x="0px" y="0px"
	 viewBox="0 0 425.2 425.2" style="enable-background:new 0 0 425.2 425.2;" xml:space="preserve">
<style type="text/css">
	.st0{fill:#390176;}
	.st1{fill:#8C5417;}
	.st2{fill:#DCB266;}
	.st3{opacity:0.33;enable-background:new    ;}
	.st4{opacity:0.6;fill:#231F1F;enable-background:new    ;}
	.st5{opacity:0.33;fill:#231F1F;enable-background:new    ;}
	.st6{fill:#AE947B;}
	.st7{fill:#ECE0D2;}
	.st8{fill:#FFF2C1;}
	.st9{fill:#C6C5C0;}
	.st10{fill:#FFFFFF;}
	.st11{fill:#BABABA;}
</style>
<g>
	<path class="st0" d="M164.7,403.1c-18.2,0-33.7-10.4-39.4-26.4L36.1,127.6c-2.8-7.7-2.1-16,1.9-23.4c0.6-1,1.2-2.1,1.9-3.1
		c0.5-3.3,1.6-6.6,3.3-9.6C48.3,82.2,58,75.3,70,72.6l17.6-4.1c-0.8-4.8,0.4-10,3.4-14.4c3.9-5.7,10.1-9.2,16.3-9.2
		c6.3,0,12,3.5,16.1,9.8c0.8,1.3,1.6,2.9,2.5,5l68.3-15.8c-0.1-2.5,0-6.6,1.9-10.9c3-6.6,9.9-11,17.3-11c6.6,0,12.5,3.5,16.2,9.5
		c0.6,1.1,1.4,2.3,2.1,3.7l7.1-1.6c3-0.7,6.2-1.1,9.4-1.1c15.8,0,30.4,8.5,36.5,21l29.3,61.4c5.7-7.2,11.9-13.9,18.3-19.9
		c7.1-6.5,17.9-15.2,30.3-15.7c0.2,0,0.6,0,0.6,0c0.1,0,2.6,0.1,5.4,0.8c1.9,0.5,3.3,1,3.4,1l0.3,0.1l0.3,0.2c0.3,0.2,0.7,0.3,1,0.5
		c0.2,0.1,0.3,0.2,0.4,0.2c0.5,0.3,0.9,0.6,1.3,0.9l0.2,0.1c0.5,0.4,0.9,0.7,1.4,1.1c0.1,0.1,0.2,0.2,0.3,0.3c0.3,0.3,0.6,0.6,0.9,1
		c0.1,0.1,0.2,0.3,0.3,0.4c0.3,0.4,0.5,0.7,0.8,1.1c0.1,0.2,0.2,0.4,0.4,0.6c0.2,0.3,0.4,0.7,0.6,1.1c0.1,0.2,0.2,0.4,0.3,0.7
		c0.2,0.4,0.3,0.8,0.5,1.3c0.1,0.2,0.1,0.4,0.2,0.6c0.2,0.7,0.3,1.3,0.4,2c0.8,6.3-2,11.6-2.9,13.1c-0.1,0.1-5.9,9.9-27.3,52.4
		l-2.2,4.5l-1.4,3l-4.5,9.7l43.9,91.9c4.4,9.2,4.8,19.4,1.2,28.6c-0.9,2.3-2,4.4-3.4,6.5c-0.4,2.1-1,4.2-1.8,6.2
		c-3.6,9.1-10.8,16.2-20.3,19.9l-180.8,70.8C176.5,402,170.6,403.1,164.7,403.1z"/>
	<path class="st0" d="M384.5,269.1L340,175.9l5.1-10.9l1.4-3l2.2-4.6c21.6-42.9,27.3-52.5,27.4-52.6c0.7-1.3,3.1-5.8,2.5-11.2
		c-0.1-0.5-0.2-1-0.3-1.6c0-0.1-0.1-0.3-0.1-0.5c-0.1-0.3-0.2-0.7-0.4-1c-0.1-0.2-0.1-0.3-0.2-0.5c-0.1-0.3-0.3-0.6-0.4-0.9
		c-0.1-0.2-0.2-0.3-0.3-0.5c-0.2-0.3-0.4-0.5-0.6-0.9c-0.1-0.1-0.2-0.2-0.3-0.3c-0.2-0.3-0.5-0.6-0.8-0.8c-0.1-0.1-0.1-0.2-0.2-0.2
		c-0.4-0.3-0.7-0.7-1.1-0.9l-0.2-0.1c-0.3-0.2-0.7-0.5-1.1-0.7c-0.1-0.1-0.2-0.1-0.3-0.2c-0.3-0.2-0.6-0.3-0.9-0.5l-0.1-0.1
		c0,0-1.4-0.4-3.2-0.9c-2.5-0.7-4.7-0.7-4.7-0.7c-0.1,0-0.3,0-0.4,0c-11.4,0.5-21.7,8.8-28.4,15c-7.6,7-14.6,14.8-20.9,23.3
		l-31.4-65.7c-5.5-11.6-19.1-19.4-33.8-19.4c-3,0-5.9,0.3-8.7,1l-9.3,2.1c-1.2-2.2-2.2-4.1-3.1-5.5c-3.2-5.2-8.2-8.1-13.7-8.1
		c-6.3,0-12.2,3.7-14.7,9.2s-1.5,11.1-1.5,11.3l0.1,0.6L124.3,63c-1.1-2.7-2.2-5.1-3.3-6.8c-3.5-5.5-8.4-8.5-13.6-8.5
		s-10.6,3-13.9,7.9c-3.2,4.6-4,10.2-2.3,15l-20.5,4.7C59.5,78,50.5,84.4,45.8,92.9c-1.6,3-2.6,6.1-3,9.3c-0.8,1.1-1.5,2.2-2.2,3.4
		c-3.6,6.6-4.2,14.1-1.8,21L128,375.7c5.3,14.9,19.7,24.5,36.7,24.5c5.5,0,11-1,16.3-3.1l180.8-70.8c8.7-3.4,15.3-9.9,18.6-18.3
		c0.8-2.1,1.4-4.2,1.8-6.3c1.4-2,2.5-4.1,3.5-6.4C388.9,286.9,388.5,277.6,384.5,269.1z"/>
	<g>
		<path class="st0" d="M164.7,400.2c-17,0-31.3-9.6-36.7-24.5L38.8,126.6c-2.5-6.9-1.9-14.4,1.8-21c4.7-8.5,13.7-14.9,24.8-17.5
			l169-39c2.8-0.7,5.8-1,8.7-1c14.7,0,28.3,7.8,33.8,19.4l102.3,214.2c4.1,8.5,4.5,17.8,1.1,26.3c-3.3,8.4-9.9,14.9-18.6,18.3
			L181,397.1C175.8,399.2,170.3,400.2,164.7,400.2z"/>
		<path class="st1" d="M360.7,323.5l-180.8,70.8c-20.2,7.9-42.3-0.9-49-19.5L41.7,125.6c-5.3-14.8,5.8-30.2,24.4-34.5l169-39
			c15.6-3.6,33,3.9,39.1,16.7L376.5,283C384.1,298.9,377.2,317.1,360.7,323.5z"/>
		<path class="st0" d="M170,387.5c-17,0-31.3-9.6-36.7-24.5L44.1,113.9c-2.5-6.9-1.9-14.4,1.8-21c4.7-8.5,13.7-14.9,24.8-17.5
			l169-39c2.8-0.7,5.8-1,8.7-1c14.7,0,28.3,7.8,33.8,19.4L384.5,269c4.1,8.5,4.5,17.8,1.1,26.3c-3.3,8.4-9.9,14.9-18.6,18.3
			l-180.8,70.8C181,386.4,175.5,387.5,170,387.5z"/>
		<path class="st2" d="M365.9,310.8l-180.8,70.8c-20.2,7.9-42.3-0.9-49-19.5L46.9,112.9c-5.3-14.8,5.8-30.2,24.4-34.5l169-39
			c15.6-3.6,33,3.9,39.1,16.7l102.3,214.2C389.3,286.2,382.4,304.3,365.9,310.8z"/>
		<g class="st3">
			<path class="st4" d="M370.3,303.8l-180.8,70.8c-20.2,7.9-42.3-0.9-49-19.5L51.3,105.9c-2-5.5-1.7-11.2,0.5-16.3
				c-5.7,6.6-7.9,15-4.9,23.3L136.1,362c6.7,18.6,28.8,27.4,49,19.5l180.8-70.8c7.8-3,13.4-8.7,16.4-15.5
				C379.2,298.9,375.2,301.9,370.3,303.8z"/>
		</g>
		<path class="st5" d="M166.5,371.6c-5,0-11.6-2.2-13.8-8.4L66.4,122.5c-2.4-6.3,0.3-12.4,6.9-15.1l0.2-0.1l168-38.8
			c1-0.2,2.1-0.4,3.3-0.4c5.5,0,10.6,2.9,11.9,5.5L357.2,284c0.1,0.2,0.2,0.4,0.3,0.7c1.1,2.2,2.8,5.6,2.2,9.5
			c-0.9,5.6-6.5,7.8-8.6,8.6l-177.2,67.4C171.5,371.1,169,371.6,166.5,371.6z"/>
		<path class="st5" d="M173.9,357.6c-5,0-11.6-2.2-13.8-8.4L73.8,108.5c-2.4-6.3,0.3-12.4,6.9-15.1l0.2-0.1l168-38.8
			c1-0.2,2.1-0.4,3.3-0.4c5.5,0,10.6,2.9,11.9,5.5L364.6,270c0.1,0.2,0.2,0.4,0.3,0.7c1.1,2.2,2.8,5.6,2.2,9.5
			c-0.9,5.6-6.5,7.8-8.6,8.6l-177.2,67.4C178.9,357.1,176.3,357.6,173.9,357.6z"/>
		<path class="st5" d="M101.5,71.5C105.8,84,112,99.9,112,99.9l15.6-1.6c0,0-8.9-24.9-9.3-26.1c-0.2-0.5-1.3-2.3-2.6-4.1L101.5,71.5
			L101.5,71.5z"/>
		<polygon class="st5" points="219.4,78.5 232.6,68.7 231.9,49 224.9,43 207.5,47 		"/>
		<path class="st0" d="M170,365.9c-5,0-11.6-2.2-13.8-8.4L69.9,116.8c-2.4-6.3,0.3-12.4,6.9-15.1l0.2-0.1l168-38.8
			c1-0.2,2.1-0.4,3.3-0.4c5.5,0,10.6,2.9,11.9,5.5l100.4,210.3c0.1,0.2,0.2,0.4,0.3,0.7c1.1,2.2,2.8,5.6,2.2,9.5
			c-0.9,5.6-6.5,7.8-8.6,8.6l-177.2,67.4C175,365.4,172.5,365.9,170,365.9z"/>
		<path class="st6" d="M170,362.8c-4,0-9.3-1.7-10.9-6.3L72.8,115.8c-1.7-4.4-0.2-9,5.2-11.3l167.8-38.7c0.8-0.2,1.7-0.3,2.6-0.3
			c4.7,0,8.5,2.5,9.2,3.8L358,279.6c1,2,2.8,5.1,2.3,8.4c-0.6,4.1-5.4,5.7-7,6.3l-176.9,67.3C174.2,362.4,172.1,362.8,170,362.8z"/>
		<path class="st0" d="M172.7,359.7c-5,0-11.6-2.2-13.8-8.4L72.6,110.7c-2.4-6.3,0.3-12.4,6.9-15.1l0.2-0.1l168-38.8
			c1-0.2,2.1-0.4,3.3-0.4c5.5,0,10.6,2.9,11.9,5.5l100.4,210.3c0.1,0.2,0.2,0.4,0.3,0.7c1.1,2.2,2.8,5.6,2.2,9.5
			c-0.9,5.6-6.5,7.8-8.6,8.6L180,358.3C177.7,359.2,175.2,359.7,172.7,359.7z"/>
		<path class="st7" d="M172.7,356.7c-4,0-9.3-1.7-10.9-6.3L75.5,109.6c-1.7-4.4-0.2-9,5.2-11.3l167.8-38.7c0.8-0.2,1.7-0.3,2.6-0.3
			c4.7,0,8.5,2.5,9.2,3.8l100.4,210.3c1,2,2.8,5.1,2.3,8.4c-0.6,4.1-5.4,5.7-7,6.3l-177,67.4C176.9,356.3,174.8,356.7,172.7,356.7z"
			/>
		<path class="st5" d="M239.9,82l-71.1,17.9l-26.1,1.1l-16.3-10l-3.5-2.3l-14,3.2l0,0c0,0,3.9,13.1,6.6,18.7
			c2.7,5.7,11.3,12.3,27.2,8s77.8-20.6,87.1-23.7C239.2,91.7,239.9,82,239.9,82z"/>
		<path class="st0" d="M136,113.6c-9.7,0-16.2-4.2-19-12.2c-3.2-9.2-9-24.7-11.2-30.7l-13.5,2.9l-0.9-2.4
			c-1.9-4.9-1.1-10.6,2.1-15.4c3.3-4.9,8.7-7.9,13.9-7.9c5.3,0,10.1,3,13.6,8.5c2.1,3.3,4.2,9.1,6.4,15.2c2,5.5,4,11.1,6.2,15.3
			c2.9,5.8,4.5,5.8,4.5,5.8c8.1-1.1,61.2-14.7,77-19.3c1.5-0.4,2.4-1.2,3-2.6c2.3-5.4-1.9-17.5-5.7-25.2l-14.3,3l-0.6-3.1
			c0-0.2-1-5.8,1.5-11.3s8.4-9.2,14.7-9.2c5.6,0,10.6,3,13.7,8.1c5.1,8.3,18.3,35.1,12.6,48.9c-1.6,4-4.7,6.6-9,7.7
			c-15.5,3.8-70.2,18.4-81.6,21.8C144.5,112.8,140,113.6,136,113.6z"/>
		<path class="st8" d="M94.2,70l13.5-2.9c0,0,8.1,21.6,12.2,33.3s16.9,11.7,28.6,8.2c11.7-3.5,66.5-18.1,81.8-21.8
			c18-4.4,1.2-40.9-5.5-52c-6.4-10.5-19.3-7.3-23,0.8c-2.1,4.7-1.3,9.5-1.3,9.5l13.6-2.8c0,0,16,30,1.9,34.1
			c-16.5,4.8-69.2,18.2-77.4,19.3c-8.2,1.2-14.5-29.1-20.1-37.7C107.8,41.4,89.2,57.4,94.2,70z"/>
		<path class="st5" d="M237.2,80.5c0.8-2.7-1.1-5.9-2.9-3c-1.9,3.1-8.9,4.8-15.4,6.8c-6.6,2-45.9,12.3-60.2,15.9
			c-14.3,3.6-20.8,6.7-27.4,5.3c-6.6-1.5-8.2-7.4-12.3-19.5c-4.1-12.1-8.8-30.1-14-26.9c-6.6,4-11.1,1.2-4.9-5.8
			c-5.2,3.6-8.4,10.6-6,16.8l13.5-2.9c0,0,8.1,21.6,12.2,33.3s16.9,11.7,28.6,8.2s66.5-18.1,81.8-21.8
			C233.8,85.8,236.1,83.5,237.2,80.5z"/>
		<path class="st5" d="M211,36.1c-3.9,3.1-8.4,0.2-6.5-4.5c-1.2,1.1-2.2,2.4-2.9,3.9c-2.1,4.7-1.3,9.5-1.3,9.5l13.6-2.8
			c0,0,14.4,27,3.8,33.3c0,0,0,0,0.1,0c15.4-4.5,5.2-22.9,2.5-30.8C217.7,36.7,214.9,33,211,36.1z"/>
		<path class="st0" d="M107.7,67.1c-2.3-3.8-6.2-0.5-6.2,1.3L107.7,67.1z"/>
		<path class="st0" d="M214,42.2c0,0-3.8-5.3-7.6,1.7L214,42.2z"/>
		<g>
			<g>
				<path class="st9" d="M262.9,113.6l-129.2,33.6c-1.6,0.4-3.4-0.5-3.9-2c-0.6-1.5,0.3-3.1,1.9-3.5l128.9-33.1
					c1.4-0.4,3.1,0.5,3.8,1.8C264.9,111.8,264.3,113.2,262.9,113.6z"/>
			</g>
			<g>
				<path class="st9" d="M118.8,151.8c-1,0.3-2.1,0.1-3-0.3c-0.9-0.5-1.6-1.2-2-2.1c-0.3-0.9-0.3-1.9,0.2-2.7
					c0.1-0.2,0.2-0.4,0.4-0.6c0.1-0.2,0.3-0.3,0.5-0.5s0.4-0.3,0.6-0.4c1.1-0.5,2.5-0.5,3.6,0.1c0.9,0.5,1.6,1.2,2,2.1
					c0.3,0.9,0.3,1.9-0.2,2.7c-0.1,0.2-0.2,0.4-0.4,0.6c-0.1,0.2-0.3,0.3-0.5,0.5s-0.4,0.3-0.6,0.4
					C119.2,151.6,119,151.7,118.8,151.8z"/>
			</g>
			<g>
				<path class="st9" d="M280.5,150.5l-131.6,36.7c-1.6,0.5-3.4-0.5-4-2.1s0.2-3.2,1.9-3.7L278,145.2c1.4-0.4,3.2,0.5,3.9,1.9
					C282.5,148.6,281.9,150.1,280.5,150.5z"/>
			</g>
			<g>
				<path class="st9" d="M133.7,192.2c-1,0.3-2.1,0.2-3-0.3s-1.7-1.3-2-2.3s-0.3-2,0.2-2.9c0.1-0.2,0.2-0.4,0.4-0.6
					c0.1-0.2,0.3-0.4,0.5-0.5c0.2-0.2,0.4-0.3,0.6-0.4c1.1-0.6,2.5-0.5,3.7,0.1c0.9,0.5,1.7,1.3,2,2.3c0.4,1,0.3,2-0.2,2.9
					c-0.1,0.2-0.2,0.4-0.4,0.6c-0.1,0.2-0.3,0.4-0.5,0.5c-0.2,0.2-0.4,0.3-0.6,0.4C134.1,192.1,133.9,192.2,133.7,192.2z"/>
			</g>
			<g>
				<path class="st9" d="M298.9,189.3l-134,40.1c-1.7,0.5-3.5-0.5-4.2-2.1c-0.6-1.7,0.2-3.4,1.9-3.9l133.7-39.6c1.5-0.4,3.2,0.5,4,2
					C301,187.3,300.4,188.9,298.9,189.3z"/>
			</g>
			<g>
				<path class="st9" d="M149.4,234.9c-1,0.3-2.1,0.2-3.1-0.3s-1.7-1.4-2.1-2.4c-0.4-1-0.3-2.1,0.1-3c0.1-0.2,0.2-0.4,0.4-0.6
					c0.1-0.2,0.3-0.4,0.5-0.5c0.2-0.2,0.4-0.3,0.6-0.4c1.1-0.6,2.6-0.6,3.8,0c1,0.5,1.7,1.4,2.1,2.4c0.4,1,0.3,2.1-0.1,3
					c-0.1,0.2-0.2,0.4-0.4,0.6c-0.1,0.2-0.3,0.4-0.5,0.5c-0.2,0.2-0.4,0.3-0.6,0.4C149.9,234.8,149.6,234.9,149.4,234.9z"/>
			</g>
			<g>
				<path class="st9" d="M318.4,230.2l-136.6,43.9c-1.7,0.5-3.6-0.5-4.3-2.2c-0.7-1.8,0.2-3.6,1.9-4.2l136.2-43.3
					c1.5-0.5,3.3,0.4,4.1,2.1C320.4,228,319.9,229.7,318.4,230.2z"/>
			</g>
			<g>
				<path class="st9" d="M166,280.1c-1,0.3-2.2,0.2-3.2-0.3s-1.8-1.4-2.2-2.5s-0.4-2.3,0.1-3.2c0.1-0.2,0.2-0.5,0.4-0.7
					c0.1-0.2,0.3-0.4,0.5-0.6s0.4-0.3,0.6-0.5c1.2-0.7,2.7-0.6,3.9,0c1,0.5,1.8,1.4,2.2,2.5s0.4,2.2-0.1,3.2
					c-0.1,0.2-0.2,0.5-0.4,0.7c-0.1,0.2-0.3,0.4-0.5,0.6s-0.4,0.3-0.6,0.5C166.5,279.9,166.2,280,166,280.1z"/>
			</g>
		</g>
		<g>
			<path class="st0" d="M207.3,309.4c-2.6,0-4.8-1.1-6.3-3.1c-5.1-7.2-1.1-24.5,11.3-48.9c0.3-0.5,0.9-0.7,1.4-0.5
				c0.5,0.3,0.7,0.9,0.5,1.4c-16.8,33.1-13.6,43.7-11.5,46.7c1.3,1.8,3.2,2.5,5.7,2.2c7.1-0.9,17.6-10.5,22.9-24.8
				c0.2-0.6,0.4-1.1,0.6-1.6c-0.9-3.3-1.1-7.3,0-11.3c0.7-2.8,2.7-9.2,4.9-9.7c0.5-0.1,1.1,0,1.4,0.5c2.1,2.3-1.9,14.5-4,20.7
				c0.7,2.3,1.9,4.2,3.2,5.4c1,1,2.7,2,4.5,1.3c3.1-1.1,5.6-6.2,6.8-14c0.5-3.1,2.3-13.2,5.3-14.4c0.6-0.2,1.2-0.1,1.6,0.2
				c1.1,0.9,1.3,3.4,0.6,7.5c-1,4.9-0.2,7.3,1,8c0.9,0.5,2.2,0.1,3.4-1c1.6-1.5,3.3-4.7,3-9.5c-0.8,0.8-1.6,1.5-2.6,2
				c-1.7,0.9-2.8,0.2-3.3-0.7c-1.5-2.5,0.8-10.2,2.9-11.6c0.9-0.5,1.9-0.3,2.5,0.6l0.1,0.1c0.7,1.4,1.2,2.8,1.6,4.1
				c0.4-0.8,0.8-1.6,1.3-2.4c1.4-2.6,2.9-5.6,5.1-8.4c2.1-2.6,3.7-2.9,4.7-2.7s1.8,0.9,2.2,2c0.9,2.3,0.2,6.8-3.3,11
				c-2.2,2.6-2.4,4.9-1.8,6.2c0.3,0.7,0.9,1.2,1.6,1.2c1.3,0.1,2.9-1.2,4.1-3.4c4.1-7.1,11.6-23.8,11.6-24c0.2-0.5,0.9-0.8,1.4-0.5
				c0.5,0.2,0.8,0.9,0.5,1.4c-0.1,0.2-7.6,17-11.7,24.2c-1.7,3-3.9,4.6-6.1,4.5c-1.5-0.1-2.8-1-3.4-2.5c-1-2.4-0.2-5.6,2.2-8.4
				c2.8-3.4,3.6-7.1,3-8.9c-0.1-0.3-0.3-0.6-0.6-0.7c-0.5-0.1-1.4,0.4-2.7,2c-2.1,2.6-3.5,5.4-4.9,8c-0.8,1.6-1.6,3.1-2.5,4.5
				c1.1,6-0.6,10.9-3.3,13.5c-1.9,1.8-4.2,2.3-5.9,1.3c-2.4-1.4-3.2-5.1-2.1-10.3c0.4-2.7,0.4-4.2,0.3-4.9
				c-0.8,1.1-2.3,4.5-3.6,12.3c-1.8,11.3-5.4,14.8-8.2,15.7c-2.2,0.8-4.6,0.1-6.7-1.8c-1.1-1-2.1-2.4-2.8-4
				c-5.8,15.3-16.8,24.5-24.4,25.5C208.2,309.3,207.8,309.4,207.3,309.4z M236.7,262.6c-0.7,1.2-1.7,3.5-2.7,7.3
				c-0.6,2.3-0.8,4.6-0.6,6.7C235.9,268.8,236.6,264.5,236.7,262.6z M261.4,256.4c-0.6,0.8-1.6,3.2-2,5.8c-0.2,1.8,0,2.5,0.1,2.7
				c0,0,0.1,0,0.4-0.2c1.3-0.7,2.3-1.7,3.2-3C262.8,259.9,262.2,258.2,261.4,256.4z"/>
		</g>
		<path class="st0" d="M371.2,83.9l0.1,0.1c0.3,0.1,0.6,0.3,0.9,0.5c0.2,0.1,0.3,0.1,0.3,0.2c0.4,0.2,0.7,0.5,1.1,0.7l0.2,0.1
			c0.3,0.3,0.7,0.6,1.1,0.9c0.1,0.1,0.2,0.2,0.2,0.2c0.3,0.3,0.5,0.5,0.8,0.8c0.1,0.1,0.2,0.2,0.3,0.3c0.3,0.3,0.4,0.6,0.6,0.9
			c0.1,0.1,0.2,0.3,0.3,0.5c0.2,0.3,0.3,0.6,0.4,0.9c0.1,0.2,0.2,0.4,0.2,0.5c0.1,0.3,0.3,0.7,0.4,1c0.1,0.2,0.1,0.3,0.1,0.5
			c0.1,0.6,0.2,1.1,0.3,1.6c0.7,5.4-1.7,9.9-2.5,11.2c-0.1,0.1-5.8,9.7-27.4,52.6l-2.2,4.6l-1.4,3l-6.3,13.6c-0.7,1.4-1.3,2.8-2,4.2
			l-1.9,3.9l-1.3,2.6l-1.2,2.3l-0.8,1.5l-0.8,1.5l-0.9,1.6l-0.7,1.3l-0.9,1.5l-0.3,0.6l-0.8,1.2l-0.8,1.2l-0.2,0.4
			c-0.3,0.4-0.6,0.9-0.9,1.3l-0.3,0.5c-0.2,0.3-0.4,0.5-0.6,0.8l-0.1,0.1l-0.5,0.5c-0.2,0.2-0.3,0.4-0.4,0.5
			c-0.3,0.3-0.5,0.6-0.8,0.9l-0.9,0.9l-0.2,0.2c-0.1,0.1-0.3,0.3-0.5,0.4l-0.3,0.3c1.6-0.6,3.1-1.3,4.6-2.1l6.9-3.7l-2.6,7.4
			c-1.3,3.7-4.3,6.7-8.8,8.7c0.6-0.1,1.2-0.1,1.8-0.2l4.7-0.6l-1.5,4.6c-1.2,3.8-5.7,4.7-10.1,4.9l5.3,2l-8.3,2.7
			c-1,0.3-2,0.5-3,0.5c-0.9,0-1.8-0.1-2.6-0.3l0,0l-6.4,0.1c-1.2,0-2.1-0.2-2.9-0.6c-0.7,2.3-1.3,4.6-2,6.9l-0.1,0.5L278.5,266
			l4.7-18c1.4-5.3,2.9-10.7,4.5-16c-0.8,0.3-1.6,0.4-2.4,0.4c-0.9,0-1.9-0.2-3-0.5l-8-2.5l7.7-3.2c0.5-0.2,1-0.4,1.5-0.7
			c-1.7-0.4-3.3-1.3-5.5-2.6l-6.9-7.3l9,1.7c0.4,0.1,0.8,0.1,1.2,0.2c-4.4-3.7-4.9-7.6-4.3-12.4l1.7-9.3c0.2-1.6,0.7-3.1,1.2-4.4
			l1-2.9l0.4-1.2L285,176l0.1,1.7c0.5-1.9,1.1-3.8,1.6-5.5c9.1-28.4,26.1-55,47.8-75c6.7-6.2,17-14.5,28.4-15c0.1,0,0.3,0,0.4,0
			c0,0,2.2,0.1,4.7,0.7C369.8,83.5,371.2,83.9,371.2,83.9z"/>
		<path class="st0" d="M375.6,94c-0.1-0.4-0.1-0.8-0.2-1.2c0-0.1-0.1-0.2-0.1-0.4c-0.1-0.3-0.2-0.5-0.3-0.7
			c-0.1-0.1-0.1-0.3-0.2-0.4c-0.1-0.2-0.2-0.4-0.3-0.6c-0.1-0.1-0.1-0.2-0.2-0.4c-0.1-0.2-0.3-0.4-0.4-0.6c-0.1-0.1-0.2-0.2-0.2-0.3
			c-0.2-0.2-0.4-0.4-0.6-0.6c-0.1-0.1-0.1-0.1-0.2-0.2c-0.3-0.3-0.6-0.5-0.9-0.7c0,0,0,0-0.1,0c-0.3-0.2-0.6-0.4-0.9-0.6
			c-0.1-0.1-0.2-0.1-0.3-0.2c-0.2-0.1-0.5-0.3-0.7-0.4c0,0-0.1,0-0.1-0.1l0,0c-2.1-1-4.5-1.4-6.9-1.3c-9.7,0.4-18.8,7-26.5,14.2
			c-21.4,19.7-38,45.7-46.9,73.7c-1.6,5.1-3,10.3-3.4,15.5s-0.1,9.3,0.7,12.6l0,0c0.1,0.3,0.1,0.5,0.2,0.7c0.1,0.5,0.3,0.9,0.4,1.3
			c0.1,0.3,0.2,0.6,0.3,0.9c0.1,0.3,0.2,0.5,0.3,0.7c0.1,0.2,0.2,0.4,0.3,0.6c0.1,0.2,0.2,0.5,0.4,0.7c0.1,0.2,0.2,0.4,0.3,0.6
			c0.1,0.2,0.3,0.4,0.4,0.6c0.1,0.2,0.2,0.3,0.3,0.5c0.1,0.2,0.3,0.4,0.4,0.6c0.1,0.1,0.2,0.3,0.4,0.4c0.4,0.4,0.7,0.8,1.1,1.1
			l0.1,0.1c0.2,0.1,0.4,0.3,0.5,0.4c0.1,0.1,0.2,0.2,0.4,0.3c0.2,0.1,0.4,0.2,0.5,0.4c0.1,0.1,0.3,0.2,0.4,0.2s0.1,0.1,0.2,0.1
			c-2.3-1.1-4.5-2.7-6.5-5.2c-4-5-4.7-11-4.8-14c-1.7,4.9-2,9.8,2,16.1c3.2,5.1,9,6.3,10.9,7c-1.8,0-5.1-0.2-8.5-2.2
			c-4.2-2.4-6.3-6-7.1-7.7c-0.7,4.9,0.1,7.6,4.5,10.7c3.9,2.8,9.6,1.2,11.1,1.1c-1.5,0.9-3.6,1.9-6.1,2.6c-4.3,1.2-7.8,0.8-9.9,0.5
			c4.2,2.5,5.2,2.7,9.1,2.4c2.2-0.2,4.2-2,5.8-2.5c-1.1,1.4-2.7,3.1-4.8,4.8c-2.5,2-4.8,3.2-6.5,3.9c3,0.9,4,0.1,7.3-1.9
			c1.1-0.7,1.9-1.4,2.7-2.1c-2.9,8.9-5.1,16.9-6.9,23.8c2.3-3.6,4.7-7.2,7-10.8c1.2-4.2,2.4-8.4,3.8-12.8c0.1,0.2,0.2,0.3,0.2,0.5
			c1.3,2.3,1,3.9,3.9,3.8c-0.7-0.9-1.7-2.4-2.1-4.7c-0.2-1-0.2-1.9-0.2-2.7c1.1,1.4,2.9,4.3,4.9,5.4c2,1,4.8,3,8.2,1.9
			c-2.1-0.8-4.9-2.1-7.6-4.4c-1.6-1.3-3.4-2.8-4.4-4c2.2,1.2,6.6,3.8,12.3,3.7c4.6-0.1,10.1-0.2,10.9-2.9c-3.1,0.4-7,0.6-11.4,0.2
			c-4.8-0.5-8.7-1.6-11.7-2.8c3.1,0.1,6.5,0.2,12.7-0.9c6.4-1.1,12.4-3.8,14.2-9c-4.1,2.2-12.3,5.8-22.1,4.9
			c-1.2-0.1-2.6-0.3-4.2-0.5c0-0.1,0.1-0.2,0.1-0.3l0,0c0.2,0,0.4,0,0.5,0s0.2,0,0.2,0c0.4,0,0.7,0,1.1,0c0.1,0,0.2,0,0.4,0
			c0.2,0,0.3,0,0.4,0s0.2,0,0.4,0c0.1,0,0.3,0,0.4,0s0.2,0,0.3,0c0.1,0,0.3,0,0.4-0.1c0.1,0,0.2,0,0.3-0.1c0.1,0,0.2,0,0.3-0.1
			c0.1,0,0.3-0.1,0.4-0.1s0.3-0.1,0.4-0.1s0.2,0,0.3-0.1c0.1,0,0.1,0,0.2-0.1c0.1,0,0.1,0,0.2-0.1c0.1,0,0.1,0,0.2,0s0.1,0,0.2-0.1
			h0.1c0.1,0,0.1,0,0.1,0s0,0,0.1,0h0.1c0,0,0,0,0.1,0l0,0c0.1,0,0.1,0,0.3-0.1h0.1c0.1,0,0.2-0.1,0.4-0.1c0.1,0,0.1,0,0.2,0
			s0.3-0.1,0.5-0.2h0.1l0,0h0.1c0.1,0,0.2-0.1,0.2-0.1h0.1l0,0c0.1,0,0.2-0.1,0.3-0.1c0.1,0,0.1,0,0.2-0.1l0,0l0,0
			c0.2-0.1,0.4-0.1,0.5-0.2h0.1l0,0c0.4-0.2,0.8-0.3,1.2-0.5l0,0c0.1,0,0.1,0,0.2-0.1c0.2-0.1,0.4-0.2,0.5-0.3c0,0,0.1,0,0.1-0.1
			l0,0c0.1,0,0.1-0.1,0.2-0.1c0.2-0.1,0.3-0.2,0.5-0.3c0.1,0,0.1-0.1,0.2-0.1s0.1-0.1,0.2-0.1c0.1-0.1,0.2-0.1,0.3-0.2
			c0,0,0.1,0,0.1-0.1c0.1,0,0.1-0.1,0.2-0.1c0.2-0.1,0.4-0.3,0.6-0.4c0,0,0.1,0,0.1-0.1l0,0c0,0,0.1,0,0.1-0.1
			c0.2-0.1,0.4-0.3,0.6-0.4c0.1,0,0.1-0.1,0.2-0.2c0,0,0.1,0,0.1-0.1c0.1-0.1,0.2-0.1,0.3-0.2c0.1-0.1,0.2-0.1,0.3-0.2l0.1-0.1
			c0.2-0.1,0.3-0.2,0.5-0.4c0.1-0.1,0.2-0.1,0.2-0.2l0,0c0.1-0.1,0.1-0.1,0.2-0.2c0.2-0.2,0.4-0.3,0.6-0.5c0.1-0.1,0.1-0.1,0.2-0.2
			l0,0c0.1-0.1,0.1-0.1,0.2-0.2c0.2-0.2,0.3-0.3,0.5-0.5c0.1,0,0.1-0.1,0.2-0.1c0.1-0.1,0.1-0.1,0.2-0.2c0.1-0.1,0.2-0.2,0.3-0.3
			l0.1-0.1c0.1-0.1,0.1-0.1,0.2-0.2c0.3-0.3,0.5-0.5,0.8-0.8c0.1-0.1,0.2-0.3,0.3-0.4c0,0,0,0,0-0.1c0.1-0.1,0.2-0.2,0.2-0.3
			c0,0,0,0,0.1-0.1l0,0l0,0c0-0.1,0.1-0.1,0.1-0.2c0.2-0.2,0.4-0.5,0.5-0.7l0,0l0,0c0.1-0.1,0.2-0.3,0.3-0.4
			c0.3-0.4,0.5-0.8,0.8-1.2c0.1-0.1,0.2-0.2,0.2-0.3c0.1-0.2,0.3-0.4,0.4-0.6c0.1-0.2,0.2-0.3,0.3-0.5c0.1-0.2,0.3-0.4,0.4-0.7
			c0.1-0.2,0.2-0.4,0.3-0.5c0.1-0.2,0.3-0.5,0.4-0.7s0.2-0.4,0.3-0.6c0.1-0.2,0.3-0.5,0.4-0.7s0.2-0.4,0.3-0.6
			c0.1-0.2,0.3-0.5,0.4-0.8c0.1-0.2,0.2-0.4,0.4-0.6c0.1-0.3,0.3-0.5,0.4-0.8c0.1-0.2,0.2-0.4,0.4-0.7c0.1-0.3,0.3-0.5,0.4-0.8
			c0.1-0.2,0.2-0.4,0.4-0.7c0.1-0.3,0.3-0.6,0.4-0.8s0.2-0.5,0.4-0.7c0.1-0.3,0.3-0.6,0.4-0.9c0.1-0.2,0.2-0.5,0.4-0.7
			c0.1-0.3,0.3-0.6,0.4-0.9c0.1-0.2,0.2-0.5,0.3-0.7c0.2-0.3,0.3-0.6,0.5-0.9c0.1-0.2,0.2-0.4,0.3-0.7c0.2-0.3,0.3-0.7,0.5-1
			c0.1-0.2,0.2-0.4,0.3-0.6c0.2-0.3,0.3-0.7,0.5-1c0.1-0.2,0.2-0.4,0.3-0.5c0.7-1.4,1.3-2.8,2-4.2c0-0.1,0.1-0.2,0.1-0.3
			c0.2-0.4,0.4-0.8,0.6-1.3c0.1-0.2,0.1-0.3,0.2-0.5c0.2-0.4,0.4-0.9,0.6-1.3c0-0.1,0.1-0.2,0.1-0.3c0.2-0.5,0.4-0.9,0.6-1.4
			c0-0.1,0.1-0.2,0.1-0.3c0.6-1.2,1.1-2.4,1.6-3.5c0.1-0.1,0.1-0.3,0.2-0.4c0.2-0.4,0.4-0.8,0.5-1.1c0.1-0.2,0.2-0.4,0.3-0.6
			c0.2-0.3,0.3-0.6,0.4-1c0.1-0.2,0.2-0.4,0.3-0.7c0.1-0.3,0.3-0.6,0.4-0.9c0.1-0.2,0.2-0.4,0.3-0.7c0.1-0.3,0.3-0.6,0.4-0.9
			c0.1-0.2,0.2-0.4,0.3-0.6c0.1-0.3,0.3-0.6,0.4-0.9c0.1-0.2,0.2-0.4,0.3-0.6c0.1-0.3,0.3-0.6,0.4-0.9c0.1-0.2,0.2-0.4,0.3-0.6
			c0.1-0.3,0.3-0.5,0.4-0.8c0.1-0.2,0.2-0.4,0.3-0.5c0.2-0.4,0.4-0.9,0.6-1.3c22-43.7,27.5-52.8,27.5-52.8
			C374.4,101.7,376.1,98,375.6,94z"/>
		<g>
			<path class="st10" d="M282.6,192.3c-1.7,4.9-2,9.8,2,16.1c3.2,5.1,9,6.3,10.9,7c-1.8,0-5.1-0.2-8.5-2.2c-4.2-2.4-6.3-6-7.1-7.7
				c-0.7,4.9,0.1,7.6,4.5,10.7c3.9,2.8,9.6,1.2,11.1,1.1c-1.5,0.9-3.6,1.9-6.1,2.6c-4.3,1.2-7.8,0.8-9.9,0.5
				c4.2,2.5,5.2,2.7,9.1,2.4c2.2-0.2,4.2-2,5.8-2.5c-1.1,1.4-2.7,3.1-4.8,4.8c-2.5,2-4.8,3.2-6.5,3.9c3,0.9,4,0.1,7.3-1.9
				c3.2-2,4.8-4.8,5.4-5.8c0.1,1,0.4,2.7,1.4,4.4c1.3,2.3,1,3.9,3.9,3.8c-0.7-0.9-1.7-2.4-2.1-4.7c-0.2-1-0.2-1.9-0.2-2.7
				c1.1,1.4,2.9,4.3,4.9,5.4c2,1,4.8,3,8.2,1.9c-2.1-0.8-4.9-2.1-7.6-4.4c-1.6-1.3-3.4-2.8-4.4-4c2.2,1.2,6.6,3.8,12.3,3.7
				c4.6-0.1,10.1-0.2,10.9-2.9c-3.1,0.4-7,0.6-11.4,0.2c-4.8-0.5-8.7-1.6-11.7-2.8c3.1,0.1,6.5,0.2,12.7-0.9
				c6.4-1.1,12.4-3.8,14.2-9c-4.1,2.2-12.3,5.8-22.1,4.9c-4.7-0.4-12.2-1.2-17.5-7.8C283.4,201.3,282.7,195.4,282.6,192.3z"/>
			<path class="st10" d="M286.2,188.7c0.4-5.2,1.8-10.4,3.4-15.5c9-28,25.5-54,46.9-73.7c7.7-7.1,16.8-13.8,26.5-14.2
				c5.7-0.2,11.8,2.7,12.6,8.6c0.5,4-1.1,7.7-2.1,9.3c0,0-5.5,9.1-27.5,52.8c-6.9,13.7-17.7,40.1-24.7,47.9
				c-6.3,7-13.7,8.5-13.7,8.5C307.6,212.4,283.8,220.5,286.2,188.7z"/>
			<path class="st5" d="M322,203.1L322,203.1c0.2-0.3,0.5-0.6,0.7-0.9l0,0l0,0c7-9.5,16.9-33.4,23.3-46.1
				c22-43.7,27.5-52.8,27.5-52.8c0.9-1.6,2.6-5.3,2.1-9.3c-0.4-3.5-2.7-5.9-5.7-7.3c0.9,1.6,1.4,3.4,1.5,5.2
				c0.1,5.2-2.8,10-5.5,14.5c-15.8,26.4-29.9,53.8-41.9,82.1c-4,3.1-8.7,5.1-13.7,5.7c-1.5,0.2-3.9-0.2-4.6,0.9
				c-0.3,0.4-0.1,0.8-0.3,1.7c-0.2,0.9-0.6,1.5-0.8,2c6.2-0.9,10.7-2.9,13.2-4.3c2.8-1.5,4.5-2.9,5.3-3.7c-0.7,1.7-1.5,3.5-2.2,5.3
				c-1.4,1.6-5,5.3-11,6.6c-3.1,0.7-5.8,0.5-7.6,0.2c-0.5,1.5-1,3-1.5,4.5c3.1-0.2,7.3-0.8,12-2.9c2.3-1,4.2-2.2,5.8-3.3
				c-0.1,0.3-0.2,0.5-0.4,0.8c-3.3,3.2-7.6,5.5-12,7c-1.2,0.4-2.4,0.7-3.6,0.8c-2.1,0.2-4.3-0.3-6.2-1.1c-3.8-1.5-7.2-4.2-9.5-7.6
				c4,16.9,20.7,11.2,20.7,11.2s0.6-0.1,1.7-0.5l0,0l0,0c0.2-0.1,0.3-0.1,0.5-0.2l0,0c0.2-0.1,0.4-0.1,0.5-0.2l0,0
				c0.2-0.1,0.4-0.1,0.5-0.2h0.1c0.4-0.2,0.8-0.3,1.2-0.6c0.1,0,0.1,0,0.2-0.1c0.2-0.1,0.4-0.2,0.5-0.3c0,0,0.1,0,0.1-0.1
				c0.2-0.1,0.4-0.2,0.7-0.4c0.1,0,0.1-0.1,0.2-0.1c0.2-0.1,0.4-0.2,0.6-0.3c0.1,0,0.1-0.1,0.2-0.1c0.2-0.1,0.5-0.3,0.7-0.4
				c0,0,0.1,0,0.1-0.1c0.2-0.1,0.4-0.3,0.6-0.4c0.1,0,0.1-0.1,0.2-0.2c0.2-0.1,0.4-0.3,0.6-0.5l0.1-0.1c0.2-0.2,0.5-0.4,0.7-0.6
				c0.1-0.1,0.1-0.1,0.2-0.2c0.2-0.2,0.4-0.3,0.6-0.5c0.1-0.1,0.1-0.1,0.2-0.2c0.3-0.2,0.5-0.4,0.8-0.7c0.1,0,0.1-0.1,0.2-0.1
				c0.2-0.2,0.4-0.4,0.6-0.6c0.1-0.1,0.1-0.1,0.2-0.2c0.3-0.3,0.5-0.5,0.8-0.8c0.1-0.1,0.2-0.3,0.3-0.4c0,0,0,0,0-0.1
				C321.8,203.4,321.9,203.2,322,203.1z"/>
			<path class="st5" d="M311.4,179c0.2,0,0.3,0,0.5,0c0.4-1,0.9-1.9,1.3-2.8c-1-1.3-2-2.8-2.9-4.5c-1.8-3.4-2.8-6.6-3.4-9.1
				c0.2,2.7,0.7,5.9,1.8,9.6C309.5,174.7,310.5,177,311.4,179z"/>
			<path class="st5" d="M310.6,182.2c-0.1,0-0.1-0.1-0.2-0.1c0,0.1-0.1,0.2-0.1,0.3c-2-2.3-5.1-6.5-7-12.5
				c-1.5-4.9-1.7-9.1-1.5-11.9c-0.7,3.4-1.5,10.4,1.4,18.3c1.6,4.2,3.7,7.3,5.5,9.4c0.1,0.1,0.2,0.2,0.2,0.4c0.4-1,0.8-2,1.3-2.9
				C310.3,182.8,310.4,182.5,310.6,182.2z"/>
			<path class="st5" d="M302,201.4c-0.1-0.2-0.2-0.4-0.2-0.5c-2.1-1.5-5.5-4.2-8.2-8.8c-3.2-5.4-3.8-10.6-3.9-13.2
				c-0.1,2.6,0.1,5.7,1,9.3c2.1,8.8,7.2,14.6,10.1,17.4c0.5-1.2,1.1-2.5,1.6-3.7C302.2,201.8,302.1,201.6,302,201.4z"/>
			<path class="st5" d="M322.2,160.4c-0.1-0.1-0.2-0.2-0.3-0.3c0.4-1,0.7-2,1-3c1.6-0.2,3.3-0.6,5.2-1.2c3.7-1.2,6.6-2.8,8.7-4.3
				c-2,1.8-4.6,3.8-7.9,5.7C326.5,158.7,324.2,159.7,322.2,160.4z"/>
			<path class="st0" d="M359.3,94.6c-1.6,0-1.8,0-7.1,7c-2.5,3.3-6.5,8.9-11.5,16.5c-8.4,12.8-20.7,33.3-32.3,58.7
				c-10.5,22.9-19,46.9-25.3,71.2l-4.7,18l17.4-26.7l0.1-0.5c5.9-21.3,13.5-42.4,22.4-62.6c11.4-25.7,25.4-50.7,41.6-74.3
				c2.3-3.3,2.5-3.6,2.2-5C362.2,97,361.4,94.6,359.3,94.6z"/>
			<path class="st11" d="M293.1,238c-2.3,3.6-4.7,7.2-7,10.8c4.5-17.5,12.2-42.4,25.1-70.7c22.1-48.3,47.7-80.6,48.1-80.4
				c0.3,0.2-22.8,30.4-43.6,77.4C305.6,197.7,298.4,219,293.1,238z"/>
		</g>
	</g>
</g>
</svg>
