<?xml version="1.0" ?><!DOCTYPE svg  PUBLIC '-//W3C//DTD SVG 1.1//EN'  'http://www.w3.org/Graphics/SVG/1.1/DTD/svg11.dtd'><svg style="enable-background:new 0 0 499.992 500.004;" version="1.1" viewBox="0 0 499.992 500.004" xml:space="preserve" xmlns="http://www.w3.org/2000/svg" xmlns:xlink="http://www.w3.org/1999/xlink"><g id="graphs"><g><path d="M249.998,0c138.063,0,249.994,111.931,249.994,250.007c0,138.067-111.931,249.998-249.994,249.998    S0,388.074,0,250.007C0,111.931,111.935,0,249.998,0z" style="fill:#FF9554;"/><g id="_x31_7"><g><path d="M364.193,370.339c8.047,0,14.581-6.521,14.581-14.573v-8.854c0-7.009-4.949-12.846-11.53-14.256      c-0.838,4.188-3.291,7.855-6.598,10.47c-4.128,3.273-9.59,5.162-15.543,5.171h-11.115c-5.953-0.008-11.419-1.897-15.538-5.171      c-3.402-2.693-5.893-6.47-6.666-10.795h-4.876c-0.769,4.325-3.265,8.111-6.658,10.795c-4.128,3.265-9.594,5.171-15.542,5.171      h-11.116c-5.953,0-11.418-1.906-15.542-5.171c-3.393-2.684-5.893-6.47-6.658-10.795h-4.88      c-0.774,4.325-3.265,8.102-6.663,10.795c-4.124,3.273-9.585,5.162-15.538,5.171h-11.115c-5.953-0.008-11.419-1.897-15.543-5.171      c-3.398-2.693-5.889-6.47-6.662-10.795h-2.795c-0.774,4.325-3.265,8.102-6.663,10.795c-4.124,3.265-9.59,5.171-15.538,5.171      h-11.115c-5.957,0-11.419-1.906-15.538-5.171c-3.312-2.624-5.765-6.282-6.603-10.47c-6.585,1.41-11.526,7.248-11.526,14.256      v8.854c0,8.051,6.526,14.573,14.577,14.573" style="fill:#FFFFFF;"/><path d="M333.989,344.134c-10.111,0-18.308-6.521-18.308-14.581V180.298      c0-8.051,8.196-14.581,18.308-14.581h11.115c10.116,0,18.308,6.529,18.308,14.581v149.255c0,8.06-8.192,14.581-18.308,14.581      H333.989z" style="fill:#59616A;"/><path d="M273.596,344.134c-10.115,0-18.312-6.521-18.312-14.581v-94.068      c0-8.043,8.197-14.573,18.312-14.573h11.111c10.111,0,18.308,6.53,18.308,14.573v94.068c0,8.06-8.197,14.581-18.308,14.581      H273.596z" style="fill:#5FD4AF;"/><path d="M213.195,344.134c-10.111,0-18.312-6.521-18.312-14.581V213.101      c0-8.06,8.201-14.581,18.312-14.581h11.115c10.111,0,18.308,6.521,18.308,14.581v116.452c0,8.06-8.196,14.581-18.308,14.581      H213.195z" style="fill:#A8B6C0;"/><path d="M154.879,344.134c-10.111,0-18.303-6.521-18.303-14.581v-75.666      c0-8.051,8.192-14.581,18.303-14.581h11.115c10.111,0,18.312,6.53,18.312,14.581v75.666c0,8.06-8.201,14.581-18.312,14.581      H154.879z" style="fill:#FFFFFF;"/></g><g><polygon points="215.964,180.204 146.426,230.451 143.785,226.579 213.323,176.34     " style="fill:#FFFFFF;"/><polygon points="337.634,142.4 281.754,202.255 278.323,199.058 334.202,139.212     " style="fill:#FFFFFF;"/><polygon points="282.647,204.896 210.293,180.631 211.956,176.255 284.314,200.52     " style="fill:#FFFFFF;"/><path d="M151.699,227.93c0,3.068-2.491,5.555-5.555,5.555c-3.068,0-5.555-2.487-5.555-5.555      c0-3.068,2.487-5.547,5.555-5.547C149.208,222.383,151.699,224.861,151.699,227.93z" style="fill:#59616A;"/><path d="M218.366,179.605c0,3.06-2.491,5.547-5.555,5.547c-3.068,0-5.555-2.487-5.555-5.547      c0-3.068,2.487-5.555,5.555-5.555C215.874,174.05,218.366,176.537,218.366,179.605z" style="fill:#59616A;"/><circle cx="279.196" cy="200.69" r="5.553" style="fill:#59616A;"/><polygon points="344.681,152.708 346.839,129.657 323.916,132.914     " style="fill:#FFFFFF;"/></g></g></g></g><g id="Layer_1"/></svg>