<?xml version="1.0" standalone="no"?>
<!DOCTYPE svg PUBLIC "-//W3C//DTD SVG 20010904//EN"
 "http://www.w3.org/TR/2001/REC-SVG-20010904/DTD/svg10.dtd">
<svg version="1.0" xmlns="http://www.w3.org/2000/svg"
 width="834.000000pt" height="720.000000pt" viewBox="0 0 834.000000 720.000000"
 preserveAspectRatio="xMidYMid meet">

<g transform="translate(0.000000,720.000000) scale(0.100000,-0.100000)"
fill="#000000" stroke="none">
<path d="M30 5068 c0 -12 18 -140 40 -283 22 -143 65 -424 95 -625 30 -201 62
-409 70 -462 24 -154 42 -278 75 -493 30 -204 38 -257 64 -425 9 -52 29 -189
46 -305 17 -115 36 -238 42 -272 l10 -63 487 0 486 0 248 493 c136 270 330
654 430 852 335 660 807 1596 807 1600 0 8 -1719 5 -1724 -3 -2 -4 18 -149 44
-322 27 -173 50 -318 50 -322 0 -4 121 -9 269 -10 l269 -3 -359 -723 -359
-723 -42 3 -42 3 -62 435 c-34 239 -90 626 -124 860 -34 234 -68 472 -76 530
-8 58 -20 143 -27 190 l-12 85 -353 3 -352 2 0 -22z"/>
<path d="M3147 5081 c-18 -7 -73 -112 -714 -1381 -154 -305 -394 -779 -533
-1053 -139 -274 -250 -501 -247 -504 3 -3 391 -6 861 -7 850 -1 856 -1 856 19
0 11 -6 56 -14 100 -7 44 -28 182 -47 307 l-34 228 -267 0 c-148 0 -268 3
-268 8 0 4 160 330 357 725 l357 717 43 0 c24 0 43 -4 43 -8 0 -8 257 -1796
284 -1981 9 -57 18 -107 21 -109 3 -3 494 -5 1093 -4 598 1 1094 2 1103 2 11
0 18 12 23 38 38 236 96 596 96 603 0 5 -216 9 -496 9 l-496 0 6 28 c4 15 35
212 71 437 35 226 98 626 140 890 138 864 146 918 141 932 -4 10 -71 13 -331
13 l-325 0 -10 -22 c-5 -13 -16 -68 -24 -123 -9 -55 -29 -185 -46 -290 -17
-104 -37 -230 -45 -280 -8 -49 -23 -146 -34 -215 -11 -69 -41 -255 -66 -415
-26 -159 -67 -416 -91 -570 -56 -346 -74 -464 -75 -484 -2 -46 -21 41 -43 194
-22 151 -54 366 -101 670 -8 55 -24 159 -35 230 -49 328 -63 417 -100 660 -22
143 -52 343 -67 445 -15 102 -32 188 -37 192 -14 10 -925 9 -949 -1z"/>
<path d="M5707 5083 c-3 -5 -7 -26 -11 -48 -3 -22 -26 -165 -51 -318 -25 -152
-45 -279 -45 -282 0 -3 223 -5 495 -5 l496 0 -5 -32 c-3 -18 -17 -105 -31
-193 -14 -88 -34 -214 -45 -280 -11 -66 -42 -266 -70 -445 -28 -179 -65 -408
-81 -510 -35 -216 -49 -305 -84 -530 -14 -91 -30 -189 -35 -219 -6 -30 -10
-60 -10 -68 0 -11 62 -13 334 -13 310 0 335 1 340 18 3 9 12 62 21 117 8 55
44 285 80 510 206 1292 229 1434 246 1557 l13 88 465 2 466 3 52 315 c29 173
52 321 53 328 0 9 -265 12 -1294 12 -712 0 -1297 -3 -1299 -7z"/>
</g>
</svg>
