<?xml version="1.0" encoding="UTF-8"?>
<svg id="Calque_1" xmlns="http://www.w3.org/2000/svg" version="1.1" viewBox="0 0 1920 1080">
  <!-- Generator: Adobe Illustrator 29.2.1, SVG Export Plug-In . SVG Version: 2.1.0 Build 116)  -->
  <defs>
    <style>
      .st0 {
        fill: #fff;
      }
    </style>
  </defs>
  <polygon class="st0" points="748.3 317.2 641.9 317.2 496.7 317.2 511.7 415.1 593.1 415.1 484.6 633 472 633 426.5 317.2 320.4 317.2 387.3 759.4 532.6 759.4 756.2 317.2 748.3 317.2"/>
  <polygon class="st0" points="1172.5 317.1 1156.6 415 1305.3 415 1250.7 759.2 1351.8 759.2 1406.4 415 1545.6 415 1561.6 317.1 1172.5 317.1"/>
  <polygon class="st0" points="1240.8 661.7 1224.9 759.6 974.8 759.6 1016.9 496.3 1045.4 317.5 1146.5 317.5 1091.9 661.7 1240.8 661.7"/>
  <polygon class="st0" points="570.9 759.6 677.4 759.6 822.6 759.6 807.5 661.7 726.1 661.7 834.6 443.8 847.3 443.8 892.7 759.6 998.9 759.6 931.9 317.5 786.6 317.5 563 759.6 570.9 759.6"/>
</svg>