<?xml version="1.0" encoding="utf-8"?>
<!-- Generator: Adobe Illustrator 28.2.0, SVG Export Plug-In . SVG Version: 6.00 Build 0)  -->
<svg version="1.1" id="Calque_1" xmlns="http://www.w3.org/2000/svg" xmlns:xlink="http://www.w3.org/1999/xlink" x="0px" y="0px"
	 viewBox="0 0 882.6 143.2" style="enable-background:new 0 0 882.6 143.2;" xml:space="preserve">
<style type="text/css">
	.st0{fill:#0156FB;}
	.st1{fill:#0155FB;}
	.st2{fill:#1E1E1E;}
</style>
<g>
	<path class="st0" d="M126.2,71v-0.2c0-0.1,0-0.2,0-0.3V22.1c0-0.1,0-0.4,0-0.4c0-0.9,0-1.8-0.4-2.7c-1.2-3.1-3.8-4.8-7.1-4.8H34.1
		c-5.3,0-10.5,0-15.8,0c-2.6,0-4.5,1.2-6,3.2c-0.8,1-1,2.2-1.1,3.5v52.8c0,0,0.1,3.8,0.2,5.6l0,0c0.1,1.6,0.2,3.1,0.5,4.7
		c0.7,4.8,1.8,9.5,3.5,14c1.5,4,3.7,7.6,6.1,11c3.3,4.8,7.2,9.1,11.6,12.9c5.1,4.5,10.8,8.3,17,11.2c0.2,0.1,0.4,0.2,0.7,0.3l0,0
		c0.2,0.1,5.4,2.8,11.7,4c0.6,0.1,1.3,0.2,2,0.3l0,0c1,0.1,2,0.2,3,0.2l0,0c0,0,3.4,0.2,6.6-0.5l0,0c0.4-0.1,0.7-0.1,1.1-0.2l0,0
		c2.6-0.5,4.7-1.2,5.7-1.5l0,0c1.2-0.4,2.4-0.8,3.6-1.3l0,0c1.3-0.5,2.7-1.1,4-1.8c2.3-1.1,4.5-2.4,6.7-3.7l0,0
		c0.4-0.2,0.6-0.4,0.9-0.6c4.6-3,8.8-6.5,12.7-10.6c2.5-2.6,4.7-5.3,6.8-8.1c4.6-6.2,7.7-13.1,9.1-20.7c0.4-2.1,0.8-4.3,1.1-6.4l0,0
		c0-0.1,0-0.2,0-0.3l0,0c0.2-1.5,0.3-3,0.4-4.6c0.2-2.6,0.1-4.1,0.1-4.1C126.2,72.8,126.2,71.9,126.2,71z"/>
	<path d="M68.7,19.4c16.4,0,32.9,0,49.3,0c0.7,0,1.4,0,2,0.5s1,1,1,1.8c0,0.2,0,0.3,0,0.5c0,16.9,0,33.9-0.1,50.8
		c0,6.8-0.9,13.5-2.9,20c-1.8,6.1-5.1,11.4-9,16.3c-7.2,8.9-15.9,15.7-26.5,20.2c-4.1,1.7-8.5,2.9-12.9,3.4c-2.1,0.2-4-0.3-6-0.7
		c-9.4-2-17.6-6.4-25-12.5c-6.6-5.4-12.2-11.8-16.3-19.3c-2.5-4.5-3.9-9.4-4.8-14.5c-1-5.6-1.3-11.2-1.3-16.9c0-15.6,0-31.2,0-46.8
		c0-2,1-3,3-3C35.8,19.4,52.3,19.4,68.7,19.4z"/>
	<path class="st1" d="M68.7,27c14.3,0,28.6,0,42.9,0c0.3,0,0.5,0,0.8,0c0.6,0.1,0.9,0.4,1,1c0,0.2,0,0.3,0,0.5c0,13.6,0,27.3,0,40.9
		c0,1.1-0.5,1.6-1.4,1.5c-0.3-0.1-0.5-0.3-0.8-0.5c-10-7.5-19.9-14.9-29.9-22.4c-5.9-4.4-11.8-8.9-17.7-13.3c-0.5-0.4-1-0.5-1.6-0.5
		c-2.1,0-4.2,0-6.2,0c-0.2,0-0.3,0-0.5,0c-0.5,0-1,0.3-1.1,0.8c-0.2,0.5,0,1,0.5,1.3c1.4,1.1,2.8,2.1,4.2,3.1
		C75.7,52,92.6,64.6,109.4,77.2c2.7,2,3.5,4.5,2.9,7.7c-1.5,8.4-5.3,15.6-10.9,21.9c-6.2,7-13.5,12.4-22.3,15.7
		c-3.3,1.2-6.6,2.1-10.1,2.4c-1.4,0.1-2.8-0.2-4.2-0.5c-8.8-1.8-16.4-6.1-23.1-11.9c-5.2-4.5-9.5-9.7-12.7-15.8
		c-2.2-4.2-3.4-8.7-4.1-13.4C23.9,77.2,24,71,24,64.9c0-0.5,0.2-1,0.7-1.2c0.6-0.3,1,0,1.4,0.3C36.1,71.5,46,78.9,56,86.4
		c10.2,7.6,20.4,15.3,30.6,22.9c0.8,0.6,1.2,0.6,2,0c1.1-0.8,2.2-1.7,3.2-2.7c1-0.9,1-1.5-0.1-2.3c-13-9.7-26.1-19.5-39.1-29.2
		C44,68.7,35.4,62.2,26.8,55.8c-1.8-1.4-2.7-3.2-2.7-5.4c0-7.2,0-14.4,0-21.7c0-1.3,0.3-1.6,1.6-1.6C40,27,54.3,27,68.7,27z"/>
</g>
<g>
	<path class="st2" d="M184.1,101.1c-3.9-1.9-6.9-4.5-9-7.7c-2.1-3.3-3.1-6.9-3.1-11h14.4c0,2.6,1,4.7,3.1,6.4s4.9,2.6,8.6,2.6
		c3.6,0,6.3-0.6,8.1-1.9c1.8-1.3,2.7-2.9,2.7-4.8c0-1.7-0.7-3.1-2.1-4.2c-1.4-1.1-3.7-2-6.9-2.6l-9.9-1.8c-5.6-1-9.8-3-12.5-5.8
		c-2.7-2.9-4.1-6.8-4.1-11.7c0-3.7,0.9-6.9,2.8-9.8c1.9-2.9,4.6-5.2,8.2-6.9c3.6-1.7,7.8-2.6,12.8-2.6c5.4,0,10,0.9,13.9,2.7
		c3.9,1.8,6.8,4.4,8.8,7.6c2,3.2,3,7,3,11.2h-14.4c0-2.5-1-4.6-3.1-6.4c-2-1.7-4.8-2.6-8.2-2.6c-3,0-5.3,0.6-7,1.9
		c-1.6,1.3-2.5,2.9-2.5,4.8c0,1.6,0.6,2.9,1.7,3.7c1.1,0.9,3.1,1.6,6,2.1l9.9,1.8c6.3,1.1,10.8,3.1,13.7,6c2.8,2.9,4.3,7,4.3,12.4
		c0,3.7-1,6.9-2.9,9.9c-1.9,2.9-4.8,5.2-8.5,6.9c-3.8,1.7-8.4,2.5-13.7,2.5S188.1,103,184.1,101.1z"/>
	<path class="st2" d="M276.2,103h-43.1V40.2h43.1v13h-28.7v12.1h26.9v12.6h-26.9V90h28.7V103z"/>
	<path class="st2" d="M301.4,103H287V40.2h17.5l19.8,37.7h1.8V40.2h14.4v62.9H323l-19.8-37.7h-1.8V103z"/>
	<path class="st2" d="M380.4,103H366V54.1h-17.5V40.2h49.4v13.9h-17.5V103z"/>
	<path class="st2" d="M420.3,103h-14.4V40.2h14.4V103z"/>
	<path class="st2" d="M447.3,103h-14.4V40.2h17.5l19.8,37.7h1.8V40.2h14.4v62.9h-17.5l-19.8-37.7h-1.8L447.3,103L447.3,103z"/>
	<path class="st2" d="M542,103h-43.1V40.2H542v13h-28.8v12.1h27v12.6h-27V90h28.7L542,103L542,103z"/>
	<path class="st2" d="M595.4,103h-42.6V40.2h14.4v48.9h28.3L595.4,103L595.4,103z"/>
	<path class="st2" d="M625.5,103V40.2h23.3c5.6,0,10.8,1.4,15.4,4.1c4.7,2.8,8.3,6.5,11,11.3c2.7,4.8,4,10.1,4,16s-1.3,11.2-4,16
		s-6.4,8.6-11,11.3c-4.7,2.8-9.8,4.1-15.4,4.1H625.5L625.5,103z M648.8,89.1c3,0,5.7-0.7,8.2-2.2s4.4-3.6,5.8-6.2
		c1.4-2.7,2.2-5.7,2.2-9c0-3.4-0.7-6.4-2.2-9c-1.4-2.7-3.4-4.7-5.8-6.2c-2.5-1.5-5.2-2.2-8.2-2.2h-9v35h9V89.1z"/>
	<path class="st2" d="M701.6,99.7c-4.7-2.8-8.3-6.6-11-11.5s-4-10.4-4-16.6c0-6.2,1.3-11.7,4-16.6c2.7-4.9,6.4-8.8,11-11.5
		c4.7-2.8,9.8-4.2,15.4-4.2c5.6,0,10.8,1.4,15.4,4.2c4.7,2.8,8.4,6.6,11,11.5c2.7,4.9,4,10.4,4,16.6c0,6.2-1.3,11.7-4,16.6
		s-6.4,8.8-11,11.5c-4.7,2.8-9.8,4.2-15.4,4.2S706.3,102.5,701.6,99.7z M725.2,87.7c2.5-1.5,4.4-3.7,5.8-6.5c1.4-2.8,2.2-6,2.2-9.7
		s-0.7-6.9-2.2-9.7c-1.4-2.8-3.4-4.9-5.8-6.5c-2.5-1.5-5.2-2.3-8.2-2.3s-5.7,0.8-8.2,2.3s-4.4,3.7-5.8,6.5c-1.4,2.8-2.2,6-2.2,9.7
		s0.7,6.9,2.2,9.7c1.4,2.8,3.4,4.9,5.8,6.5c2.5,1.5,5.2,2.3,8.2,2.3C720.1,90,722.8,89.2,725.2,87.7z"/>
	<path class="st2" d="M769.9,99.7c-4.7-2.8-8.3-6.6-11-11.5s-4-10.4-4-16.6c0-6.2,1.3-11.7,4-16.6c2.7-4.9,6.4-8.8,11-11.5
		c4.7-2.8,9.8-4.2,15.4-4.2c5.5,0,10.3,1.2,14.4,3.7c4.1,2.5,7.3,5.5,9.7,9.2s3.9,7.5,4.6,11.3h-14.4c-0.7-2.6-2.3-5-4.8-7.1
		s-5.7-3.2-9.6-3.2c-3,0-5.7,0.8-8.2,2.3s-4.4,3.7-5.8,6.5c-1.4,2.8-2.2,6-2.2,9.7s0.7,6.9,2.2,9.7c1.4,2.8,3.4,4.9,5.8,6.5
		c2.5,1.5,5.2,2.3,8.2,2.3c4.1,0,7.3-1.1,9.8-3.3s4-4.7,4.6-7.5H814c-0.6,3.9-2.1,7.7-4.4,11.5c-2.3,3.8-5.6,6.9-9.7,9.4
		c-4.1,2.5-9,3.8-14.6,3.8C779.7,103.9,774.5,102.5,769.9,99.7z"/>
	<path class="st2" d="M831.5,101.1c-3.9-1.9-6.9-4.5-9-7.7c-2.1-3.3-3.1-6.9-3.1-11h14.4c0,2.6,1,4.7,3.1,6.4s4.9,2.6,8.6,2.6
		c3.6,0,6.3-0.6,8.1-1.9c1.8-1.3,2.7-2.9,2.7-4.8c0-1.7-0.7-3.1-2.1-4.2c-1.4-1.1-3.7-2-6.9-2.6l-9.9-1.8c-5.6-1-9.8-3-12.5-5.8
		c-2.7-2.9-4.1-6.8-4.1-11.7c0-3.7,0.9-6.9,2.8-9.8c1.9-2.9,4.6-5.2,8.2-6.9c3.6-1.7,7.8-2.6,12.8-2.6c5.4,0,10,0.9,13.9,2.7
		c3.9,1.8,6.8,4.4,8.8,7.6c2,3.2,3,7,3,11.2h-14.4c0-2.5-1-4.6-3.1-6.4c-2-1.7-4.8-2.6-8.2-2.6c-3,0-5.3,0.6-7,1.9
		c-1.6,1.3-2.5,2.9-2.5,4.8c0,1.6,0.6,2.9,1.7,3.7c1.1,0.9,3.1,1.6,6,2.1l9.9,1.8c6.3,1.1,10.8,3.1,13.7,6c2.8,2.9,4.3,7,4.3,12.4
		c0,3.7-1,6.9-2.9,9.9c-1.9,2.9-4.8,5.2-8.5,6.9c-3.8,1.7-8.3,2.5-13.7,2.5S835.4,103,831.5,101.1z"/>
</g>
</svg>
