<?xml version="1.0" encoding="UTF-8"?>
<svg id="Calque_1" xmlns="http://www.w3.org/2000/svg" version="1.1" viewBox="0 0 1000 1000">
  <!-- Generator: Adobe Illustrator 29.1.0, SVG Export Plug-In . SVG Version: 2.1.0 Build 142)  -->
  <defs>
    <style>
      .st0 {
        fill: #0058ff;
      }

      .st1 {
        fill: #000101;
      }

      .st2 {
        fill: #fdfdfd;
      }
    </style>
  </defs>
  <path class="st0" d="M184,137.6l621.9-.2c20.6,1.6,37.8,17.3,40.8,37.7v344.6c-3,39.9-8.6,80.4-22.1,118.1-41.3,115.6-173.6,228.6-294.9,249.4-104.3,17.9-225.3-60.6-291-136.2-63.3-72.8-87.2-141.6-90.3-238.3s1-223.2-.8-334.6c.6-20.2,16.7-37.4,36.4-40.6ZM191.7,168.8c-7.7,1.1-12.4,7-12.8,14.6,2.8,105.7-3.6,213.2,0,318.7,1.9,56.4,11.8,115.3,39.5,164.8,51.3,91.5,153.2,171.1,257.6,189.8,15.7,2.8,25.1,2.6,40.8.1,115.5-18.3,243.7-125.7,279.7-237.1,12.7-39.1,17.4-80.4,18.9-121.4-.4-106.3.7-212.7-.6-318.9-1.8-6.1-7.1-10.4-13.5-10.8l-609.7.2Z"/>
  <path class="st1" d="M191.7,168.8l609.7-.2c6.4.4,11.8,4.7,13.5,10.8,1.2,106.2.1,212.6.6,318.9-1.5,40.9-6.2,82.3-18.9,121.4-36,111.4-164.3,218.8-279.7,237.1-15.7,2.5-25.2,2.7-40.8-.1-104.4-18.7-206.3-98.3-257.6-189.8-27.7-49.5-37.6-108.4-39.5-164.8-3.6-105.5,2.8-213,0-318.7.4-7.6,5.1-13.5,12.8-14.6ZM662.2,420.9h46.9c10.1,0,22,14.5,23.2,24.1.5,3.8-.9,15.3.9,17.4l25.9,19.1c4.8,1.5,8.2-.3,9.6-4.9V219.7c-1-2.6-2.3-4.6-5.4-4.6-150.4-.5-300.9.8-451.3,0-24.6-.1-50.1-2.4-74.7-.8s-12,.6-11.8,8v140.2c2.2,20.3,19.5,29.5,34.3,40.1v-72.8c0-11.1,14.1-26,25.5-26.3h290.5c14.3,1.3,26.3,16,26.3,30.1v33.9h36.2c11.6,0,24,17.6,24,28.6v24.8ZM576.8,367.6v-34.7c0-1.7-3.8-4-5.7-3.5l-283.3.4-2.6,1.9-.4,355.6c.4,3.3,13.4,18.2,16.4,21.7,5.8,6.7,12.1,13.1,18.7,19v-332c0-10.5,12.9-28.6,24-28.6h232.9ZM637.8,420.9l-.8-24c-.3-1.6-1.8-3.1-3.4-3.4l-285.5.3-2.6,1.9-.4,353.3,1.1,1.9c9.3,6.6,18.3,13.8,27.6,20.4s11.1,8.2,17,10.8v-337.3c0-8.8,14.4-24,23.3-24h223.7ZM259.7,645v-189.4l-24.4-18.3c-5.4-1.7-9.4,1.3-9.9,6.8-1.5,16.3-.5,40.4,0,57.2,1.5,45.6,9.5,99.7,31.7,139.9.6,1.1,1.5,3.4,2.7,3.8ZM415.3,796.6c16.9,7.5,34.4,13.8,52.5,18,27.6,6.5,45.1,4.5,72.1-3.4,67.6-19.8,124.6-66.1,167.7-120.5l.5-239c.4-3.5-2.6-5-5.7-4.9l-284,.4-2.3,1.5-.6,347.9ZM732.3,648.8c3.7-4.6,6.5-10.4,9-15.7,14-29.4,37.5-87.7,5-111.5l-14.1-9.9v137.2Z"/>
  <path class="st2" d="M415.3,796.6l.6-347.9,2.3-1.5,284-.4c3.1,0,6.1,1.5,5.7,4.9l-.5,239c-43,54.4-100.1,100.7-167.7,120.5-27,7.9-44.4,9.9-72.1,3.4s-35.6-10.6-52.5-18ZM465.3,502.7c-13.3,1.3-13.3,22.6-.2,24.2h192.9c13.8-2.3,12.7-24-1.6-24.4l-191.1.2ZM463.8,548.4c-10.6,3-11.2,17.7-1.8,22.7,66.1,1.2,132.9,1.2,199.1,0,10-5,8.5-21.6-3.1-22.9l-194.2.2ZM463.8,593.4c-12.2,3.7-11.1,22.9,2.2,24.1h93.6c13.4-1.5,15.4-20.5,2.3-24.3h-98.1Z"/>
  <path class="st0" d="M662.2,420.9v-24.8c0-11-12.4-28.6-24-28.6h-36.2v-33.9c0-14.1-12-28.8-26.3-30.1h-290.5c-11.5.4-25.5,15.2-25.5,26.3v72.8c-14.8-10.6-32.1-19.9-34.2-40.1v-140.2c-.3-7.5,5.8-7.6,11.7-8,24.6-1.6,50.1.7,74.7.8,150.4.7,300.9-.6,451.3,0,3,0,4.4,2,5.3,4.6v257c-1.3,4.6-4.8,6.4-9.6,4.9l-25.9-19.1c-1.7-2.1-.4-13.6-.9-17.4-1.2-9.6-13.1-24.1-23.2-24.1h-46.9Z"/>
  <path class="st2" d="M637.8,420.9h-223.7c-8.9,0-23.3,15.2-23.3,24v337.3c-5.9-2.6-11.6-7-17-10.8-9.3-6.6-18.3-13.8-27.6-20.4l-1.1-1.9.4-353.3,2.6-1.9,285.5-.3c1.6.3,3.1,1.8,3.4,3.4l.8,24Z"/>
  <path class="st2" d="M576.8,367.6h-232.9c-11.1,0-24,18.1-24,28.6v332c-6.6-5.9-12.9-12.4-18.7-19-3-3.5-16-18.4-16.4-21.7l.4-355.6,2.6-1.9,283.3-.4c1.9-.5,5.7,1.7,5.7,3.5v34.7Z"/>
  <path class="st0" d="M259.7,645c-1.2-.4-2.1-2.7-2.7-3.8-22.2-40.2-30.2-94.3-31.7-139.9-.5-16.8-1.5-40.9,0-57.2s4.5-8.5,9.9-6.8l24.4,18.3v189.4Z"/>
  <path class="st0" d="M732.3,648.8v-137.2l14.1,9.9c32.5,23.8,9,82.2-5,111.5-2.5,5.3-5.3,11.2-9,15.7Z"/>
  <path class="st1" d="M465.3,502.7l191.1-.2c14.3.4,15.4,22.1,1.6,24.4h-192.9c-13.1-1.6-13.1-22.9.2-24.2Z"/>
  <path class="st1" d="M463.8,548.4l194.2-.2c11.6,1.3,13.1,17.9,3.1,22.9-66.1,1.2-132.9,1.2-199.1,0-9.5-5-8.8-19.7,1.8-22.7Z"/>
  <path class="st1" d="M463.8,593.4h98.1c13,3.6,11,22.6-2.3,24.1h-93.6c-13.2-1.2-14.4-20.5-2.2-24.1Z"/>
</svg>