<?xml version="1.0" ?><!DOCTYPE svg  PUBLIC '-//W3C//DTD SVG 1.1//EN'  'http://www.w3.org/Graphics/SVG/1.1/DTD/svg11.dtd'><svg style="enable-background:new 0 0 500 500;" version="1.1" viewBox="0 0 500 500" xml:space="preserve" xmlns="http://www.w3.org/2000/svg" xmlns:xlink="http://www.w3.org/1999/xlink"><g id="api-code-window"><g><circle cx="250" cy="250" r="250" style="fill:#F4F1F0;"/><g id="_x34_"><path d="M337.652,328.624c-0.564-0.011-1.107-0.065-1.639-0.168c-1.129,4.736-5.415,8.339-10.46,8.35     H120.92c-5.881-0.011-10.758-4.883-10.769-10.77V189.155h226.171v6.82c0.462-0.076,0.928-0.133,1.411-0.133h11.502v-21.872     c-0.011-13.078-10.606-23.668-23.682-23.698H120.92c-13.08,0.029-23.676,10.62-23.698,23.698v152.067     c0.022,13.069,10.618,23.671,23.698,23.692h204.634c12.19-0.022,22.113-9.267,23.421-21.115l-11.279,0.011H337.652z      M323.036,165.457c2.978,0,5.388,2.411,5.388,5.39c0,2.968-2.409,5.382-5.388,5.382c-2.974,0-5.382-2.414-5.382-5.382     C317.654,167.868,320.062,165.457,323.036,165.457z M280.719,165.785h26.476c2.81,0,5.072,2.262,5.072,5.062     c0,2.794-2.263,5.062-5.072,5.062h-26.476c-2.8,0-5.067-2.268-5.067-5.062C275.651,168.047,277.919,165.785,280.719,165.785z" style="fill:#675F58;"/><g><path d="M351.324,235.867c-2.35-0.659-4.829-1.037-7.39-1.037c-1.601,0-3.147,0.168-4.666,0.429      c-5.702,0.979-10.802,3.681-14.714,7.595c-4.969,4.959-8.019,11.809-8.019,19.374c0,7.574,3.05,14.421,8.019,19.374      c3.554,3.554,8.073,6.104,13.13,7.286c2.013,0.467,4.091,0.738,6.25,0.738c2.311,0,4.558-0.32,6.706-0.863      c4.871-1.226,9.223-3.722,12.662-7.161c4.965-4.953,8.029-11.8,8.029-19.374c0-7.565-3.064-14.415-8.029-19.374      C360.031,239.575,355.914,237.155,351.324,235.867z M351.324,269.266c-1.867,1.958-4.481,3.19-7.39,3.19      c-1.692,0-3.272-0.45-4.666-1.177c-3.288-1.704-5.556-5.1-5.556-9.05c0-3.96,2.268-7.349,5.556-9.052      c1.395-0.725,2.974-1.172,4.666-1.172c2.908,0,5.522,1.229,7.39,3.182c1.758,1.834,2.843,4.303,2.843,7.042      C354.167,264.958,353.082,267.438,351.324,269.266z" style="fill:#675F58;"/><path d="M401.161,254.234l-12.381-1.473c-1.172-5.632-3.401-10.881-6.456-15.541l7.726-9.804      c0.554-0.686,0.499-1.771-0.141-2.398l-8.763-8.773c-0.623-0.618-1.703-0.689-2.414-0.138l-9.793,7.726      c-4.66-3.044-9.9-5.271-15.538-6.448L351.932,205c-0.044-0.442-0.271-0.841-0.607-1.134c-0.32-0.282-0.744-0.466-1.194-0.466      h-10.861h-1.535c-0.885,0-1.692,0.716-1.807,1.601l-1.454,12.386c-5.643,1.177-10.889,3.404-15.544,6.448l-9.809-7.726      c-0.684-0.551-1.764-0.48-2.403,0.138l-8.757,8.773c-0.635,0.627-0.705,1.712-0.141,2.403l7.715,9.798      c-3.038,4.66-5.273,9.909-6.445,15.541l-12.381,1.473c-0.89,0.101-1.606,0.911-1.606,1.793v12.397      c0,0.89,0.717,1.703,1.606,1.811l12.381,1.454c1.172,5.643,3.407,10.884,6.445,15.56l-5.024,6.381l-2.69,3.407      c-0.564,0.705-0.494,1.779,0.141,2.397l6.25,6.261l0.119,0.131l2.388,2.376c0.629,0.629,1.72,0.694,2.414,0.141l3.206-2.517      l0.147-0.131l6.445-5.078c3.239,2.122,6.772,3.798,10.515,5.057c0.136,0.044,0.261,0.108,0.396,0.152      c1.508,0.488,3.049,0.917,4.633,1.247l1.454,12.381c0.114,0.885,0.922,1.596,1.807,1.606l12.396-0.011      c0.879,0.011,1.709-0.711,1.802-1.596l1.47-12.381c1.568-0.33,3.109-0.759,4.628-1.247c3.885-1.259,7.564-3.012,10.91-5.209      l6.587,5.198l3.206,2.527c0.711,0.554,1.791,0.488,2.414-0.141l2.393-2.387l6.37-6.381c0.64-0.618,0.694-1.692,0.141-2.397      l-7.726-9.788c3.055-4.676,5.284-9.917,6.456-15.56l12.381-1.454c0.868-0.108,1.616-0.922,1.616-1.811v-12.397      C402.777,255.146,402.029,254.335,401.161,254.234z M348.074,294.943c-1.362,0.174-2.74,0.293-4.14,0.293      c-4.112,0-8.019-0.792-11.643-2.159c-12.474-4.709-21.354-16.731-21.354-30.849c0-16.637,12.326-30.357,28.331-32.631      c1.524-0.222,3.071-0.369,4.666-0.369c2.539,0,5.013,0.317,7.39,0.865c14.653,3.361,25.607,16.46,25.607,32.134      C376.932,279.036,364.345,292.903,348.074,294.943z" style="fill:#FF931E;"/></g><g><path d="M166.873,239.586l-15.256,46.97H165.5l2.371-8.767h15.196l2.301,8.767h13.823l-15.446-46.97      H166.873z M170.497,267.415c1.942-7.335,3.19-12.25,3.754-14.743c0.564-2.496,0.944-4.289,1.139-5.371      c0.212,1.172,0.656,3.109,1.324,5.816c0.673,2.71,1.248,4.923,1.714,6.627l2.019,7.671H170.497z" style="fill:#675F58;"/><path d="M223.72,239.778h-16.2v46.777h12.641v-15.521h3.559c5.664,0,10.042-1.427,13.118-4.27      c3.087-2.849,4.634-6.88,4.634-12.109c0-4.756-1.487-8.423-4.449-11.006C234.061,241.07,229.623,239.778,223.72,239.778z       M226.986,259.137c-1.107,1.062-2.626,1.595-4.52,1.595h-2.306v-10.748h3.266c3.494,0,5.246,1.582,5.246,4.736      C228.673,256.598,228.109,258.073,226.986,259.137z" style="fill:#675F58;"/><rect height="46.777" style="fill:#675F58;" width="12.695" x="252.203" y="239.778"/></g></g></g></g><g id="Layer_1"/></svg>