<svg xmlns:xlink="http://www.w3.org/1999/xlink" fill="none" xmlns="http://www.w3.org/2000/svg" viewBox="0 0 24 24" height="48" class="PJLV" width="48" ><title>Buf</title><path d="M2.526 18.071H.883V.001h1.643v18.07ZM5.819 18.071H4.176V.001h1.643v18.07ZM9.096 18.071H7.453V.001h1.643v18.07ZM12.385 18.071h-1.643V.001h1.643v18.07ZM15.666 18.071h-1.643V.001h1.643v18.07ZM18.96 18.071h-1.644V.001h1.643v18.07Z" fill="#77E1FF"></path><path d="M7.455 23H5.812V4.929h1.643V23ZM10.729 23H9.086V4.929h1.643V23ZM14.022 23h-1.643V4.929h1.643V23ZM17.319 23h-1.643V4.929h1.643V23ZM20.596 23h-1.643V4.929h1.643V23ZM23.885 23h-1.643V4.929h1.643V23Z" fill="#161EDE"></path></svg>