<?xml version="1.0" ?><!DOCTYPE svg  PUBLIC '-//W3C//DTD SVG 1.1//EN'  'http://www.w3.org/Graphics/SVG/1.1/DTD/svg11.dtd'><svg height="135px" id="Layer_1" style="enable-background:new 0 0 135 135;" version="1.1" viewBox="0 0 135 135" width="135px" xml:space="preserve" xmlns="http://www.w3.org/2000/svg" xmlns:xlink="http://www.w3.org/1999/xlink"><style type="text/css">
<![CDATA[
	.st0{fill:#465652;}
	.st1{fill:#AAB9BA;}
	.st2{fill:#47C67B;}
	.st3{fill:#AAC8D1;}
	.st4{fill:none;stroke:#E83834;stroke-width:6;stroke-linecap:round;stroke-linejoin:round;stroke-miterlimit:10;}
	.st5{fill:#7BC67B;}
	.st6{fill:#7BC7FF;}
	.st7{fill:#7C34C1;}
	.st8{fill:#7C8D96;}
	.st9{fill:#AD2707;}
	.st10{fill:#ADB8BC;}
	.st11{fill:#107510;}
	.st12{fill:#7FE5D8;}
	.st13{fill:#AF4AD1;}
	.st14{fill:#E02B7E;}
	.st15{fill:#E04038;}
	.st16{fill:#AFD7DD;}
	.st17{fill:#E0A010;}
	.st18{fill:#E0D5A4;}
	.st19{fill:#12B2B2;}
	.st20{fill:#12D66B;}
	.st21{fill:#E1A9FF;}
	.st22{fill:#1362A8;}
	.st23{fill:#E2378D;}
	.st24{fill:#E29C37;}
	.st25{fill:#E2B90E;}
	.st26{fill:#E2BF91;}
	.st27{fill:#E2CBAA;}
	.st28{fill:#14A594;}
	.st29{fill:#E4E9ED;}
	.st30{fill:#4A5D60;}
	.st31{fill:#E5B076;}
	.st32{fill:#E5B1C4;}
	.st33{fill:#E5E4C3;}
	.st34{fill:#4B6466;}
	.st35{fill:#E6FF2E;}
	.st36{fill:#18AA67;}
	.st37{fill:#E86207;}
	.st38{fill:#E8A113;}
	.st39{fill:#E8B5A6;}
	.st40{fill:#E8E8ED;}
	.st41{fill:#4E5154;}
	.st42{fill:#E9F1F4;}
	.st43{fill:#4F4B48;}
	.st44{fill:#4F74E8;}
	.st45{fill:#808E93;}
	.st46{fill:#80949B;}
	.st47{fill:#80EDAC;}
	.st48{fill:#B122E0;}
	.st49{fill:#B2C4CC;}
	.st50{fill:#83D839;}
	.st51{fill:#B3C6C6;}
	.st52{fill:none;stroke:#33363A;stroke-width:3;stroke-linecap:round;stroke-linejoin:round;stroke-miterlimit:10;}
	.st53{fill:#1A8E1C;}
	.st54{fill:#1A93D6;}
	.st55{fill:#B50B0B;}
	.st56{fill:#1AD88F;}
	.st57{fill:#B5DAF4;}
	.st58{fill:#EA7B1F;}
	.st59{fill:#EA81BD;}
	.st60{fill:#87B8D6;}
	.st61{fill:#87C3F4;}
	.st62{fill:#EAC79D;}
	.st63{fill:#EADF11;}
	.st64{fill:#EAE4C5;}
	.st65{fill:#B78094;}
	.st66{fill:#8844D8;}
	.st67{fill:#EBF4F7;}
	.st68{fill:#893015;}
	.st69{fill:#89410B;}
	.st70{fill:#899BA3;}
	.st71{fill:#EDE3B9;}
	.st72{enable-background:new    ;}
	.st73{fill:#50FF9F;}
	.st74{fill:#EEDCF4;}
	.st75{fill:#EFA37D;}
	.st76{fill:#EFA3CC;}
	.st77{fill:#EFC99A;}
	.st78{fill:#54AF79;}
	.st79{fill:#BA503A;}
	.st80{fill:#BA8663;}
	.st81{fill:#8B4FE0;}
	.st82{fill:#58ED9B;}
	.st83{fill:#BC7DFF;}
	.st84{fill:#8D9AA3;}
	.st85{fill:#BCCAD3;}
	.st86{fill:#8DE4FF;}
	.st87{fill:#20B518;}
	.st88{fill:#BF44F2;}
	.st89{fill:#21CEA1;}
	.st90{fill:#BFDAE0;}
	.st91{fill:#F0FBFC;}
	.st92{fill:#F2D9A7;}
	.st93{fill:#F2EAC9;}
	.st94{fill:#24D1AF;}
	.st95{fill:#25931C;}
	.st96{fill:#F4C4B3;}
	.st97{fill:#F4D3A2;}
	.st98{fill:#F4D647;}
	.st99{fill:#F4D7B8;}
	.st100{fill:#F4EC8E;}
	.st101{fill:#5B524D;}
	.st102{fill:#F77819;}
	.st103{fill:#F79AE1;}
	.st104{fill:#5E707A;}
	.st105{fill:#F93585;}
	.st106{fill:#F95D5D;}
	.st107{fill:#F9C19B;}
	.st108{fill:#F9CB58;}
	.st109{fill:#F9D2B2;}
	.st110{fill:#F9F07D;}
	.st111{fill:#F9F1D2;}
	.st112{fill:#F9F4B7;}
	.st113{fill:#F9F9E4;}
	.st114{fill:#5F1DAA;}
	.st115{fill:#5F9AD6;}
	.st116{fill:#C0C0C4;}
	.st117{fill:#91EA57;}
	.st118{fill:#C12727;}
	.st119{fill:#C191A0;}
	.st120{fill:#923BB7;}
	.st121{fill:#93A0A3;}
	.st122{fill:#93F9EA;}
	.st123{fill:#93FF5A;}
	.st124{fill:#C4833D;}
	.st125{fill:#95A2A5;}
	.st126{fill:#965514;}
	.st127{fill:#96562C;}
	.st128{fill:#2AF42F;}
	.st129{fill:#C5D7DD;}
	.st130{fill:#C68510;}
	.st131{fill:#C6A86D;}
	.st132{fill:#C6BB8D;}
	.st133{fill:#2C9DCE;}
	.st134{fill:#FBFCF2;}
	.st135{fill:#FC70B0;}
	.st136{fill:#FCE6C8;}
	.st137{fill:#FCF7E3;}
	.st138{fill:#C90D6B;}
	.st139{fill:#FDFEFF;}
	.st140{fill:#FDFFDC;}
	.st141{fill:#FF1A1A;}
	.st142{fill:#FF5252;}
	.st143{fill:#FF5B00;}
	.st144{fill:#FF6155;}
	.st145{fill:#FF630D;}
	.st146{fill:#FF6666;}
	.st147{fill:#FF7676;}
	.st148{fill:#FF7900;}
	.st149{fill:#FF860D;}
	.st150{fill:#FF8B00;}
	.st151{fill:#FF8F8F;}
	.st152{fill:#FF900B;}
	.st153{fill:#FF908A;}
	.st154{fill:#FF960B;}
	.st155{fill:#FF9C0D;}
	.st156{fill:#FFA9D4;}
	.st157{fill:#FFAA00;}
	.st158{fill:#FFAD40;}
	.st159{fill:#FFAF10;}
	.st160{fill:#FFB000;}
	.st161{fill:#FFBE08;}
	.st162{fill:#FFBF31;}
	.st163{fill:#FFC200;}
	.st164{fill:#FFCAE8;}
	.st165{fill:#FFCCF5;}
	.st166{fill:#FFD00B;}
	.st167{fill:#FFD039;}
	.st168{fill:#FFD400;}
	.st169{fill:#FFD833;}
	.st170{fill:#FFDB80;}
	.st171{fill:#FFDDD2;}
	.st172{fill:#FFE6D4;}
	.st173{fill:#FFE6EB;}
	.st174{fill:#FFE98D;}
	.st175{fill:#FFECD2;}
	.st176{fill:#FFF1D9;}
	.st177{fill:#FFF24D;}
	.st178{fill:#FFF3C2;}
	.st179{fill:#FFF4C7;}
	.st180{fill:#FFF800;}
	.st181{fill:#FFF80D;}
	.st182{fill:#FFF9DE;}
	.st183{fill:#FFFBD7;}
	.st184{fill:#FFFBEB;}
	.st185{fill:#FFFCC0;}
	.st186{fill:#FFFCDC;}
	.st187{fill:#FFFFFA;}
	.st188{fill:#FFFFFF;}
	.st189{fill:#63797F;}
	.st190{fill:#65E529;}
	.st191{fill:#66310E;}
	.st192{fill:#663C17;}
	.st193{fill:#9A5AE5;}
	.st194{fill:#CA30EF;}
	.st195{fill:#6892FC;}
	.st196{fill:#9CFFC4;}
	.st197{fill:#CC4306;}
	.st198{fill:#CC549E;}
	.st199{fill:#9E3256;}
	.st200{fill:#CDFFBB;}
	.st201{fill:#CE86AF;}
	.st202{fill:#CED9DD;}
	
		.st203{fill:none;stroke:#33363A;stroke-width:3;stroke-linecap:round;stroke-linejoin:round;stroke-miterlimit:10;stroke-dasharray:6;}
	.st204{fill:#CFE1E2;}
	.st205{fill:#33363A;}
	.st206{fill:#34C166;}
	.st207{fill:#364B5B;}
	.st208{fill:#3662CE;}
	.st209{fill:#36C6FF;}
	.st210{fill:#6ADB9A;}
	.st211{fill:#6D5C4D;}
	.st212{fill:#6EBDF9;}
	.st213{fill:#0031FF;}
	.st214{fill:#0062FF;}
	.st215{fill:#0068FF;}
	.st216{fill:#0086FF;}
	.st217{fill:#009BE8;}
	.st218{fill:#00AAFF;}
	.st219{fill:#D271FF;}
	.st220{fill:#D363A9;}
	.st221{fill:#D3964C;}
	.st222{fill:#D3DFE2;}
	.st223{fill:#D3E0E2;}
	.st224{fill:#D3EFF4;}
	.st225{fill:#063B66;}
	.st226{fill:#D60909;}
	.st227{fill:#D61D1D;}
	.st228{fill:#D7F0FF;}
	.st229{fill:#09B285;}
	.st230{fill:#D8D593;}
	.st231{fill:#D8E2EA;}
	.st232{fill:#D8E5EA;}
	.st233{fill:#3E5054;}
	.st234{fill:#D988FF;}
	.st235{fill:#D9E7E8;}
	.st236{fill:#702252;}
	.st237{fill:#70D3E0;}
	.st238{fill:#A02FF2;}
	.st239{fill:#A2F255;}
	.st240{fill:#A35616;}
	.st241{fill:#A3CCCC;}
	.st242{fill:#0A6ADD;}
	.st243{fill:#A5145D;}
	.st244{fill:#A57555;}
	.st245{fill:#77D6FC;}
	.st246{fill:#7815CE;}
	.st247{fill:#A7BBC1;}
	.st248{fill:#DBD279;}
	.st249{fill:#0D5C9E;}
	.st250{fill:#A83C11;}
	.st251{fill:#A8633D;}
	.st252{fill:#A8A3E5;}
	.st253{fill:#DCE6EA;}
	.st254{fill:#DCE7EA;}
	.st255{fill:#A962E8;}
	.st256{fill:#DD2466;}
	.st257{fill:#DDC38A;}
	.st258{fill:#DDD2B1;}
	.st259{fill:#DFE7E8;}
	.st260{fill:#42B1E8;}
	.st261{fill:#436377;}
	.st262{fill:#43B530;}
]]>
</style><g><g><g><path class="st122" d="M100.794,27.588c0.002,0.002,0.005,0.002,0.008,0.004C97.931,14.727,86.453,5.105,72.724,5.105     c-15.893,0-28.777,12.885-28.777,28.777c0,11.66,6.939,21.693,16.91,26.215c-0.452-2.025-0.699-4.131-0.699-6.293     c0-6.625,2.244-12.721,6.006-17.582c1.484,8.385,8.791,14.758,17.604,14.758c9.883,0,17.896-8.012,17.896-17.895     C101.663,31.166,101.353,29.32,100.794,27.588z"/></g><g><path class="st237" d="M60.157,53.805c0-6.625,2.244-12.721,6.006-17.582c1.484,8.385,8.791,14.758,17.604,14.758     c8.581,0,15.745-6.043,17.484-14.107c-0.128-0.594-0.274-1.182-0.458-1.754c0.002,0.002,0.005,0.002,0.008,0.004     C97.931,22.26,86.453,12.639,72.724,12.639c-14.607,0-26.664,10.887-28.521,24.986c1.274,9.789,7.467,18.02,16.021,22.156     c0.039-0.73,0.105-1.453,0.199-2.17C60.256,56.365,60.157,55.098,60.157,53.805z"/></g><g><path class="st205" d="M60.856,61.598c-0.21,0-0.421-0.044-0.619-0.134C49.43,56.562,42.446,45.736,42.446,33.883     c0-16.695,13.582-30.277,30.277-30.277c13.977,0,26.338,9.834,29.487,23.42c0.05,0.122,0.084,0.252,0.101,0.388     c0.565,1.849,0.852,3.756,0.852,5.673c0,10.694-8.701,19.395-19.396,19.395c-8.271,0-15.468-5.189-18.208-12.733     c-2.562,4.229-3.902,9.032-3.902,14.058c0,1.911,0.206,3.841,0.613,5.738c0.068,0.172,0.105,0.358,0.105,0.555     c0,0.828-0.671,1.5-1.5,1.5C60.87,61.598,60.864,61.598,60.856,61.598z M72.724,6.605c-15.041,0-27.277,12.236-27.277,27.277     c0,9.694,5.185,18.626,13.425,23.494c-0.143-1.19-0.214-2.384-0.214-3.572c0-6.76,2.186-13.157,6.319-18.5     c0.363-0.47,0.97-0.68,1.546-0.538s1.015,0.61,1.117,1.194c1.388,7.834,8.17,13.52,16.128,13.52     c9.04,0,16.396-7.354,16.396-16.395c0-1.703-0.268-3.398-0.797-5.038c-0.028-0.089-0.049-0.18-0.061-0.271     C96.496,15.501,85.34,6.605,72.724,6.605z"/></g><g><path class="st205" d="M81.928,40.515c-3.524,0-6.854-2.143-8.187-5.625c-1.439-3.765,0.449-7.997,4.21-9.436     c0.772-0.295,1.642,0.091,1.938,0.865s-0.092,1.642-0.865,1.938c-2.217,0.847-3.329,3.342-2.48,5.562     c1.135,2.963,4.469,4.453,7.432,3.315c1.889-0.722,3.383-2.136,4.207-3.982c0.824-1.845,0.88-3.9,0.157-5.786     c-0.938-2.456-2.776-4.397-5.176-5.47c-2.399-1.071-5.072-1.145-7.524-0.205c-6.524,2.496-9.802,9.835-7.306,16.359     c0.296,0.774-0.092,1.642-0.865,1.938c-0.774,0.295-1.641-0.091-1.938-0.865c-3.086-8.069,0.967-17.146,9.036-20.234     c3.203-1.224,6.69-1.13,9.82,0.27c3.131,1.398,5.529,3.933,6.754,7.136c1.009,2.634,0.932,5.504-0.22,8.082     s-3.237,4.553-5.874,5.562C84.021,40.329,82.966,40.515,81.928,40.515z"/></g></g><g><g><g><g><path class="st122" d="M116.709,92.453c0,20.676-22.032,37.441-49.209,37.441c-27.178,0-49.209-16.766-49.209-37.441       c0-20.68,22.031-45.459,49.209-45.459C94.677,46.994,116.709,71.773,116.709,92.453z"/></g><g><path class="st12" d="M116.709,92.453c0,20.676-22.032,37.441-49.209,37.441c-27.178,0-49.209-16.766-49.209-37.441       c0-20.68,22.031-34.928,49.209-34.928C94.677,57.525,116.709,71.773,116.709,92.453z"/></g><g><path class="st122" d="M78.021,106.508c0,1.393-4.691,1.643-10.479,1.643s-10.479-0.25-10.479-1.643       c0-1.395,4.691-5.037,10.479-5.037S78.021,105.113,78.021,106.508z"/></g><g><path class="st237" d="M116.709,92.453c0,20.676-22.032,37.441-49.209,37.441c-27.178,0-49.209-16.766-49.209-37.441       c0-20.682,6.261,18.34,49.209,18.34S116.709,71.771,116.709,92.453z"/></g><g><path class="st205" d="M67.5,131.395c-27.961,0-50.709-17.469-50.709-38.941c0-21.27,22.619-46.959,50.709-46.959       c13.041,0,25.772,5.472,35.849,15.406c9.305,9.174,14.86,20.97,14.86,31.553C118.209,113.926,95.461,131.395,67.5,131.395z        M67.5,48.494c-26.428,0-47.709,24.048-47.709,43.959c0,19.818,21.402,35.941,47.709,35.941s47.709-16.123,47.709-35.941       C115.209,72.542,93.928,48.494,67.5,48.494z"/></g></g><g><g><g><g><g><path class="st68" d="M51.338,98.359c0,4.449-3.605,8.051-8.052,8.051c-4.447,0-8.051-3.602-8.051-8.051          c0-4.447,3.604-8.051,8.051-8.051C47.732,90.309,51.338,93.912,51.338,98.359z"/></g><g><path class="st205" d="M51.338,98.359c0,4.449-3.605,1.664-8.052,1.664c-4.447,0-8.051,2.785-8.051-1.664          c0-4.447,3.604-8.051,8.051-8.051C47.732,90.309,51.338,93.912,51.338,98.359z"/></g><g><path class="st205" d="M43.286,107.91c-5.267,0-9.551-4.284-9.551-9.551s4.284-9.551,9.551-9.551s9.552,4.284,9.552,9.551          S48.553,107.91,43.286,107.91z M43.286,91.809c-3.612,0-6.551,2.938-6.551,6.551s2.938,6.551,6.551,6.551          s6.552-2.938,6.552-6.551S46.898,91.809,43.286,91.809z"/></g></g><g><g><circle class="st188" cx="39.282" cy="95.742" r="3.281"/></g><g><path class="st205" d="M39.281,100.523c-2.636,0-4.78-2.145-4.78-4.781c0-2.636,2.145-4.779,4.78-4.779          c2.637,0,4.781,2.144,4.781,4.779C44.062,98.379,41.918,100.523,39.281,100.523z M39.281,93.963          c-0.981,0-1.78,0.798-1.78,1.779c0,0.982,0.799,1.781,1.78,1.781c0.982,0,1.781-0.799,1.781-1.781          C41.062,94.761,40.264,93.963,39.281,93.963z"/></g></g></g><g><g><g><path class="st68" d="M99.765,98.359c0,4.449-3.604,8.051-8.051,8.051c-4.447,0-8.052-3.602-8.052-8.051          c0-4.447,3.604-8.051,8.052-8.051C96.16,90.309,99.765,93.912,99.765,98.359z"/></g><g><path class="st205" d="M99.765,98.359c0,4.449-3.604,1.664-8.051,1.664c-4.447,0-8.052,2.785-8.052-1.664          c0-4.447,3.604-8.051,8.052-8.051C96.16,90.309,99.765,93.912,99.765,98.359z"/></g><g><path class="st205" d="M91.714,107.91c-5.267,0-9.552-4.284-9.552-9.551s4.285-9.551,9.552-9.551s9.551,4.284,9.551,9.551          S96.98,107.91,91.714,107.91z M91.714,91.809c-3.612,0-6.552,2.938-6.552,6.551s2.939,6.551,6.552,6.551          s6.551-2.938,6.551-6.551S95.326,91.809,91.714,91.809z"/></g></g><g><g><circle class="st188" cx="87.709" cy="95.742" r="3.28"/></g><g><path class="st205" d="M87.71,100.523c-2.637,0-4.781-2.145-4.781-4.781c0-2.636,2.145-4.779,4.781-4.779          c2.636,0,4.779,2.144,4.779,4.779C92.489,98.379,90.346,100.523,87.71,100.523z M87.71,93.963          c-0.982,0-1.781,0.798-1.781,1.779c0,0.982,0.799,1.781,1.781,1.781c0.981,0,1.779-0.799,1.779-1.781          C89.489,94.761,88.691,93.963,87.71,93.963z"/></g></g></g></g></g></g><g><g><path class="st205" d="M65.979,122.834c-0.226-0.901-2.811-3.222-11.883-3.062c-0.178,0.003-0.354,0.004-0.528,0.004      c-13.352,0-17.477-8.116-17.648-8.466c-0.364-0.744-0.056-1.643,0.688-2.007c0.738-0.362,1.636-0.059,2.003,0.681      c0.152,0.3,3.591,6.792,14.958,6.792c0.158,0,0.317-0.001,0.479-0.004c1.463-0.01,14.381-0.064,14.904,5.688l-2.988,0.271      C65.964,122.731,65.962,122.769,65.979,122.834z"/></g><g><path class="st205" d="M69.021,122.834c0.017-0.065,0.015-0.103,0.015-0.103l-2.988-0.271      c0.522-5.751,13.424-5.705,14.906-5.688c11.878,0.192,15.397-6.71,15.432-6.78c0.365-0.745,1.266-1.051,2.007-0.688      c0.744,0.364,1.053,1.263,0.688,2.007c-0.173,0.354-4.441,8.689-18.175,8.462C71.784,119.62,69.247,121.933,69.021,122.834z"/></g></g><g><g><path class="st205" d="M65.032,114.65c-0.398,0-0.795-0.157-1.091-0.47l-1.5-1.588c-0.568-0.603-0.541-1.552,0.061-2.121      c0.602-0.567,1.551-0.542,2.121,0.061l1.5,1.588c0.568,0.603,0.541,1.552-0.061,2.121      C65.772,114.515,65.402,114.65,65.032,114.65z"/></g><g><path class="st205" d="M69.968,114.65c-0.37,0-0.74-0.136-1.03-0.409c-0.602-0.569-0.629-1.519-0.061-2.121l1.5-1.588      c0.571-0.604,1.521-0.627,2.121-0.061c0.602,0.569,0.629,1.519,0.061,2.121l-1.5,1.588      C70.763,114.493,70.365,114.65,69.968,114.65z"/></g></g><g><g><path class="st205" d="M52.635,86.564c-0.266,0-0.533-0.07-0.776-0.218l-4.674-2.834c-0.709-0.429-0.935-1.352-0.505-2.06      c0.428-0.71,1.352-0.935,2.06-0.505l4.674,2.834c0.709,0.429,0.935,1.352,0.505,2.06C53.637,86.308,53.142,86.564,52.635,86.564      z"/></g><g><path class="st205" d="M82.365,86.564c-0.507,0-1.002-0.257-1.283-0.723c-0.43-0.708-0.204-1.631,0.505-2.06l4.674-2.834      c0.706-0.43,1.631-0.205,2.06,0.505c0.43,0.708,0.204,1.631-0.505,2.06l-4.674,2.834C82.898,86.494,82.631,86.564,82.365,86.564      z"/></g></g></g></g></svg>