<svg xmlns:xlink="http://www.w3.org/1999/xlink" width="80" height="70" viewBox="0 0 80 70" fill="none" xmlns="http://www.w3.org/2000/svg">
    <path d="M78.7223 57.7455C78.7223 64.3346 61.0997 69.6761 39.3611 69.6761C17.6226 69.6761 0 64.3346 0 57.7455C0 51.1564 17.6226 45.8149 39.3611 45.8149C61.0997 45.8149 78.7223 51.1564 78.7223 57.7455ZM2.9778 57.7455C2.9778 63.8361 19.2672 68.7735 39.3611 68.7735C59.4551 68.7735 75.7445 63.8361 75.7445 57.7455C75.7445 51.6549 59.4551 46.7175 39.3611 46.7175C19.2672 46.7175 2.9778 51.6549 2.9778 57.7455Z" fill="url(#paint0_linear_1319_2757)"/>
    <path fill-rule="evenodd" clip-rule="evenodd" d="M42.7585 4.93617C43.0672 4.47531 42.7972 3.76561 42.3187 3.37224C42.3187 3.37224 41.2856 2.59642 40.361 1.99239C39.5123 1.43813 38.3915 0.827282 38.3915 0.827282C37.8246 0.548448 37.2266 0.660936 36.9179 1.1218L32.9369 7.46136L38.8984 10.3452L42.7585 4.93617ZM49.3846 8.3053C49.3846 8.3053 48.3957 7.41835 47.5015 6.71547C46.6811 6.0719 45.5873 5.34584 45.5873 5.34584C45.0307 5.00906 44.4071 5.0711 44.048 5.51628L39.989 10.8714L44.3975 13.0032C44.6336 13.1171 44.7918 13.3441 44.818 13.6025L44.8878 14.3081C44.9237 14.6755 44.9451 15.0798 44.9513 15.493L49.694 9.94899C50.053 9.5045 49.8403 8.75253 49.3846 8.3053ZM43.1047 21.3024C42.8637 20.8163 42.6441 20.2443 43.0419 19.821L51.0391 10.5138C51.4362 10.0904 52.0452 10.0495 52.5417 10.3958C52.5417 10.3958 53.5119 11.1389 54.2273 11.7941C55.0077 12.5086 55.8577 13.4064 55.8577 13.4064C56.2444 13.8571 56.3618 14.5981 55.9641 15.0215L47.1575 23.5897C46.6797 24.0185 46.2902 23.9299 45.6321 23.6456C45.6321 23.6456 45.003 23.3517 44.2759 22.7041C43.5487 22.0564 43.1047 21.3024 43.1047 21.3024ZM48.1891 24.3159C47.8349 24.6316 47.993 25.1354 48.1726 25.569C48.1726 25.569 48.5109 26.2494 49.0917 26.8684C49.6724 27.4874 50.1883 27.7997 50.1883 27.7997C50.7283 28.1058 51.0515 28.2203 51.4741 27.9087L59.2828 21.5937C59.637 21.2781 59.5735 20.642 59.269 20.2234C59.269 20.2234 58.5964 19.3808 57.9735 18.6997C57.4024 18.0752 56.6214 17.3505 56.6214 17.3505C56.2195 17.0083 55.7057 16.9803 55.3515 17.2967L48.1891 24.3159ZM51.8161 29.0151L57.3784 24.5545C57.6263 25.0849 57.6657 25.8082 57.116 27.8964C56.6141 29.8035 56.1421 30.6886 55.2933 32.2803C55.0643 32.7097 54.8079 33.1905 54.5161 33.7567C53.0321 36.6343 50.7872 39.3272 50.7872 39.3272L50.1622 59.9058L50.109 61.6592H45.7786H28.2588C28.0309 61.6592 27.8168 61.5583 27.6739 61.3852C27.5289 61.2113 27.4729 60.9843 27.5171 60.7641L32.1597 38.2405L21.3022 21.1171C21.1413 20.8635 21.1503 20.5383 21.3229 20.2935L29.9237 8.12163C30.1378 7.81962 30.5424 7.71667 30.876 7.87825L43.1884 13.8333C43.4246 13.9472 43.5827 14.1749 43.6089 14.4326C43.6283 14.6316 43.6497 14.9091 43.6621 15.2207C43.6925 16.1015 43.051 16.8459 42.4923 17.3109C41.5159 18.1242 40.2094 18.551 38.9747 18.4399C38.0721 18.3574 35.9328 17.1323 34.7955 16.3803C34.4661 16.1587 34.0131 16.2358 33.768 16.5535L31.6093 19.4134C31.4809 19.5845 31.4318 19.8013 31.4747 20.0099C31.5189 20.2185 31.6507 20.3992 31.8365 20.5056C31.8393 20.5069 32.8067 21.0612 34.1443 21.8527C35.3334 22.5556 37.8746 24.9417 39.36 27.4158C39.831 28.2003 39.9509 28.344 40.0244 28.5085C40.0991 28.6756 40.1259 28.8641 40.4245 29.7678C40.4534 29.9533 40.4829 30.0483 40.5138 30.1479C40.5427 30.2408 40.5727 30.3376 40.6047 30.5157C40.7268 30.9632 40.7965 31.2387 40.8301 31.3932C40.9366 31.5597 41.0666 31.6978 41.2131 31.7243C41.2248 31.7262 41.2366 31.7282 41.2483 31.7301C41.6352 31.794 42.0198 31.8576 42.0929 31.4646C42.2168 30.8587 42.2054 30.8051 42.1466 30.529C42.1313 30.4574 42.1129 30.3709 42.0929 30.2559C42.062 30.079 42.0326 29.9864 42.0041 29.8965C41.9745 29.8034 41.9459 29.7132 41.9175 29.5353C41.7825 29.0768 41.747 28.887 41.6893 28.7042C41.5936 28.4007 41.4365 28.1165 40.661 26.6542C39.1632 24.1618 36.4853 21.4968 34.9212 20.5724C34.2866 20.1961 33.7341 19.8722 33.3267 19.6363L34.5579 18.0049C35.5876 18.6417 37.6205 19.815 38.8345 19.9261C39.8807 20.0093 40.9414 19.845 41.846 19.395L41.6726 19.5893C41.1233 20.3946 41.6229 21.1725 41.9457 21.675C42.0136 21.7809 42.0738 21.8745 42.1146 21.9536C42.1367 21.9904 42.6539 22.8385 43.4881 23.5823C44.3161 24.3213 45.0411 24.6744 45.0915 24.699L45.0943 24.7002C45.4157 24.8432 45.8255 25.0255 46.2848 25.0255C46.4706 25.0255 46.6639 24.9935 46.8628 24.9192C46.764 25.4721 46.9823 26.027 47.1017 26.3188C47.1176 26.3522 47.5078 27.1369 48.181 27.8555C48.8391 28.5563 49.424 28.9135 49.5069 28.9633L49.5092 28.9646C49.7998 29.1261 50.2098 29.354 50.6926 29.354C51.0061 29.354 51.4529 29.2831 51.8161 29.0151ZM40.5226 30.7017C40.5226 30.7017 40.5495 30.7814 40.588 30.8922C40.5455 30.7794 40.5226 30.7017 40.5226 30.7017Z" fill="#A3171D"/>
    <defs>
        <linearGradient id="paint0_linear_1319_2757" x1="39.2869" y1="45.9584" x2="39.3593" y2="61.6589" gradientUnits="userSpaceOnUse">
            <stop stop-color="#A3171D" stop-opacity="0"/>
            <stop offset="1" stop-color="#A3171D"/>
        </linearGradient>
    </defs>
</svg>
