<?xml version="1.0" encoding="utf-8"?>
<!-- Generator: Adobe Illustrator 26.5.0, SVG Export Plug-In . SVG Version: 6.00 Build 0)  -->
<svg version="1.2" baseProfile="tiny" id="Layer_1" xmlns="http://www.w3.org/2000/svg" xmlns:xlink="http://www.w3.org/1999/xlink"
	 x="0px" y="0px" viewBox="0 0 232.4 225.3" overflow="visible" xml:space="preserve">
<g id="K7hRKn.tif">
	<g>
		<g>
			<path fill="#0CA656" d="M219,125.4c0.7,0.5,0.4,1.3,0.4,2c0,22.4,0,44.8,0,67.2c0,1,0,1.8-1.2,2.4c-16.5,8.3-33,16.7-49.5,25.1
				c-0.1,0.1-0.3,0.1-0.4,0.1c-0.7-0.5-0.5-1.3-0.5-2c0-23,0-46,0-69c16.3-8.2,32.7-16.3,49-24.5C217.6,126.3,218.4,126.1,219,125.4
				z"/>
			<path fill="#2BB567" d="M167.8,151.2c0,23,0,46,0,69c0,0.7-0.2,1.5,0.5,2c-0.7,0.8-1.2,0-1.7-0.2c-16.8-8.5-33.6-17.1-50.4-25.6
				c0-23.6,0-47.2,0-70.8c0,0,0.1-0.1,0.1-0.1l0.2,0l0.2,0c0.4,0.7,1.2,0.8,1.8,1.1C134.8,134.8,151.3,143,167.8,151.2z"/>
			<path fill="#F89A27" d="M116.1,125.5c0,23.6,0,47.2,0,70.8c-16.8,8.6-33.7,17.1-50.5,25.7c-0.2,0.1-0.4,0.1-0.6,0.2
				c-0.8-0.6-0.5-1.5-0.5-2.2c0-22.9,0-45.8,0-68.8c16.3-8.2,32.7-16.3,49-24.5c0.8-0.4,1.5-0.8,2.2-1.3l0.2,0
				C116,125.4,116.1,125.5,116.1,125.5z"/>
			<path fill="#FAA834" d="M64.6,151.2c0,22.9,0,45.8,0,68.8c0,0.8-0.3,1.6,0.5,2.2c-0.7,0.7-1.2,0-1.7-0.3
				c-16.3-8.2-32.5-16.5-48.8-24.7c-1.3-0.6-1.7-1.4-1.7-2.8c0-22.3,0-44.7,0.1-67c0-0.7-0.3-1.4,0.4-2c0.6,0.7,1.4,0.9,2.2,1.3
				C31.9,134.9,48.3,143.1,64.6,151.2z"/>
			<path fill="#ED1C79" d="M116.1,125.5l-0.2-0.1c0,0-0.2,0-0.2,0c-0.7-0.4-1.4-0.9-2.2-1.3c-16.3-8.2-32.7-16.4-49-24.6
				c0-23,0-46,0-69c0-0.7-0.4-1.4,0.4-2c0.5,0.7,1.4,0.9,2.2,1.3c16.3,8.2,32.7,16.4,49,24.5c0,4.3,0,8.6,0,12.9
				c0,19.3,0,38.6,0.1,58L116.1,125.5z"/>
			<path fill="#CE1E6A" d="M116.2,125.4c0-19.3,0-38.6-0.1-58c0-4.3,0-8.6,0-12.9c1.1-0.5,2.1-1.1,3.2-1.6
				c15.3-7.6,30.5-15.3,45.8-22.9c0.8-0.4,1.6-0.6,2.2-1.3c0.7,0.6,0.4,1.3,0.4,2c0,23,0,46,0,69c-8,4-16.1,8.1-24.1,12.1
				c-9,4.6-18,9.1-27.1,13.7l-0.2,0L116.2,125.4z"/>
			<path fill="#F0537E" d="M167.4,28.7c-0.6,0.7-1.4,0.9-2.2,1.3c-15.3,7.6-30.5,15.3-45.8,22.9c-1.1,0.5-2.1,1.1-3.2,1.6
				c-16.3-8.2-32.7-16.3-49-24.5c-0.8-0.4-1.6-0.6-2.2-1.3c7.9-4.1,15.7-8.1,23.6-12.2c8.7-4.4,17.3-8.8,26-13.2
				c0.9-0.5,1.7-0.8,2.8-0.2c16.4,8.4,32.9,16.8,49.3,25.1C166.9,28.3,167.2,28.5,167.4,28.7z"/>
			<path fill="#FFCD35" d="M64.6,99.6c16.3,8.2,32.7,16.4,49,24.6c0.8,0.4,1.5,0.8,2.2,1.3c-0.7,0.4-1.5,0.9-2.2,1.3
				c-16.3,8.2-32.7,16.3-49,24.5c-16.3-8.2-32.7-16.3-49-24.5c-0.8-0.4-1.6-0.6-2.2-1.3c0.7-0.4,1.4-0.9,2.2-1.3
				C31.9,116,48.3,107.8,64.6,99.6z"/>
			<path fill="#5BBA48" d="M116.6,125.4c9-4.6,18-9.1,27.1-13.7c8-4,16.1-8.1,24.1-12.1c16.3,8.2,32.7,16.3,49,24.5
				c0.8,0.4,1.5,0.8,2.2,1.3c-0.5,0.7-1.4,0.9-2.2,1.3c-16.3,8.2-32.7,16.4-49,24.5c-16.5-8.2-32.9-16.5-49.4-24.7
				C117.8,126.2,117,126.1,116.6,125.4z"/>
		</g>
	</g>
</g>
</svg>
