<?xml version="1.0" encoding="utf-8"?>
<!-- Generator: Adobe Illustrator 28.0.0, SVG Export Plug-In . SVG Version: 6.00 Build 0)  -->
<svg version="1.1" id="Calque_1" xmlns="http://www.w3.org/2000/svg" xmlns:xlink="http://www.w3.org/1999/xlink" x="0px" y="0px"
	 viewBox="0 0 2000 2000" style="enable-background:new 0 0 2000 2000;" xml:space="preserve">
<style type="text/css">
	.st0{fill:#0156FB;}
	.st1{fill:#0155FB;}
</style>
<path class="st0" d="M1744.51,932.18v-2.86c0.27-1.25,0.16-2.54,0-3.84V297.13c0.14-1.19,0-4.58,0-4.58
	c-0.03-11.79-0.02-23.53-4.56-34.77c-16.19-40.09-49.31-62.6-92.41-62.6H548.9c-68.19,0-136.38,0.43-204.57-0.18
	c-34.17-0.31-58.41,15.69-77.92,41.95c-10.02,13.5-12.34,29.06-14.09,44.97v685.53c0,0,0.93,49.66,2.44,72.82
	c0.01,0.15,0.02,0.29,0.03,0.43c1.03,20.43,3.11,40.78,5.97,61.08c8.75,62.14,22.75,122.94,45.57,181.55
	c19.98,51.3,47.58,98.35,79.04,143.34c43.29,61.93,93.49,117.7,150.13,167.54c66.7,58.69,139.93,107.67,220.66,145.21
	c2.89,1.35,5.79,2.67,8.7,3.99c0,0,0.03,0.01,0.08,0.04c2.68,1.39,70.34,36.21,152.15,51.73c8.27,1.69,17.04,3.16,25.94,4.16
	c0.04,0.01,0.08,0.02,0.12,0.02c12.88,1.67,25.96,2.76,39.07,3.08l0.03,0.1c0,0,44.45,2.23,85.19-6.42
	c0.03-0.01,0.06-0.01,0.09-0.02c4.64-0.9,9.27-1.84,13.88-2.84c0.05-0.01,0.11-0.02,0.17-0.03c33.21-6.55,60.79-15.43,73.8-19.96
	c0.07-0.03,0.15-0.05,0.22-0.08c15.54-5.09,30.9-10.84,46.35-17.28c0.19-0.07,0.38-0.15,0.57-0.23
	c17.47-7.11,34.71-14.88,51.74-23.24c29.86-14.67,58.64-30.8,86.38-48.37c0.02-0.01,0.03-0.02,0.05-0.03
	c4.55-2.69,8.25-5.08,11.18-7.2c59.76-39.08,114.58-84.91,164.8-137.08c31.98-33.22,61.17-68.6,88.51-105.67
	c59.57-80.77,99.43-170.09,118.58-268.69c5.36-27.62,10.14-55.29,13.67-83.1c0.01-0.05,0.01-0.09,0.02-0.14
	c0.16-1.13,0.31-2.33,0.46-3.62c0.02-0.15,0.03-0.3,0.05-0.45c2.42-19.74,4.19-39.54,5.08-59.45c1.96-33.5,1.43-52.69,1.43-52.69
	C1744.57,954.7,1744.48,943.44,1744.51,932.18z"/>
<path d="M998.73,261.45c213.3,0,426.61,0.01,639.91-0.05c9.13,0,17.96,0.55,25.55,6.4c7.71,5.94,12.43,13.57,13.14,23.43
	c0.16,2.24,0.29,4.48,0.29,6.73c-0.16,219.78,0.4,439.56-0.86,659.33c-0.5,88.04-11.74,175.03-37.4,259.78
	c-23.97,79.17-66.03,148.25-117.42,212.04c-93.04,115.49-206.48,204.45-343.91,261.65c-53.84,22.41-109.71,37.61-167.7,44.3
	c-26.63,3.07-52.53-3.38-78.21-8.93c-121.79-26.3-228.4-83.54-324.31-161.67c-86.17-70.2-157.78-153-211.21-250.82
	c-32.05-58.67-50.11-122.16-61.75-187.64c-12.86-72.35-16.68-145.44-16.71-218.76c-0.08-202.38,0.1-404.75,0.2-607.13
	c0.01-26.07,12.66-38.65,38.78-38.66C571,261.44,784.87,261.45,998.73,261.45z"/>
<path class="st1" d="M998.39,360.63c185.54,0,371.09,0,556.63,0.01c3.37,0,6.76-0.13,10.09,0.27c7.37,0.87,11.5,5.31,12.6,12.53
	c0.33,2.2,0.16,4.48,0.16,6.73c0.08,177.13,0.16,354.26,0.23,531.39c0.01,14.04-6.96,21.33-17.97,18.91
	c-4.02-0.88-6.9-3.63-10.02-5.97c-129.31-96.94-258.61-193.89-387.91-290.85c-76.77-57.57-153.57-115.1-230.24-172.8
	c-6.41-4.83-12.96-6.93-20.96-6.84c-26.94,0.31-53.89,0.12-80.84,0.12c-2.25,0-4.5-0.08-6.73,0.09
	c-6.99,0.52-12.57,3.37-14.75,10.45c-2.18,7.07,0.64,12.65,6.28,16.9c18.16,13.67,36.36,27.27,54.56,40.89
	c218.63,163.5,437.09,327.21,656.05,490.26c34.78,25.89,45.64,57.79,38.28,99.82c-19.12,109.11-69.02,202.45-141.53,284.71
	c-80.18,90.97-175.05,161.26-289.16,204.19c-42.45,15.97-86.23,26.87-131.43,30.63c-18.45,1.54-36.81-3.21-54.92-6.92
	c-114.49-23.48-212.79-78.67-299.99-154.86C579.9,1411.8,524,1344.1,482.58,1265.13c-28.56-54.45-43.96-113.16-53.46-173.58
	c-12.48-79.38-12.14-159.37-11.55-239.38c0.05-6.95,2.06-12.73,8.77-15.92c7.23-3.44,12.82-0.06,18.47,4.18
	c129.29,96.96,258.62,193.88,387.96,290.77c132.49,99.25,265,198.47,397.5,297.69c10.94,8.2,15.45,8.22,26.1-0.06
	c14.19-11.02,27.95-22.56,41.1-34.82c12.83-11.96,12.39-19.73-1.89-30.39c-169.23-126.48-338.47-252.94-507.69-379.44
	c-111.69-83.49-223.27-167.12-335.04-250.51c-23.86-17.8-35.35-41.16-35.31-70.75c0.11-93.76,0.04-187.52,0.05-281.27
	c0-16.68,4.28-21.01,20.82-21.01C625.08,360.63,811.74,360.63,998.39,360.63z"/>
</svg>
