<svg width="2048" height="2048" viewBox="0 0 2048 2048" fill="none" xmlns="http://www.w3.org/2000/svg">
    <path fillRule="evenodd" clipRule="evenodd"
          d="M 128 0 L 1920 0 L 1920 973.748 C 1920 1118.62 1885.88 1346.52 1762.08 1558.57 C 1637.12 1772.57 1422.34 1967.49 1024 2048 C 625.7 1967.5 410.9 1772.6 285.9 1558.6 C 162.1 1346.5 128 1118.6 128 973.7 L 128 0 Z M 1856 64 L 1856 973.7 C 1856 1247.4 1734.9 1834.7 1024 1984 C 313.1 1834.7 192 1247.4 192 973.7 L 192 64 L 1856 64 Z"
          fill="#00B6FA"></path>
    <path d="M 1856 64 L 192 64 L 192 973.7 C 192 1247.4 313.1 1834.7 1024 1987.2 C 1734.9 1834.7 1856 1247.4 1856 973.7 L 1856 64 Z"
          fill="#142D51"></path>
    <path d="M 1651.2 301.057 L 396.799 301.057 L 396.799 714.1 L 1249.199 1414 L 1169.499 1479.5 L 396.799 845 L 396.799 975.944 C 396.799 1249.644 547.199 1667.444 1023.999 1746.944 C 1429.502 1679.365 1598.921 1367.041 1640.522 1106.756 C 1641.418 1101.152 798.799 406.9 798.799 406.9 L 958.199 406.9 L 1651.199 975.9 L 1651.2 301.057 Z"
          fill="#10A0EC"></path>
</svg>
