<svg xmlns:xlink="http://www.w3.org/1999/xlink" xmlns="http://www.w3.org/2000/svg" viewBox="0 0 180.124 50.271" class="icon" width="180.124"  height="50.271" ><defs><g id="logo" viewBox="0 0 180.124 50.271">
            <defs>
                <linearGradient id="linear-gradient" x1="-0.358" y1="0.505" x2="2.518" y2="0.505" gradientUnits="objectBoundingBox">
                <stop offset="0" stop-color="#01aae4"></stop>
                <stop offset="1" stop-color="#1f96f4"></stop>
                </linearGradient>
                <linearGradient id="linear-gradient-2" x1="-93.061" y1="0.544" x2="24.368" y2="0.544" xlink:href="#linear-gradient"></linearGradient>
            <linearGradient id="linear-gradient" x1="-0.358" y1="0.505" x2="2.518" y2="0.505" gradientUnits="objectBoundingBox">
                <stop offset="0" stop-color="#01aae4"></stop>
                <stop offset="1" stop-color="#1f96f4"></stop>
                </linearGradient><linearGradient id="linear-gradient-2" x1="-93.061" y1="0.544" x2="24.368" y2="0.544" xlink:href="#linear-gradient"></linearGradient><linearGradient id="linear-gradient" x1="-0.358" y1="0.505" x2="2.518" y2="0.505" gradientUnits="objectBoundingBox">
                <stop offset="0" stop-color="#01aae4"></stop>
                <stop offset="1" stop-color="#1f96f4"></stop>
                </linearGradient><linearGradient id="linear-gradient-2" x1="-93.061" y1="0.544" x2="24.368" y2="0.544" xlink:href="#linear-gradient"></linearGradient></defs>
            <g transform="translate(1.234)">
                <path id="Path" d="M.64.212H0V0H1.547V.212H.907v1.91H.64Z" transform="translate(44.716)" fill="#119FED"></path>
                <path id="Path-2" data-name="Path" d="M1.814,1.167c0-.318-.053-.637-.053-.9a4.649,4.649,0,0,1-.267.8L1.121,2.069H.907L.587,1.061a4.4,4.4,0,0,1-.213-.8A6.057,6.057,0,0,1,.32,1.22l-.053.9H0L.16,0H.534L.907,1.008a4.905,4.905,0,0,1,.213.69,4.905,4.905,0,0,1,.213-.69L1.654,0h.374l.107,2.122H1.868Z" transform="translate(46.583)" fill="#119FED"></path>
                <path id="Path-3" data-name="Path" d="M40.867,0V16.9c0,3.518.322,10.074-2.681,15.138-3.861,6.45-10.884,11.354-17.748,11.94-6.863-.64-13.887-5.544-17.748-11.993C-.312,26.972.01,20.362.01,16.844V0Z" transform="translate(0.055 5.305)" fill="#142D51"></path>
                <path id="Path-4" data-name="Path" d="M40.974,0V16.951c0,3.518.322,10.128-2.734,15.138-3.861,6.45-10.938,11.354-17.748,11.94-6.863-.586-13.941-5.49-17.8-11.94C-.312,27.025.01,20.469.01,16.951V0Z" transform="translate(0 5)" fill="none" stroke="#00B6FA" stroke-miterlimit="10" stroke-width="2.475px"></path>
                <path id="Path-5" data-name="Path" d="M3.651,7.364l-1.9-1.42A11.725,11.725,0,0,1,0,7.416L1.852,8.784v.158a18.57,18.57,0,0,0,4.656-5.26A13.162,13.162,0,0,0,7.883.053V0A11.594,11.594,0,0,1,6.455,3.682,15.81,15.81,0,0,1,3.651,7.364Z" transform="translate(26.609 30.004)" fill="#00B6FA"></path>
                <path id="Path-6" data-name="Path" d="M3.67,7.364l-1.9-1.42A11.977,11.977,0,0,1,0,7.43L1.871,8.784v.158a18.57,18.57,0,0,0,4.656-5.26A13.16,13.16,0,0,0,7.9.053V0A11.594,11.594,0,0,1,6.474,3.682,15.811,15.811,0,0,1,3.67,7.364Z" transform="translate(26.591 30.004)" fill="#00B6FA"></path>
                <path id="Path-7" data-name="Path" d="M6.137,0A14.988,14.988,0,0,1,0,2.1,14.5,14.5,0,0,0,6.137,0Z" transform="translate(20.475 40.207)" fill="#142D51"></path>
                <path id="Path-8" data-name="Path" d="M6.137,0A14.988,14.988,0,0,1,0,2.1,14.5,14.5,0,0,0,6.137,0Z" transform="translate(20.475 40.207)" fill="url(&quot;#linear-gradient&quot;)"></path>
                <path id="Path-9" data-name="Path" d="M0,0,3.174,2.367H6.825L3.651,0Z" transform="translate(11.742 10.49)" fill="#00B6FA"></path>
                <path id="Path-10" data-name="Path" d="M0,0,3.174,2.367H6.825L3.651,0Z" transform="translate(11.742 10.49)" fill="#00B6FA"></path>
                <path id="Path-11" data-name="Path" d="M3.6,0H0V8.678L22.538,25.457a19.074,19.074,0,0,0,4.444-6.732c.106-.368.212-.473.423-.473.37,0,.846.473,1.323,1.052v.21a12.209,12.209,0,0,0,.317-1.841V17.2L9.1,2.367H3.6Z" transform="translate(5.819 10.491)" fill="#00B6FA"></path>
                <path id="Path-12" data-name="Path" d="M3.6,0H0V8.678L22.538,25.457c2.851-2.577,4.438-6,4.444-6.732.106-.368.212-.473.423-.473.37,0,.846.473,1.323,1.052v.21a12.209,12.209,0,0,0,.317-1.841V17.2L9.1,2.367H3.6Z" transform="translate(5.819 10.491)" fill="#00B6FA"></path>
                <path id="Path-13" data-name="Path" d="M4.867,0c-.212,0-.317.105-.423.473A17.191,17.191,0,0,1,0,7.206l1.9,1.42A17.647,17.647,0,0,0,4.762,4.944,12.1,12.1,0,0,0,6.19,1.262v-.21C5.714.473,5.238,0,4.867,0Z" transform="translate(28.354 28.741)" fill="#00B6FA"></path>
                <path id="Path-14" data-name="Path" d="M4.867,0c-.212,0-.317.105-.423.473A17.191,17.191,0,0,1,0,7.206l1.9,1.42A17.647,17.647,0,0,0,4.762,4.944,12.1,12.1,0,0,0,6.19,1.262v-.21C5.714.473,5.238,0,4.867,0Z" transform="translate(28.354 28.741)" fill="#00B6FA"></path>
                <path id="Path-15" data-name="Path" d="M4.867,0c-.212,0-.317.105-.423.473A17.191,17.191,0,0,1,0,7.206l1.9,1.42A17.647,17.647,0,0,0,4.762,4.944,12.1,12.1,0,0,0,6.19,1.262v-.21C5.714.473,5.238,0,4.867,0Z" transform="translate(28.354 28.741)" fill="#00B6FA"></path>
                <path id="Path-16" data-name="Path" d="M0,0V2.367H5.5L2.328,0Z" transform="translate(9.416 10.49)" fill="#00B6FA"></path>
                <path id="Path-17" data-name="Path" d="M0,0V2.367H5.5L2.328,0Z" transform="translate(9.416 10.49)" fill="#00B6FA"></path>
                <path id="Path-18" data-name="Path" d="M0,0V2.367H5.5L2.328,0Z" transform="translate(9.416 10.49)" fill="#00B6FA"></path>
                <path id="Path-19" data-name="Path" d="M16.454,0H14.126V2.367H0L16.454,14.622V0Z" transform="translate(18.568 10.49)" fill="#00B6FA"></path>
                <path id="Path-20" data-name="Path" d="M16.454,0H14.126V2.367H0L16.454,14.622V0Z" transform="translate(18.568 10.49)" fill="#00B6FA"></path>
                <path id="Path-21" data-name="Path" d="M17.3,0H0L3.174,2.367H17.3Z" transform="translate(15.393 10.49)" fill="#00B6FA"></path>
                <path id="Path-22" data-name="Path" d="M17.3,0H0L3.174,2.367H17.3Z" transform="translate(15.393 10.49)" fill="#00B6FA"></path>
                <path id="Path-23" data-name="Path" d="M17.3,0H0L3.174,2.367H17.3Z" transform="translate(15.393 10.49)" fill="#00B6FA"></path>
                <path id="Path-24" data-name="Path" d="M.32.239C.267.239.267.292.214.292A.165.165,0,0,0,.32.239Z" transform="translate(26.395 39.915)" fill="#142D51"></path>
                <path id="Path-25" data-name="Path" d="M.32.239C.267.239.267.292.214.292A.165.165,0,0,0,.32.239Z" transform="translate(26.395 39.915)" fill="url(&quot;#linear-gradient-2&quot;)"></path>
                <path id="Path-26" data-name="Path" d="M15.454,17.83a13.21,13.21,0,0,0,5.4-2.367L.006,0V.736c0,2.525-.212,7.311,1.958,10.94a17.946,17.946,0,0,0,10.793,8.31C12.016,19.2,12.439,18.356,15.454,17.83Z" transform="translate(5.811 22.009)" fill="#00B6FA"></path>
                <path id="Path-27" data-name="Path" d="M15.454,17.83a10.163,10.163,0,0,0,5.4-2.367L.006,0V.736c0,2.525-.212,7.311,1.958,10.94a17.946,17.946,0,0,0,10.793,8.31C12.016,19.2,12.439,18.356,15.454,17.83Z" transform="translate(5.811 22.009)" fill="#00B6FA"></path>
                <path id="Path-28" data-name="Path" d="M8.412,0a12.9,12.9,0,0,1-5.4,2.367C0,2.893-.423,3.734.317,4.523a2.671,2.671,0,0,0,.635.105,10.656,10.656,0,0,0,1.27.21,15.254,15.254,0,0,0,6.137-2.1c.053,0,.053-.053.106-.053A4.411,4.411,0,0,0,9.1,2.262c.423-.263.794-.579,1.217-.842V1.368Z" transform="translate(18.249 37.472)" fill="#00B6FA"></path>
                <path id="Path-29" data-name="Path" d="M8.412,0a12.9,12.9,0,0,1-5.4,2.367C0,2.893-.423,3.734.317,4.523a2.671,2.671,0,0,0,.635.105,10.656,10.656,0,0,0,1.27.21,15.254,15.254,0,0,0,6.137-2.1c.053,0,.053-.053.106-.053A4.411,4.411,0,0,0,9.1,2.262c.423-.263.794-.607,1.217-.87V1.368Z" transform="translate(18.249 37.472)" fill="#00B6FA"></path>
                <path id="Path-30" data-name="Path" d="M8.412,0a12.9,12.9,0,0,1-5.4,2.367C0,2.893-.423,3.734.317,4.523a2.671,2.671,0,0,0,.635.105,10.656,10.656,0,0,0,1.27.21,15.254,15.254,0,0,0,6.137-2.1c.053,0,.053-.053.106-.053A4.411,4.411,0,0,0,9.1,2.262c.423-.263.794-.608,1.217-.87V1.368Z" transform="translate(18.249 37.472)" fill="#00B6FA"></path>
            </g>
            <path d="M8.346,24.26a10.2,10.2,0,0,1-3.978-.7,5.947,5.947,0,0,1-2.522-1.846,4.33,4.33,0,0,1-.91-2.47.533.533,0,0,1,.546-.546H3.8a.839.839,0,0,1,.481.117,1.2,1.2,0,0,1,.325.377,2.651,2.651,0,0,0,1.2,1.482,4.7,4.7,0,0,0,2.548.6,5.134,5.134,0,0,0,2.782-.611,1.926,1.926,0,0,0,.936-1.7,1.6,1.6,0,0,0-.481-1.2,3.928,3.928,0,0,0-1.43-.806q-.949-.338-2.821-.832a10.828,10.828,0,0,1-4.485-1.937A4.28,4.28,0,0,1,1.43,10.74a4.555,4.555,0,0,1,.819-2.678A5.472,5.472,0,0,1,4.615,6.216a8.928,8.928,0,0,1,3.6-.676,8.4,8.4,0,0,1,3.692.754,6.171,6.171,0,0,1,2.379,1.885,4.168,4.168,0,0,1,.871,2.249.533.533,0,0,1-.546.546H12.194a.754.754,0,0,1-.754-.494A2.106,2.106,0,0,0,10.4,9.089,4.009,4.009,0,0,0,8.216,8.53a4.137,4.137,0,0,0-2.288.546A1.78,1.78,0,0,0,5.1,10.662a1.733,1.733,0,0,0,.416,1.2,3.5,3.5,0,0,0,1.313.832,22.293,22.293,0,0,0,2.587.806,17.984,17.984,0,0,1,3.653,1.17A4.8,4.8,0,0,1,15.08,16.3a4.5,4.5,0,0,1,.65,2.522,4.708,4.708,0,0,1-.923,2.9,5.733,5.733,0,0,1-2.6,1.885A10.635,10.635,0,0,1,8.346,24.26Zm11-.26a.621.621,0,0,1-.624-.624V6.45a.661.661,0,0,1,.169-.468.591.591,0,0,1,.455-.182h11.44a.623.623,0,0,1,.65.65V8.166a.591.591,0,0,1-.182.455.66.66,0,0,1-.468.169H22.23v4.6h7.982a.661.661,0,0,1,.468.169.591.591,0,0,1,.182.455v1.612a.591.591,0,0,1-.182.455.66.66,0,0,1-.468.169H22.23V21.01h8.762a.623.623,0,0,1,.65.65v1.716a.591.591,0,0,1-.182.455.66.66,0,0,1-.468.169Zm16.172,0a.621.621,0,0,1-.624-.624V6.45a.661.661,0,0,1,.169-.468.591.591,0,0,1,.455-.182h2a.776.776,0,0,1,.468.117,1.35,1.35,0,0,1,.286.3L45.76,17.864V6.45a.661.661,0,0,1,.169-.468.591.591,0,0,1,.455-.182h2.184a.623.623,0,0,1,.65.65v16.9a.634.634,0,0,1-.182.468.6.6,0,0,1-.442.182H46.566a.92.92,0,0,1-.754-.416L38.35,12.2v11.18a.591.591,0,0,1-.182.455A.661.661,0,0,1,37.7,24ZM57.9,24a.621.621,0,0,1-.624-.624V9h-4.81a.621.621,0,0,1-.624-.624V6.45a.661.661,0,0,1,.169-.468.591.591,0,0,1,.455-.182h13.26a.623.623,0,0,1,.65.65V8.374a.6.6,0,0,1-.182.442A.633.633,0,0,1,65.728,9H60.944V23.376a.6.6,0,0,1-.182.442.634.634,0,0,1-.468.182Zm11.726,0A.621.621,0,0,1,69,23.376V6.424a.591.591,0,0,1,.182-.455.626.626,0,0,1,.442-.169h2.444a.582.582,0,0,1,.624.624V23.376a.626.626,0,0,1-.169.442.591.591,0,0,1-.455.182ZM77.4,24a.621.621,0,0,1-.624-.624V6.45a.661.661,0,0,1,.169-.468A.591.591,0,0,1,77.4,5.8h2a.776.776,0,0,1,.468.117,1.35,1.35,0,0,1,.286.3l7.488,11.648V6.45a.66.66,0,0,1,.169-.468A.591.591,0,0,1,88.27,5.8h2.184a.623.623,0,0,1,.65.65v16.9a.634.634,0,0,1-.182.468A.6.6,0,0,1,90.48,24H88.452a.92.92,0,0,1-.754-.416L80.236,12.2v11.18a.591.591,0,0,1-.182.455.661.661,0,0,1-.468.169Zm18.382,0a.621.621,0,0,1-.624-.624V6.45a.661.661,0,0,1,.169-.468.591.591,0,0,1,.455-.182h11.44a.623.623,0,0,1,.65.65V8.166a.591.591,0,0,1-.182.455.66.66,0,0,1-.468.169H98.67v4.6h7.982a.66.66,0,0,1,.468.169.591.591,0,0,1,.182.455v1.612a.591.591,0,0,1-.182.455.66.66,0,0,1-.468.169H98.67V21.01h8.762a.623.623,0,0,1,.65.65v1.716a.591.591,0,0,1-.182.455.66.66,0,0,1-.468.169Zm16.172,0a.621.621,0,0,1-.624-.624V6.424a.591.591,0,0,1,.182-.455.626.626,0,0,1,.442-.169h2.418a.582.582,0,0,1,.624.624V20.906h8.242a.623.623,0,0,1,.65.65v1.82a.591.591,0,0,1-.182.455.661.661,0,0,1-.468.169Z" transform="translate(56.234 12)" fill="#FFFFFF"></path>
        </g></defs><use xlink:href="#logo"></use></svg>