<svg xmlns="http://www.w3.org/2000/svg" xmlns:xlink="http://www.w3.org/1999/xlink" id="_图层_1" data-name="图层 1" viewBox="0 0 360.55 380.1">
  <defs>
    <path id="reuse-0" d="m176.65 169.9-1.9 25.2 13.7 17.6 63.3-115.1c-44.7 6.8-72.4 53.2-75.1 72.3Z" class="cls-66"/>
    <path id="reuse-1" d="M176.75 252c-9.8-15.2-14.6-31.1-16.4-37.7-2.9-10.9-8.4-34.2-15.9-54-1.6-4.1-3.2-8.1-4.9-11.7-3.6-7.5-7.5-13.9-11.7-17.7-4.3-3.9-10.9-7.5-18.6-10.7-6.4-2.7-13.7-5.1-20.9-7.1-17.3-4.8-34.8-7.6-42.5-7.1-14.9 1-17.8-1-14.9 8.2 1.8 5.6 3.3 12.9 4.2 17.5-.2.1-.5.2-.7.3-2.6 1.1-4.6 2-6.3 2.8-9.6-21.1-14-30.1-14-34.9 0-3.7 2.7-4.8 7.7-7 17-3.5 79.6 8.1 98.3 18.3s31.6 20.6 39.9 71c8 49.1 16.3 69 16.7 69.8Z" class="cls-58"/>
    <path id="reuse-2" d="M307.55 82.6c-2.2-7.7-7.2-48.7-32.1-52.5-20.9-3.2-58.4-8.3-71.7-10.6-10.7-1.8-20.4 1.2-27.9 7-.6 1.7-1.1 3.2-1.8 4.8 0 0 9.2-3.4 28.4-3.7 19.2-.2 74.8 8.2 86.4 24 7.4 10.1 14.2 29.7 19.7 49.3.1 0 1.2-10.6-1-18.3Z" class="cls-3"/>
  </defs>
  <defs>
    <radialGradient id="radial-gradient" cx="102.6" cy="588.77" r="116.58" fx="102.6" fy="588.77" gradientTransform="translate(0 -413.89)" gradientUnits="userSpaceOnUse">
      <stop offset="0" stop-color="#3602e2"/>
      <stop offset="1" stop-color="#1d1141"/>
    </radialGradient>
    <radialGradient id="radial-gradient-2" cx="706.58" cy="469.83" r="3.11" fx="706.58" fy="469.83" gradientTransform="rotate(24.66 1076.14444793 -1153.03690178)" gradientUnits="userSpaceOnUse">
      <stop offset="0" stop-color="#2e00a7"/>
      <stop offset=".09" stop-color="#280091"/>
      <stop offset=".31" stop-color="#1a005e"/>
      <stop offset=".52" stop-color="#0f0035"/>
      <stop offset=".71" stop-color="#070018"/>
      <stop offset=".88" stop-color="#020006"/>
      <stop offset="1"/>
    </radialGradient>
    <radialGradient xlink:href="#radial-gradient-2" id="radial-gradient-3" cx="702.65" cy="479.62" r="5.33" fx="702.65" fy="479.62"/>
    <radialGradient xlink:href="#radial-gradient-2" id="radial-gradient-4" cx="725.66" cy="472.94" r="5.33" fx="725.66" fy="472.94"/>
    <radialGradient xlink:href="#radial-gradient-2" id="radial-gradient-5" cx="5662.64" cy="962.83" r="1.91" fx="5662.64" fy="962.83" gradientTransform="rotate(105.22 3186.8966617 -1503.40189907)"/>
    <radialGradient xlink:href="#radial-gradient-2" id="radial-gradient-6" cx="5643.93" cy="983.8" r="1.91" fx="5643.93" fy="983.8" gradientTransform="rotate(105.22 3186.8966617 -1503.40189907)"/>
    <radialGradient xlink:href="#radial-gradient-2" id="radial-gradient-7" cx="5651.9" cy="969.71" r="1.91" fx="5651.9" fy="969.71" gradientTransform="rotate(105.22 3186.8966617 -1503.40189907)"/>
    <radialGradient xlink:href="#radial-gradient-2" id="radial-gradient-8" cx="5642.24" cy="1050.96" r="5.33" fx="5642.24" fy="1050.96" gradientTransform="rotate(105.22 3186.8966617 -1503.40189907)"/>
    <radialGradient xlink:href="#radial-gradient-2" id="radial-gradient-9" cx="7049.93" cy="-3493.09" r="1.91" fx="7049.93" fy="-3493.09" gradientTransform="rotate(-176.64 3662.08170342 -1513.2669706)"/>
    <radialGradient xlink:href="#radial-gradient-2" id="radial-gradient-10" cx="7075.67" cy="-3425.06" r="1.91" fx="7075.67" fy="-3425.06" gradientTransform="rotate(-176.64 3662.08170342 -1513.2669706)"/>
    <radialGradient xlink:href="#radial-gradient-2" id="radial-gradient-11" cx="7062.96" cy="-3445.38" r="1.91" fx="7062.96" fy="-3445.38" gradientTransform="rotate(-176.64 3662.08170342 -1513.2669706)"/>
    <radialGradient xlink:href="#radial-gradient-2" id="radial-gradient-12" cx="7094.03" cy="-3435.28" r="1.91" fx="7094.03" fy="-3435.28" gradientTransform="rotate(-176.64 3662.08170342 -1513.2669706)"/>
    <radialGradient xlink:href="#radial-gradient-2" id="radial-gradient-13" cx="7113.35" cy="-3414.12" r="1.91" fx="7113.35" fy="-3414.12" gradientTransform="rotate(-176.64 3662.08170342 -1513.2669706)"/>
    <radialGradient xlink:href="#radial-gradient-2" id="radial-gradient-14" cx="7182.97" cy="-3400.76" r="1.91" fx="7182.97" fy="-3400.76" gradientTransform="rotate(-176.64 3662.08170342 -1513.2669706)"/>
    <radialGradient xlink:href="#radial-gradient-2" id="radial-gradient-15" cx="7176.55" cy="-3418.59" r="1.91" fx="7176.55" fy="-3418.59" gradientTransform="rotate(-176.64 3662.08170342 -1513.2669706)"/>
    <radialGradient xlink:href="#radial-gradient-2" id="radial-gradient-16" cx="7045.42" cy="-3512.52" r="1.91" fx="7045.42" fy="-3512.52" gradientTransform="rotate(-176.64 3662.08170342 -1513.2669706)"/>
    <radialGradient xlink:href="#radial-gradient-2" id="radial-gradient-17" cx="7115.31" cy="-3428.12" r="5.33" fx="7115.31" fy="-3428.12" gradientTransform="rotate(-176.64 3662.08170342 -1513.2669706)"/>
    <radialGradient xlink:href="#radial-gradient-2" id="radial-gradient-18" cx="7084.09" cy="-3408.09" r="5.33" fx="7084.09" fy="-3408.09" gradientTransform="rotate(-176.64 3662.08170342 -1513.2669706)"/>
    <radialGradient id="radial-gradient-19" cx="364.96" cy="426.95" r="448.06" fx="364.96" fy="426.95" gradientTransform="translate(0 -413.89)" gradientUnits="userSpaceOnUse">
      <stop offset="0" stop-color="#8a77e5"/>
      <stop offset="1" stop-color="#522ce5"/>
    </radialGradient>
    <radialGradient xlink:href="#radial-gradient-19" id="radial-gradient-20" r="448.06"/>
    <radialGradient xlink:href="#radial-gradient-19" id="radial-gradient-21" r="448.06"/>
    <radialGradient xlink:href="#radial-gradient" id="radial-gradient-22" cx="228.47" cy="489.88" r="144.56" fx="228.47" fy="489.88"/>
    <radialGradient xlink:href="#radial-gradient-2" id="radial-gradient-23" cx="-99.13" cy="444.55" r="3.84" fx="-99.13" fy="444.55" gradientTransform="rotate(-9.25 -2379.40857233 -1304.07870554)"/>
    <radialGradient xlink:href="#radial-gradient-2" id="radial-gradient-24" cx="-103.97" cy="456.63" r="6.58" fx="-103.97" fy="456.63" gradientTransform="rotate(-9.25 -2379.40857233 -1304.07870554)"/>
    <radialGradient xlink:href="#radial-gradient-2" id="radial-gradient-25" cx="-75.58" cy="448.4" r="6.58" fx="-75.58" fy="448.4" gradientTransform="rotate(-9.25 -2379.40857233 -1304.07870554)"/>
    <radialGradient xlink:href="#radial-gradient-2" id="radial-gradient-26" cx="5530.14" cy="1746.24" r="2.36" fx="5530.14" fy="1746.24" gradientTransform="rotate(71.31 4066.99937762 -2741.99465892)"/>
    <radialGradient xlink:href="#radial-gradient-2" id="radial-gradient-27" cx="5514.32" cy="1759.52" r="2.36" fx="5514.32" fy="1759.52" gradientTransform="rotate(71.31 4066.99937762 -2741.99465892)"/>
    <radialGradient xlink:href="#radial-gradient-2" id="radial-gradient-28" cx="5520" cy="1784.94" r="2.36" fx="5520" fy="1784.94" gradientTransform="rotate(71.31 4066.99937762 -2741.99465892)"/>
    <radialGradient xlink:href="#radial-gradient-2" id="radial-gradient-29" cx="5501.09" cy="1824.76" r="6.58" fx="5501.09" fy="1824.76" gradientTransform="rotate(71.31 4066.99937762 -2741.99465892)"/>
    <radialGradient xlink:href="#radial-gradient-2" id="radial-gradient-30" cx="7884.53" cy="-3136" r="2.36" fx="7884.53" fy="-3136" gradientTransform="rotate(149.44 3596.35917265 -2572.73816029)"/>
    <radialGradient xlink:href="#radial-gradient-2" id="radial-gradient-31" cx="7899.55" cy="-3151.26" r="2.36" fx="7899.55" fy="-3151.26" gradientTransform="rotate(149.44 3596.35917265 -2572.73816029)"/>
    <radialGradient xlink:href="#radial-gradient-2" id="radial-gradient-32" cx="7833.84" cy="-3146.5" r="2.36" fx="7833.84" fy="-3146.5" gradientTransform="rotate(149.44 3596.35917265 -2572.73816029)"/>
    <radialGradient xlink:href="#radial-gradient-2" id="radial-gradient-33" cx="7821" cy="-3126.9" r="2.36" fx="7821" fy="-3126.9" gradientTransform="rotate(149.44 3596.35917265 -2572.73816029)"/>
    <radialGradient xlink:href="#radial-gradient-2" id="radial-gradient-34" cx="7844.84" cy="-3100.79" r="2.36" fx="7844.84" fy="-3100.79" gradientTransform="rotate(149.44 3596.35917265 -2572.73816029)"/>
    <radialGradient xlink:href="#radial-gradient-2" id="radial-gradient-35" cx="7930.75" cy="-3084.3" r="2.36" fx="7930.75" fy="-3084.3" gradientTransform="rotate(149.44 3596.35917265 -2572.73816029)"/>
    <radialGradient xlink:href="#radial-gradient-2" id="radial-gradient-36" cx="7904.67" cy="-3132.92" r="2.36" fx="7904.67" fy="-3132.92" gradientTransform="rotate(149.44 3596.35917265 -2572.73816029)"/>
    <radialGradient xlink:href="#radial-gradient-2" id="radial-gradient-37" cx="7847.27" cy="-3118.06" r="6.58" fx="7847.27" fy="-3118.06" gradientTransform="rotate(149.44 3596.35917265 -2572.73816029)"/>
    <radialGradient xlink:href="#radial-gradient-2" id="radial-gradient-38" cx="7912.64" cy="-3119.97" r="6.58" fx="7912.64" fy="-3119.97" gradientTransform="rotate(149.44 3596.35917265 -2572.73816029)"/>
    <radialGradient xlink:href="#radial-gradient-19" id="radial-gradient-39" cx="364.96" cy="426.95" r="448.06" fx="364.96" fy="426.95"/>
    <radialGradient xlink:href="#radial-gradient-19" id="radial-gradient-40" r="448.06"/>
    <radialGradient xlink:href="#radial-gradient-19" id="radial-gradient-41" cy="426.95" r="448.06" fy="426.95"/>
    <radialGradient xlink:href="#radial-gradient" id="radial-gradient-42" cx="110.77" cy="698.29" r="87.47" fx="110.77" fy="698.29"/>
    <radialGradient xlink:href="#radial-gradient-2" id="radial-gradient-43" cx="823.89" cy="532.43" r="3.11" fx="823.89" fy="532.43"/>
    <radialGradient xlink:href="#radial-gradient-2" id="radial-gradient-44" cx="819.96" cy="542.22" r="5.33" fx="819.96" fy="542.22"/>
    <radialGradient xlink:href="#radial-gradient-2" id="radial-gradient-45" cx="809.73" cy="586.86" r="5.33" fx="809.73" fy="586.86"/>
    <radialGradient xlink:href="#radial-gradient-2" id="radial-gradient-46" cx="4395.58" cy="-281.82" r="1.91" fx="4395.58" fy="-281.82" gradientTransform="rotate(176.31 2244.54799034 -42.61671026)"/>
    <radialGradient xlink:href="#radial-gradient-2" id="radial-gradient-47" cx="4376.88" cy="-260.84" r="1.91" fx="4376.88" fy="-260.84" gradientTransform="rotate(176.31 2244.54799034 -42.61671026)"/>
    <radialGradient xlink:href="#radial-gradient-2" id="radial-gradient-48" cx="4384.85" cy="-274.93" r="1.91" fx="4384.85" fy="-274.93" gradientTransform="rotate(176.31 2244.54799034 -42.61671026)"/>
    <radialGradient xlink:href="#radial-gradient-2" id="radial-gradient-49" cx="5725.52" cy="964.05" r="5.34" fx="5725.52" fy="964.05" gradientTransform="rotate(105.22 3186.8966617 -1503.40189907)"/>
    <radialGradient xlink:href="#radial-gradient-2" id="radial-gradient-50" cx="7096.23" cy="-3535.99" r="1.91" fx="7096.23" fy="-3535.99" gradientTransform="rotate(-176.64 3662.08170342 -1513.2669706)"/>
    <radialGradient xlink:href="#radial-gradient-2" id="radial-gradient-51" cx="7115.71" cy="-3563.62" r="1.91" fx="7115.71" fy="-3563.62" gradientTransform="rotate(-176.64 3662.08170342 -1513.2669706)"/>
    <radialGradient xlink:href="#radial-gradient-2" id="radial-gradient-52" cx="5584.46" cy="-2461.12" r="1.91" fx="5584.46" fy="-2461.12" gradientTransform="rotate(-105.55 3916.5233359 1002.55855447)"/>
    <radialGradient xlink:href="#radial-gradient-2" id="radial-gradient-53" cx="7131.02" cy="-3556.1" r="1.91" fx="7131.02" fy="-3556.1" gradientTransform="rotate(-176.64 3662.08170342 -1513.2669706)"/>
    <radialGradient xlink:href="#radial-gradient-2" id="radial-gradient-54" cx="7096.42" cy="-3501.69" r="1.91" fx="7096.42" fy="-3501.69" gradientTransform="rotate(-176.64 3662.08170342 -1513.2669706)"/>
    <radialGradient xlink:href="#radial-gradient-2" id="radial-gradient-55" cx="7089.99" cy="-3519.52" r="1.91" fx="7089.99" fy="-3519.52" gradientTransform="rotate(-176.64 3662.08170342 -1513.2669706)"/>
    <radialGradient xlink:href="#radial-gradient-19" id="radial-gradient-56" cx="364.96" r="448.06" fx="364.96"/>
    <radialGradient xlink:href="#radial-gradient" id="radial-gradient-57" cx="75.63" cy="652.52" r="60.69" fx="75.63" fy="652.52"/>
    <radialGradient xlink:href="#radial-gradient-19" id="radial-gradient-58" r="448.06"/>
    <radialGradient xlink:href="#radial-gradient-19" id="radial-gradient-59" r="448.06"/>
    <radialGradient xlink:href="#radial-gradient-19" id="radial-gradient-60" r="448.06"/>
    <radialGradient xlink:href="#radial-gradient-2" id="radial-gradient-61" cx="712.21" cy="550.85" r="2.11" fx="712.21" fy="550.85"/>
    <radialGradient xlink:href="#radial-gradient-2" id="radial-gradient-62" cx="709.48" cy="540.3" r="3.63" fx="709.48" fy="540.3"/>
    <radialGradient xlink:href="#radial-gradient-2" id="radial-gradient-63" cx="714.89" cy="520.39" r="3.63" fx="714.89" fy="520.39"/>
    <radialGradient xlink:href="#radial-gradient-2" id="radial-gradient-64" cx="5692.92" cy="1036.51" r="1.3" fx="5692.92" fy="1036.51" gradientTransform="rotate(105.22 3186.8966617 -1503.40189907)"/>
    <radialGradient xlink:href="#radial-gradient-2" id="radial-gradient-65" cx="5681.86" cy="1070.3" r="3.62" fx="5681.86" fy="1070.3" gradientTransform="rotate(105.22 3186.8966617 -1503.40189907)"/>
    <radialGradient xlink:href="#radial-gradient-2" id="radial-gradient-66" cx="7140.68" cy="-3461.57" r="1.3" fx="7140.68" fy="-3461.57" gradientTransform="rotate(-176.64 3662.08170342 -1513.2669706)"/>
    <radialGradient xlink:href="#radial-gradient-2" id="radial-gradient-67" cx="7135.84" cy="-3467.97" r="1.3" fx="7135.84" fy="-3467.97" gradientTransform="rotate(-176.64 3662.08170342 -1513.2669706)"/>
    <radialGradient xlink:href="#radial-gradient-2" id="radial-gradient-68" cx="7148.98" cy="-3453.59" r="1.3" fx="7148.98" fy="-3453.59" gradientTransform="rotate(-176.64 3662.08170342 -1513.2669706)"/>
    <radialGradient xlink:href="#radial-gradient-2" id="radial-gradient-69" cx="7150.61" cy="-3448.56" r="1.3" fx="7150.61" fy="-3448.56" gradientTransform="rotate(-176.64 3662.08170342 -1513.2669706)"/>
    <radialGradient xlink:href="#radial-gradient-2" id="radial-gradient-70" cx="7142.68" cy="-3475.73" r="1.3" fx="7142.68" fy="-3475.73" gradientTransform="rotate(-176.64 3662.08170342 -1513.2669706)"/>
    <radialGradient xlink:href="#radial-gradient-2" id="radial-gradient-71" cx="7150.31" cy="-3463.1" r="3.62" fx="7150.31" fy="-3463.1" gradientTransform="rotate(-176.64 3662.08170342 -1513.2669706)"/>
    <radialGradient xlink:href="#radial-gradient-2" id="radial-gradient-72" cx="7129.08" cy="-3449.48" r="3.62" fx="7129.08" fy="-3449.48" gradientTransform="rotate(-176.64 3662.08170342 -1513.2669706)"/>
    <linearGradient id="linear-gradient" x1="9.35" x2="152.75" y1="746.83" y2="746.83" gradientTransform="translate(0 -413.89)" gradientUnits="userSpaceOnUse">
      <stop offset="0" stop-color="#fff" stop-opacity="0"/>
      <stop offset=".74" stop-color="#fff"/>
      <stop offset="1" stop-color="#fff" stop-opacity="0"/>
    </linearGradient>
    <style>
      .cls-1,.cls-2,.cls-3,.cls-4,.cls-5,.cls-6,.cls-7{fill-rule:evenodd}.cls-1,.cls-4,.cls-8,.cls-9{isolation:isolate}.cls-1,.cls-10,.cls-7,.cls-9{fill:#fff}.cls-1,.cls-11,.cls-9{opacity:.2}.cls-2{fill:url(#radial-gradient-39)}.cls-3{fill:url(#radial-gradient-60)}.cls-4,.cls-8{fill:#231f1f;opacity:.33}.cls-5{fill:url(#linear-gradient)}.cls-12{fill:#bdddff}.cls-13,.cls-6{fill:#390176}.cls-14{fill:url(#radial-gradient-70)}.cls-15{fill:url(#radial-gradient-72)}.cls-16{fill:url(#radial-gradient-71)}.cls-17{fill:url(#radial-gradient-69)}.cls-18{fill:url(#radial-gradient-67)}.cls-19{fill:url(#radial-gradient-68)}.cls-20{fill:url(#radial-gradient-63)}.cls-21{fill:url(#radial-gradient-66)}.cls-22{fill:url(#radial-gradient-64)}.cls-23{fill:url(#radial-gradient-62)}.cls-24{fill:url(#radial-gradient-61)}.cls-25{fill:url(#radial-gradient-65)}.cls-26{fill:url(#radial-gradient-47)}.cls-27{fill:url(#radial-gradient-48)}.cls-28{fill:url(#radial-gradient-20)}.cls-29{fill:url(#radial-gradient-21)}.cls-30{fill:url(#radial-gradient-45)}.cls-31{fill:url(#radial-gradient-46)}.cls-32{fill:url(#radial-gradient-40)}.cls-33{fill:url(#radial-gradient-30)}.cls-34{fill:url(#radial-gradient-33)}.cls-35{fill:url(#radial-gradient-32)}.cls-36{fill:url(#radial-gradient-38)}.cls-37{fill:url(#radial-gradient-31)}.cls-38{fill:url(#radial-gradient-37)}.cls-39{fill:url(#radial-gradient-36)}.cls-40{fill:url(#radial-gradient-26)}.cls-41{fill:url(#radial-gradient-27)}.cls-42{fill:url(#radial-gradient-22)}.cls-43{fill:url(#radial-gradient-24)}.cls-44{fill:url(#radial-gradient-23)}.cls-45{fill:url(#radial-gradient-28)}.cls-46{fill:url(#radial-gradient-29)}.cls-47{fill:url(#radial-gradient-35)}.cls-48{fill:url(#radial-gradient-34)}.cls-49{fill:url(#radial-gradient-52)}.cls-50{fill:url(#radial-gradient-51)}.cls-51{fill:url(#radial-gradient-59)}.cls-52{fill:url(#radial-gradient-54)}.cls-53{fill:url(#radial-gradient-53)}.cls-54{fill:url(#radial-gradient-25)}.cls-55{fill:url(#radial-gradient-56)}.cls-56{fill:url(#radial-gradient-50)}.cls-57{fill:url(#radial-gradient-55)}.cls-58{fill:url(#radial-gradient-41)}.cls-59{fill:url(#radial-gradient-42)}.cls-60{fill:url(#radial-gradient-44)}.cls-61{fill:url(#radial-gradient-43)}.cls-62{fill:url(#radial-gradient-49)}.cls-63{fill:url(#radial-gradient-57)}.cls-64{fill:url(#radial-gradient-58)}.cls-65{fill:url(#radial-gradient-10)}.cls-66{fill:url(#radial-gradient-19)}.cls-67{fill:url(#radial-gradient-18)}.cls-68{fill:url(#radial-gradient-17)}.cls-69{fill:url(#radial-gradient-11)}.cls-70{fill:url(#radial-gradient-16)}.cls-71{fill:url(#radial-gradient-15)}.cls-72{fill:url(#radial-gradient-12)}.cls-73{fill:url(#radial-gradient-14)}.cls-74{fill:url(#radial-gradient-13)}.cls-75{fill:url(#radial-gradient-6)}.cls-76{fill:url(#radial-gradient-5)}.cls-77{fill:url(#radial-gradient-3)}.cls-78{fill:url(#radial-gradient-4)}.cls-79{fill:url(#radial-gradient-9)}.cls-80{fill:url(#radial-gradient-8)}.cls-81{fill:url(#radial-gradient-7)}.cls-82{fill:url(#radial-gradient-2)}.cls-83{fill:none;stroke:#a75235;stroke-miterlimit:10}.cls-84{fill:url(#radial-gradient)}
    </style>
  </defs>
  <path d="M109.45 380.1c-7.6 0-14.5-2.7-24-6.3-13.6-5.3-70.8-31.6-78.5-36.4-11-6.9-6.1-19.7-4.3-24.6.2-.5.4-.9.5-1.3l.6-1.5c.1-.1.2-.3.2-.4.2-.4.4-.7.6-.9.1-.1.2-.3.3-.4l.1-.1.6-.6.4-.4.1-.1c.2-.2.4-.4.7-.6.2-.1.3-.2.5-.4.3-.2.5-.3.8-.5l.6-.3c.3-.1.5-.2.8-.3.1 0 .3-.1.4-.1.8-3.7 1.9-9 3-14.6-7.6-11-11.4-24.7-11.4-40.8 0-4.1.2-8.4.7-13 .6-5.8 1.5-10.9 2.2-14.9v-.2c.3-1.4.5-2.7.7-3.8 2.6-16.7 5.5-19.2 21.6-25.7-1.1-4.3-2.2-8.2-3.1-11.5-1.9-6.9-3.2-11.9-3.7-14.8-.5-2.9-1.1-5.5-1.7-8.1-.9-3.6-1.8-7.4-1.8-11.1v-.3c.1-4.3 1.7-7.8 4.8-10.5-.9-1.9-1.7-3.8-2.5-5.5-10-21.8-13-28.4-10.6-34.7.1-.3.2-.5.3-.7l.1-.1c1.6-3.3 4.5-5.1 7.1-6.3 1-.5 2-.9 3.1-1.4l1.1-.5 1.1-.5 3.7-1.6c7.3-3.3 16.4-7.4 24.3-10.1 6.5-2.2 11.6-3.3 15.5-3.3 1.1 0 2.1.1 3 .2l.8.1c1.7.3 2.7.4 3.6.4.3 0 .7 0 1.1-.1 3.4-.3 8.8-2.5 21.9-7.6l4.2-1.6c3.2-1.3 6.6-2.5 9.9-3.8 21.1-8.2 47.4-18.3 54.6-24 2.6-2.1 3.7-3.7 4.3-5.1l.3-.7c.3-.6.5-1.3.7-1.9l1.5-4.2c.7-1.9 1.8-4.2 3.5-6.8l.2-.3.1-.2c.3-.5.7-1 1.1-1.5 6.1-8.3 12.9-13.8 26.4-13.8 1 0 2 0 3.2.1.4 0 .9.1 1.4.1 1.3.1 2.6.2 3.9.4 1.3.2 2.6.3 4.1.5.7.1 1.5.2 2.3.2 3.8.4 8.2.8 12.9 1.3l.6.1c7.6.7 17.1 1.6 26.1 2.6l1.4.2 4.8.6c2.3.3 4.5.6 6.7.9 1.7.2 3.3.4 4.8.7 3 .4 5.7.9 8.1 1.3 4.8.9 9.4 2.2 13.7 4 .9.4 1.8.8 2.6 1.2 3.4 1.6 6.5 3.5 9.4 5.6 1.7 1.3 3.3 2.6 4.8 4 .2.1.2.2.3.3 4.8 4.5 8.9 10.1 12.1 16.4 1.1 2.1 2 4.2 2.8 6.2.3.9.7 1.8 1 2.8.2.6.5 1.3.7 2 .2.5.8 2.5.8 2.5.2.6.9 2.6.9 2.6l.9 2.7c.4 1.2.8 2.5 1.2 3.7.5 1.6 1 3.3 1.6 5.1.5 1.6 1 3.3 1.5 5 0 0 1.2 4 1.5 5.2l1 3.5c1.4 4.7 2.8 9.6 4.2 14.3v.1c4 13.9 8.2 28.2 11.6 38.6.3.8.6 1.7.9 2.7 1.8 6.2 4.2 16.1 5 28.1v.4c.1 2.3.2 4.6.2 6.8 0 3.2-.1 6.4-.3 9.6v.6c-.2 2.7-.5 5.4-.9 8v.1c-.4 2.3-.8 4.6-1.3 7-.3 1.6-.7 2.9-1 4.1-1.7 6.5-4 12.8-6.9 18.7l-1.5 3c-.3.5-.5 1-.8 1.5 1.1 6.2 2 11.6 2.6 15.5 3.5 21.1 4.8 34.5-11.5 45.4-14.1 9.4-129.5 71.7-148.9 79.8-6.1 2.5-10.3 3.6-13.6 3.6-2.2 0-4.2-.5-5.8-1.4-1.2.2-2.4.2-3.7.2-4 0-8.2-.8-13.6-2.1-1.8-.4-4-1-6.5-1.6-1.5 1-3.2 2.1-5 3.2-7.4 4.5-16.1 8.7-21.5 10.5-3.7 1-7.3 1.6-10.9 1.6Z" class="cls-13"/>
  <path d="M357.65 166v-.4c-.7-11.7-3-21.4-4.9-27.5-.3-1-.6-1.9-.8-2.7-3.4-10.5-7.6-24.9-11.7-38.9-1.4-4.8-2.8-9.6-4.2-14.3-.3-1.2-.7-2.3-1-3.5s-.7-2.3-1-3.4c-.2-.6-.3-1.1-.5-1.7-.5-1.7-1-3.3-1.5-5s-1.1-3.4-1.6-5.1c-.4-1.3-.8-2.5-1.2-3.7-.1-.3-.2-.5-.3-.8-.2-.6-.4-1.3-.6-1.9l-.3-.9c-.2-.6-.4-1.2-.6-1.7l-.3-.9c-.2-.5-.4-1.1-.5-1.6-.2-.7-.5-1.3-.7-1.9-.3-1-.7-1.9-1-2.7-.8-2.1-1.7-4-2.7-5.9-3.1-6.1-6.9-11.3-11.5-15.7l-.3-.3c-1.4-1.3-3-2.6-4.5-3.7-2.8-2.1-5.8-3.8-9-5.4-.8-.4-1.6-.8-2.5-1.1-4.1-1.7-8.5-3-13.1-3.9-2.5-.5-5.2-.9-8-1.3-1.6-.2-3.2-.5-4.8-.7-2.2-.3-4.4-.6-6.7-.9l-4.8-.6c-.5-.1-.9-.1-1.4-.2-8.8-1-17.9-1.8-26-2.6-5-.5-9.6-.9-13.6-1.3-.8-.1-1.6-.2-2.3-.2-1.5-.2-2.9-.3-4.1-.5-1.3-.2-2.5-.3-3.7-.4-.4 0-.9-.1-1.3-.1-1.1-.1-2.1-.1-3.1-.1-12.3 0-18.4 4.8-24.1 12.6-.4.5-.7.9-1 1.4 0 .1-.1.1-.1.2-.1.1-.1.2-.2.2-1.7 2.6-2.7 4.9-3.5 7l-.3.8c-.2.5-.3.9-.5 1.4v.1c-.1.4-.3.8-.4 1.2-.3.7-.5 1.4-.8 2.1l-.3.8c-1 2.1-2.4 4-5.1 6.1-7.5 5.9-32.9 15.8-55.3 24.4-3.3 1.3-6.7 2.6-9.9 3.8l-4.2 1.6c-13.7 5.3-18.9 7.4-22.6 7.7-.5 0-.9.1-1.3.1-1.2 0-2.4-.1-4.1-.4h-.3c-.2 0-.3-.1-.5-.1-.8-.1-1.6-.2-2.5-.2-3.9 0-9 1.3-14.6 3.2-7.8 2.7-16.5 6.6-24.1 10l-3.7 1.6c-.1.1-.2.1-.3.1-.4.2-.8.3-1.1.5l-.4.2c-.1 0-.2.1-.2.1-1.1.5-2.1.9-3.1 1.4-2.6 1.3-4.6 2.7-5.8 5l-.3.6c-2 5.2.9 11.5 10.5 32.5 1.1 2.3 2.2 4.8 3.4 7.5-.2.1-.3.2-.5.3l-.4.3-.1.1c-3.2 2.5-4.4 5.6-4.4 9v.1c0 3.2.8 6.7 1.7 10.3.6 2.6 1.3 5.3 1.8 8.3.5 2.8 1.8 7.7 3.6 14.5 1.1 4.1 2.4 8.8 3.7 13.9l-1.6.7c-15.9 6.4-18.1 7.8-20.6 23.8-.2 1.2-.4 2.5-.7 4-.7 4-1.6 9-2.2 14.7-.4 4-.7 8.2-.7 12.7 0 13.1 2.5 27.7 11.6 40.2-1.5 7.1-2.8 13.8-3.6 17.7h-.3c-.2 0-.3 0-.5.1-.2 0-.4.1-.6.1s-.3.1-.5.1c-.2.1-.4.1-.6.2-.1.1-.3.1-.4.2-.2.1-.3.2-.5.3-.1.1-.3.2-.4.3-.2.1-.3.3-.5.4l-.3.3c-.2.2-.3.3-.4.5-.1.1-.2.2-.3.4-.1.2-.3.4-.4.6-.1.1-.1.2-.2.3-.2.3-.3.7-.5 1.1-.1.4-.3.9-.5 1.4-1.8 4.6-5.9 15.5 3.2 21.2 7.6 4.8 64.5 30.9 78 36.1 9.2 3.6 15.9 6.1 22.9 6.1 3.3 0 6.6-.6 10.2-1.8 5.3-1.8 13.7-5.9 20.9-10.3 2.3-1.4 4.3-2.7 5.9-3.8 3 .7 5.6 1.4 7.7 1.9 5.2 1.3 9.2 2 12.9 2 1.5 0 2.9-.1 4.3-.4 1.4 1 3.1 1.6 5.2 1.6 3 0 6.9-1.1 12.5-3.4 19.3-8 134.4-70.1 148.4-79.5 14.9-9.9 13.7-22 10.3-42.5-.7-4.1-1.7-9.9-2.8-16.4.4-.8.9-1.6 1.3-2.3.5-1 1-1.9 1.4-2.9 2.8-5.8 5-11.9 6.7-18.2.4-1.3.7-2.7 1-4 .5-2.3.9-4.6 1.3-6.8.4-2.6.7-5.3.9-7.8v-.6c.2-3.2.3-6.4.3-9.4-.2-1.4-.3-3.6-.4-5.7Z" class="cls-13"/>
  <path d="M32.75 137.6c-5.3-20-19.5-32-7.5-35.4s86.1 8.4 86.1 8.4l-78.6 27Z" class="cls-13"/>
  <path d="M167.05 365.3c-3.7 0-7.7-.8-12.9-2-22-5.3-95.1-23.4-113.1-33-14.8-7.8-12.3-15.9-8.2-29.3 2.2-7.1 4.8-15.9 6.7-28.3 4.4-28.3-7-70.4-13.2-93.1-1.8-6.8-3.2-11.7-3.6-14.5-.5-3-1.1-5.7-1.8-8.3-1.9-7.7-3.7-15 3.3-20 5.7-4.1 16.8-7.9 49.6-19.1 8.5-2.9 18.4-6.3 30-10.3 44.2-15.2 144.6-36.8 179.6-36.8 6.5 0 10.6.7 13.1 2.2 16.9 10.5 35.7 91.6 42 132.6.7 4.3 1.3 8.3 1.9 12 6.4 40.9 7.7 49.5-3.4 57.4-10.1 7.2-122.1 69.5-142.5 79.9l-3.2 1.7c-11.8 6.2-17.2 8.9-24.3 8.9Z" class="cls-13"/>
  <path d="M105.15 111.1c-54.9 18.9-72 24-78.7 28.8s-1.9 12.7 0 24.6c1.9 11.9 22.5 71.4 16.8 108.8s-18.7 44.1-.5 53.7c18.2 9.6 96.4 28.8 112.3 32.6s17.3 2.4 37.9-8.2 131.9-72.4 142-79.6 7.7-15.8 0-65.7-26.4-121.4-40.3-130-140.6 18.1-189.5 35Z" class="cls-84"/>
  <path d="M66.05 168.9c-.7 1.6-2.6 2.2-4.1 1.5-1.6-.7-2.2-2.6-1.5-4.1.7-1.6 2.6-2.2 4.1-1.5s2.2 2.5 1.5 4.1Z" class="cls-82"/>
  <path d="M63.85 168.2c-.2.4-.7.6-1.1.4-.4-.2-.6-.7-.4-1.1.2-.4.7-.6 1.1-.4.4.1.6.7.4 1.1Z" class="cls-12"/>
  <circle cx="55.55" cy="174.9" r="5.3" class="cls-77"/>
  <path d="M56.75 175.9c-.3.7-1.2 1.1-2 .7-.7-.3-1.1-1.2-.7-2 .3-.7 1.2-1.1 2-.7.7.3 1 1.2.7 2Z" class="cls-12"/>
  <circle cx="79.25" cy="178.4" r="5.3" class="cls-78"/>
  <path d="M80.45 179.4c-.3.7-1.2 1.1-2 .7-.7-.3-1.1-1.2-.7-2 .3-.7 1.2-1.1 2-.7.7.4 1 1.2.7 2Z" class="cls-12"/>
  <path d="M156.75 240.1c-1-.3-1.6-1.3-1.3-2.3s1.3-1.6 2.3-1.3c1 .3 1.6 1.3 1.3 2.3-.2 1-1.2 1.6-2.3 1.3Z" class="cls-76"/>
  <path d="M157.05 238.8c-.3-.1-.4-.4-.4-.7.1-.3.4-.4.7-.4.3.1.4.4.4.7-.2.3-.5.4-.7.4Z" class="cls-12"/>
  <path d="M141.45 216.6c-1-.3-1.6-1.3-1.3-2.3s1.3-1.6 2.3-1.3 1.6 1.3 1.3 2.3c-.2 1-1.3 1.6-2.3 1.3Z" class="cls-75"/>
  <path d="M141.65 215.2c-.3-.1-.4-.4-.4-.7.1-.3.4-.4.7-.4.3.1.4.4.4.7-.1.3-.4.5-.7.4Z" class="cls-12"/>
  <path d="M152.95 228c-1-.3-1.6-1.3-1.3-2.3s1.3-1.6 2.3-1.3 1.6 1.3 1.3 2.3c-.2.9-1.3 1.6-2.3 1.3Z" class="cls-81"/>
  <path d="M153.15 226.6c-.3-.1-.4-.4-.4-.7.1-.3.4-.4.7-.4.3.1.4.4.4.7-.1.3-.4.5-.7.4Z" class="cls-12"/>
  <path d="M76.25 200.6c-2.8-.8-4.5-3.7-3.7-6.5s3.7-4.5 6.5-3.7 4.5 3.7 3.7 6.5-3.7 4.5-6.5 3.7Z" class="cls-80"/>
  <path d="M76.85 196.8c-.8-.2-1.3-1-1-1.8.2-.8 1-1.3 1.8-1 .8.2 1.3 1 1 1.8-.2.7-1 1.2-1.8 1Z" class="cls-12"/>
  <path d="M161.95 264.9c.1-1.1 1-1.9 2-1.8 1.1.1 1.9 1 1.8 2-.1 1.1-1 1.9-2 1.8-1.1 0-1.9-.9-1.8-2Z" class="cls-79"/>
  <path d="M163.35 264.9c0-.3.3-.5.6-.5s.5.3.5.6-.3.5-.6.5c-.3-.1-.5-.3-.5-.6Z" class="cls-12"/>
  <path d="M140.25 195.5c.1-1.1 1-1.9 2-1.8 1.1.1 1.9 1 1.8 2-.1 1.1-1 1.9-2 1.8-1.1 0-1.9-.9-1.8-2Z" class="cls-65"/>
  <path d="M141.65 195.4c0-.3.3-.5.6-.5s.5.3.5.6-.3.5-.6.5-.6-.3-.5-.6Z" class="cls-12"/>
  <path d="M151.75 216.5c.1-1.1 1-1.9 2-1.8 1.1.1 1.9 1 1.8 2-.1 1.1-1 1.9-2 1.8-1.1 0-1.9-.9-1.8-2Z" class="cls-69"/>
  <path d="M153.15 216.5c0-.3.3-.5.6-.5s.5.3.5.6-.3.5-.6.5c-.3-.1-.6-.3-.5-.6Z" class="cls-12"/>
  <path d="M121.25 204.6c.1-1.1 1-1.9 2-1.8 1.1.1 1.9 1 1.8 2-.1 1.1-1 1.9-2 1.8-1 0-1.8-.9-1.8-2Z" class="cls-72"/>
  <path d="M122.65 204.6c0-.3.3-.5.6-.5s.5.3.5.6-.3.5-.6.5c-.3-.1-.5-.3-.5-.6Z" class="cls-12"/>
  <path d="M103.25 182.4c.1-1.1 1-1.9 2-1.8 1.1.1 1.9 1 1.8 2-.1 1.1-1 1.9-2 1.8-1.1-.1-1.9-1-1.8-2Z" class="cls-74"/>
  <path d="M104.65 182.3c0-.3.3-.5.6-.5s.5.3.5.6-.3.5-.6.5-.5-.3-.5-.6Z" class="cls-12"/>
  <path d="M34.55 165c.1-1.1 1-1.9 2-1.8 1.1.1 1.9 1 1.8 2-.1 1.1-1 1.9-2 1.8-1.1-.1-1.9-1-1.8-2Z" class="cls-73"/>
  <path d="M35.95 164.9c0-.3.3-.5.6-.5s.5.3.5.6-.3.5-.6.5c-.3-.1-.6-.3-.5-.6Z" class="cls-12"/>
  <path d="M39.85 183.1c.1-1.1 1-1.9 2-1.8 1.1.1 1.9 1 1.8 2-.1 1.1-1 1.9-2 1.8-1 0-1.8-.9-1.8-2Z" class="cls-71"/>
  <path d="M41.25 183.1c0-.3.3-.5.6-.5s.5.3.5.6-.3.5-.6.5c-.3-.1-.5-.3-.5-.6Z" class="cls-12"/>
  <path d="M165.25 284.6c.1-1.1 1-1.9 2-1.8 1.1.1 1.9 1 1.8 2-.1 1.1-1 1.9-2 1.8-1 0-1.8-.9-1.8-2Z" class="cls-70"/>
  <path d="M166.65 284.5c0-.3.3-.5.6-.5s.5.3.5.6-.3.5-.6.5-.5-.3-.5-.6Z" class="cls-12"/>
  <path d="M97.05 196c.2-2.9 2.7-5.2 5.6-5 2.9.2 5.2 2.7 5 5.6-.2 2.9-2.7 5.2-5.6 5-2.9-.1-5.2-2.6-5-5.6Z" class="cls-68"/>
  <path d="M100.95 195.9c0-.8.7-1.4 1.6-1.4.8 0 1.4.7 1.4 1.6 0 .8-.7 1.4-1.6 1.4-.9-.1-1.5-.8-1.4-1.6Z" class="cls-12"/>
  <path d="M129.35 177.9c.2-2.9 2.7-5.2 5.6-5 2.9.2 5.2 2.7 5 5.6-.2 2.9-2.7 5.2-5.6 5-2.9-.2-5.1-2.7-5-5.6Z" class="cls-67"/>
  <path d="M133.25 177.7c0-.8.7-1.4 1.6-1.4.8 0 1.4.7 1.4 1.6 0 .8-.7 1.4-1.6 1.4-.8-.1-1.4-.8-1.4-1.6Z" class="cls-12"/>
  <path d="M341.55 253.4c-.4-7.8-2.2-19-4.8-36-2.6-.7-5.2-1.2-5.2-1.2s-118 .1-119.7.8-31.6 33.5-31.6 33.5-5.2 24.1 12.5 36.4c17.6 12.3 42.1 12.2 61.9 7.8 19.8-4.3 51.7-16.3 66.4-27.3 0 0 15-7.6 16.4-8.5.5-.5 2.3-2.9 4.1-5.5Z" class="cls-4"/>
  <path d="M184.05 335.1c-.1-1.1-15.5-138-15.5-138l-5.4-34-17.2-6.9-21.7 11.7c-7.9 6.9-8.5 19.3.4 38.5-3.3-.6-6.7.1-13-.5-13.4-1.2-18.4 6.1-27.3-2.2-9-8.3-5.8-11.5-20.5-18-14.8-6.5-23 2.2-27-7-4-9.1-8.6-19.7 2.5-21.2l-1.8-11.8-14.1-1.8c-1.5 4.8 1.6 11.6 3 20.6 1.4 8.4 12 40.5 16.2 71.9 25.3 2.2 55.7 4.7 55.7 4.7s25.3-5.4 36.8-13.2c8.9 21.4 13.4 45.8 12.3 65.4-1.1 19.4-5.3 48.6-7.6 62.6 6.7 1.7 12.1 3 15.1 3.7 13.1 3.2 16.3 2.7 28.7-3.5.3-10.6.4-20.5.4-21Z" class="cls-8"/>
  <path d="M103.35 120c-31.7 12.1-58.2 19.9-58.2 19.9l3.2 3.6 58.7 9.7h13.7l19.8-2.4-6.1-20.1-15.1-11.5-16 .8Z" class="cls-13"/>
  <path d="M144.35 160.3c-2 1.1-4.1 2-6.2 2.8l-1.8.6c-8.6 3.2-14.3 5.4-22.8 5.4-5.5 0-12.2-.9-21.7-3-7.5-1.7-17.6-3.1-27.3-4.5-30.4-4.4-45.1-6.9-45.3-15v-.2l.1-1v-.2c.3-1.7 1.4-3.8 3.3-6.5l1.1-1.5 1.5-1c.7-.5 1.6-1 2.5-1.5.1 0 .1-.1.2-.1 1.7-.9 3.7-1.8 6.3-2.8.2-.1.5-.2.7-.3 7.5-3 19.2-7 38.1-13.4 4.6-1.6 9.6-3.3 15.1-5.2 7.3 2 14.5 4.4 20.9 7.1l-4 1.5c-16.1 5.8-27.5 9.7-35.8 12.6-11.3 3.9-16.7 5.7-20 7.6 3.4.8 8.7 1.7 15 2.8l4.6.8c16.6 3 35.4 6.3 50.6 6.3 4.2 0 8-.3 11.4-.8 3.3-.5 6.2-1.3 8.6-2.3 1.7 3.7 3.4 7.6 4.9 11.8Z" class="cls-13"/>
  <path d="M94.35 114.8c3.2 1 6.4 2.1 9.5 3.2-1.9.7-3.8 1.4-5.6 2-3.2-1.1-6.5-2.1-10-3.1 2-.7 4-1.4 6.1-2.1Z" class="cls-66"/>
  <path d="M142.95 156.7c-1 .6-2.2 1.1-3.4 1.7-.7-1.8-1.4-3.5-2.2-5.2 1.2-.4 2.4-.8 3.5-1.3.8 1.6 1.5 3.2 2.1 4.8Z" class="cls-28"/>
  <path d="M172.75 241.7c1.4 41.7 1 85.8 0 101.7-1 15.8-4.8 24.5 14.9 16.3s134.8-70.5 147.8-79.2 12-18.6 8.6-38.8-13.9-80.8-13.9-80.8l-157.4 80.8Z" class="cls-83"/>
  <path d="M176.55 366.5c-2.6 0-4.7-.8-6.1-2.4-2.9-3.2-2.5-8.1-1.8-14.9.2-1.9.4-3.9.5-6 .9-15.4 1.5-59.2 0-101.3l-.1-2.4 15.8-8.1 9.6 25.7v5.1c0 19.3 0 34.5 2 44.5 2.1 10.7 5.8 12.9 10.6 12.9 3.2 0 7.4-1.1 12.4-3.2 31.6-13.1 83.1-38.3 94.6-47 10.9-8.3 14.2-21.1 11-43-2-14.1 2.1-30.3 6-41.4l7.2.6c3.3 18.9 7.6 43.9 9.5 55.6 3.4 20.5 4.6 32.6-10.3 42.5-14 9.4-129.1 71.5-148.4 79.5-5.6 2.3-9.5 3.3-12.5 3.3Z" class="cls-13"/>
  <path d="M334.55 186.1c-3.8 10.9-7.7 26.4-5.8 39.7 3.4 23.5-.5 37.4-12.5 46.5s-64.3 34.5-95.5 47.5-30.2-11-30.2-62.1l-7.9-21.1-9.9 5.1c1.4 41.7 1 85.8 0 101.7-1 15.8-4.8 24.5 14.9 16.3s134.8-70.5 147.8-79.2c13-8.6 12-18.6 8.6-38.8-1.9-11.6-6.2-36.5-9.5-55.6Z" class="cls-29"/>
  <path d="M337.15 274.9c-7 5.3-75.4 43.3-102.4 56.2-27 13-54 27.7-56.1 10.8-2.2-16.9-.4-28.1-.7-45.7-.4-17.6 3.2-18 12.8-10.1-.2-8.2-.2-17.7-.2-28.4l-5.8-15.6c-2.7-.8-5.5-1.6-8.3-2.3l-3.7 1.9c1.4 41.7 1 85.8 0 101.7-1 15.8-4.8 24.5 14.9 16.3 18-7.5 116.3-60.5 142.5-75.9 7-4.4 13.6-14 7-8.9Z" class="cls-8"/>
  <path d="M235.85 290.7c-24 0-44-10.9-59.4-32.5-10.8-15-16.6-31.6-19.7-42.9-.6-2.1-1.2-4.6-1.9-7.4-5.2-20.1-16-61.9-29.6-74.3-14.4-13.2-60.2-24-77.5-24-.6 0-1.2 0-1.7.1-2.7.2-5.1.3-7 .3-1.9.1-4 .1-5.3.3.1.5.3 1.4.7 2.7 2.9 9.3 5.1 22.3 5.2 22.8l.4 2.6-11.5 6.7-1.7-3.8c-2-4.5-3.9-8.5-5.5-12.1-9.6-21-12.5-27.3-10.5-32.5 1.4-3.7 4.8-5.2 9.2-7 .6-.3 1.3-.6 2.1-.9l3.7-1.6c13-5.9 29.3-13.2 38.7-13.2.9 0 1.8.1 2.5.2 2.2.4 3.5.5 4.9.5 3.9 0 8.6-1.8 24-7.8l4.2-1.6c3.2-1.3 6.6-2.5 9.9-3.8 22.4-8.7 47.8-18.5 55.3-24.4 4.4-3.5 5.4-6.3 6.7-10.2 1.1-3.2 2.4-6.8 5.5-11.1 5.7-7.8 11.8-12.6 24.1-12.6 2.4 0 5.1.2 8.1.5 5.1.6 12 1.3 20 2 16.6 1.6 37.3 3.5 51.7 6.2 20.9 3.8 35.9 16.2 43.6 35.9 3.9 10.1 9.7 30 15.3 49.1 4.1 14 8.2 28.4 11.7 38.9 3.3 10.1 10.1 36.6 2.4 65.8-8.9 33.8-33.6 60.1-73.5 78.4-16.2 6.9-31.3 10.7-45.1 10.7Z" class="cls-13"/>
  <path d="M30.25 139.6c-20.2-44.6-20.6-41.4-6.7-47.7s34.1-15.8 42.7-14.4 9.1 1 35-9.1 57.1-21.6 66.2-28.8 6.2-13 13-22.1 13-12.5 28.8-10.6c15.8 1.9 50.4 4.3 71.5 8.2 21.1 3.8 34.1 16.3 40.8 33.6 6.7 17.3 18.7 62.9 26.9 87.8s21.1 98.4-69.1 139.6c-87.9 40.2-114.2-44.1-119-61.9s-16.3-68.6-32.6-83.5-67.2-25.9-82-24.9c-14.9 1-17.8-1-14.9 8.2 2.9 9.1 5.1 22.3 5.1 22.3l-5.7 3.3Z" class="cls-42"/>
  <path d="M156.15 54.7c.3 2.1-1.1 4.1-3.2 4.4-2.1.3-4.1-1.1-4.4-3.2-.3-2.1 1.1-4.1 3.2-4.4 2-.3 4 1.1 4.4 3.2Z" class="cls-44"/>
  <path d="M153.45 55.4c.1.6-.3 1.1-.9 1.2-.6.1-1.1-.3-1.2-.9-.1-.6.3-1.1.9-1.2.5-.1 1.1.3 1.2.9Z" class="cls-12"/>
  <circle cx="149.45" cy="68" r="6.6" class="cls-43"/>
  <path d="M151.35 68.2c.2 1-.5 1.9-1.5 2.1s-1.9-.5-2.1-1.5c-.2-1 .5-1.9 1.5-2.1 1-.2 1.9.5 2.1 1.5Z" class="cls-12"/>
  <circle cx="176.15" cy="55.3" r="6.6" class="cls-54"/>
  <path d="M178.05 55.5c.2 1-.5 1.9-1.5 2.1s-1.9-.5-2.1-1.5c-.2-1 .5-1.9 1.5-2.1s1.9.5 2.1 1.5Z" class="cls-12"/>
  <path d="M285.25 84.7c-1.2.4-2.6-.2-3-1.5-.4-1.2.2-2.6 1.5-3 1.2-.4 2.6.2 3 1.5.4 1.2-.2 2.6-1.5 3Z" class="cls-40"/>
  <path d="M284.55 83.1c-.3.1-.7-.1-.8-.4-.1-.3.1-.7.4-.8.3-.1.7.1.8.4.1.3-.1.7-.4.8Z" class="cls-12"/>
  <path d="M267.65 74c-1.2.4-2.6-.2-3-1.5-.4-1.2.2-2.6 1.5-3 1.2-.4 2.6.2 3 1.5.4 1.2-.3 2.5-1.5 3Z" class="cls-41"/>
  <path d="M266.85 72.4c-.3.1-.7-.1-.8-.4-.1-.3.1-.7.4-.8.3-.1.7.1.8.4.2.3 0 .7-.4.8Z" class="cls-12"/>
  <path d="M245.35 87.5c-1.2.4-2.6-.2-3-1.5-.4-1.2.2-2.6 1.5-3s2.6.2 3 1.5c.4 1.2-.3 2.6-1.5 3Z" class="cls-45"/>
  <path d="M244.65 85.9c-.3.1-.7-.1-.8-.4-.1-.3.1-.7.4-.8s.7.1.8.4c.1.3-.1.7-.4.8Z" class="cls-12"/>
  <path d="M202.95 86.3c-3.4 1.2-7.2-.7-8.3-4.1s.7-7.2 4.1-8.3 7.2.7 8.3 4.1c1.2 3.4-.7 7.2-4.1 8.3Z" class="cls-46"/>
  <path d="M200.95 82c-1 .3-2-.2-2.3-1.1-.3-1 .2-2 1.1-2.3 1-.3 2 .2 2.3 1.1s-.2 2-1.1 2.3Z" class="cls-12"/>
  <path d="M187.25 93.4c-.7-1.1-.3-2.6.8-3.2 1.1-.7 2.6-.3 3.2.8.7 1.1.3 2.6-.8 3.2-1.1.6-2.6.3-3.2-.8Z" class="cls-33"/>
  <path d="M188.55 92.3c-.2-.3-.1-.7.2-.9.3-.2.7-.1.9.2.2.3.1.7-.2.9s-.7.1-.9-.2Z" class="cls-12"/>
  <g>
    <path d="M182.05 114.1c-.7-1.1-.3-2.6.8-3.2 1.1-.7 2.6-.3 3.2.8.7 1.1.3 2.6-.8 3.2-1.1.7-2.5.4-3.2-.8Z" class="cls-37"/>
    <path d="M183.45 113.1c-.2-.3-.1-.7.2-.9s.7-.1.9.2.1.7-.2.9c-.3.2-.7.1-.9-.2Z" class="cls-12"/>
  </g>
  <g>
    <path d="M236.25 76.6c-.7-1.1-.3-2.6.8-3.2 1.1-.7 2.6-.3 3.2.8.7 1.1.3 2.6-.8 3.2-1.1.7-2.6.4-3.2-.8Z" class="cls-35"/>
    <path d="M237.55 75.6c-.2-.3-.1-.7.2-.9.3-.2.7-.1.9.2.2.3.1.7-.2.9-.3.2-.7.1-.9-.2Z" class="cls-12"/>
  </g>
  <g>
    <path d="M237.35 53.2c-.7-1.1-.3-2.6.8-3.2 1.1-.7 2.6-.3 3.2.8.7 1.1.3 2.6-.8 3.2-1.1.7-2.6.3-3.2-.8Z" class="cls-34"/>
    <path d="M238.65 52.2c-.2-.3-.1-.7.2-.9.3-.2.7-.1.9.2.2.3.1.7-.2.9-.3.2-.7.1-.9-.2Z" class="cls-12"/>
  </g>
  <g>
    <path d="M203.45 42.9c-.7-1.1-.3-2.6.8-3.2 1.1-.7 2.6-.3 3.2.8.7 1.1.3 2.6-.8 3.2-1 .7-2.5.3-3.2-.8Z" class="cls-48"/>
    <path d="M204.85 41.8c-.2-.3-.1-.7.2-.9s.7-.1.9.2.1.7-.2.9c-.3.2-.7.1-.9-.2Z" class="cls-12"/>
  </g>
  <g>
    <path d="M121.15 72.3c-.7-1.1-.3-2.6.8-3.2 1.1-.7 2.6-.3 3.2.8.7 1.1.3 2.6-.8 3.2-1.1.7-2.6.3-3.2-.8Z" class="cls-47"/>
    <path d="M122.55 71.3c-.2-.3-.1-.7.2-.9.3-.2.7-.1.9.2.2.3.1.7-.2.9-.4.2-.8.1-.9-.2Z" class="cls-12"/>
  </g>
  <g>
    <path d="M168.35 100.9c-.7-1.1-.3-2.6.8-3.2 1.1-.7 2.6-.3 3.2.8.7 1.1.3 2.6-.8 3.2-1.1.7-2.6.4-3.2-.8Z" class="cls-39"/>
    <path d="M169.65 99.9c-.2-.3-.1-.7.2-.9.3-.2.7-.1.9.2.2.3.1.7-.2.9-.3.2-.7.1-.9-.2Z" class="cls-12"/>
  </g>
  <g>
    <path d="M206.55 61.1c-1.8-3.1-.8-7.2 2.3-9s7.2-.8 9 2.3c1.8 3.1.8 7.2-2.3 9-3.1 1.9-7.1.8-9-2.3Z" class="cls-38"/>
    <path d="M210.35 58.2c-.5-.9-.2-2 .6-2.5.9-.5 2-.2 2.5.6.5.9.2 2-.6 2.5-.8.6-1.9.3-2.5-.6Z" class="cls-12"/>
  </g>
  <g>
    <path d="M151.25 96c-1.8-3.1-.8-7.2 2.3-9s7.2-.8 9 2.3c1.8 3.1.8 7.2-2.3 9-3.1 1.8-7.2.8-9-2.3Z" class="cls-36"/>
    <path d="M155.05 93.1c-.5-.9-.2-2 .6-2.5.9-.5 2-.2 2.5.6.5.9.2 2-.6 2.5-.9.6-2 .3-2.5-.6Z" class="cls-12"/>
  </g>
  <path d="m205.95 181 45.2-87.1s-20.3 1.3-36.4 9.7c-24 12.6-31.5 34.2-35.8 30.2s-5.4-15.1-10.1-25.9c-4.7-10.8-25.9-22-41-25.5-15.1-3.6-27.7-8.3-13-19.3-4.6 1.8-9.1 3.5-13.5 5.2-25.9 10.1-26.4 10.6-35 9.1-8.6-1.4-28.8 8.2-42.7 14.4-13.3 5.9-13.5 3.4 4 41.8 1.9 1.2 4 2.5 6.1 3.9l2.2-1.3s-2.2-13.2-5.1-22.3 0-7.2 14.9-8.2 65.7 10.1 82 24.9c14.3 13 24.9 53.5 30.5 75.4 13.9 3.5 26.5 6.2 26.5 6.2l21.2-31.2Z" class="cls-4"/>
  <path d="M112.85 84.9c23 3.6 50.8 7 74.3-2.6s65.1-26.4 75.2-31.7c10.2-5.3-8.5-16.2-8.5-16.2s34 1 39.5 24.7c0 0-19.3-13.5-58.8 9.7-30.1 17.8-52.8 18.2-60.5 27.3s-.6 30.2-1.5 48.5-41-39.2-41-39.2l-18.7-20.5Z" class="cls-9"/>
  <path d="m170.85 196.2 2-26.5v-.8l.1-.1c3.2-19 30.2-67.5 78.1-74.8l7.5-1.1-69.7 126.7-18-23.4Z" class="cls-13"/>
  <use xlink:href="#reuse-0" class="cls-66"/>
  <use xlink:href="#reuse-0" class="cls-8"/>
  <path d="M235.85 290.7c-24 0-44-10.9-59.4-32.5-10.8-15-16.6-31.6-19.7-42.9-.6-2.1-1.2-4.6-1.9-7.4-5.2-20.1-16-61.9-29.6-74.3-14.4-13.2-60.2-24-77.5-24-.6 0-1.2 0-1.7.1-2.7.2-5.1.3-7 .3-1.9.1-4 .1-5.3.3.1.5.3 1.4.7 2.7 2.9 9.3 5.1 22.3 5.2 22.8l.4 2.6-11.5 6.7-1.7-3.8c-2-4.5-3.9-8.5-5.5-12.1-9.6-21-12.5-27.3-10.5-32.5 1.4-3.7 4.8-5.2 9.2-7 .6-.3 1.3-.6 2.1-.9l3.7-1.6c13-5.9 29.3-13.2 38.7-13.2.9 0 1.8.1 2.5.2 2.1.4 3.5.5 4.8.5.5 0 .9 0 1.4-.1h.8c36.8 4.4 87 13.9 97.1 46.2 3.6 11.6 5.5 24.1 7.3 36.2.8 5.6 1.6 11 2.6 16.2 10.2-36.9 38.1-68.5 71.9-79.7 8.4-2.8 16.7-4.2 24.9-4.2 8.8 0 17.7 2 25.5 6.1-5.9-19.3-12.2-34-17.4-41.3-10.2-14.2-62.4-22.7-82.6-22.7h-.8c-18.2.2-27.1 3.4-27.2 3.4l-8.2 3 3.4-8c.5-1 .8-2.2 1.3-3.3 1.1-3.2 2.4-6.8 5.5-11.1 5.7-7.8 11.8-12.6 24.1-12.6 2.4 0 5.1.2 8.1.5 5.1.6 12 1.3 20 2 16.6 1.6 37.3 3.5 51.7 6.2 20.9 3.8 35.9 16.2 43.6 35.9 3.9 10.1 9.7 30 15.3 49.1 4.1 14 8.2 28.4 11.7 38.9 3.3 10.1 10.1 36.6 2.4 65.8-8.9 33.8-33.6 60.1-73.5 78.4-16 7.3-31.1 11.1-44.9 11.1Z" class="cls-6"/>
  <path d="M174.05 31.3c1.8-4.1 2.4-8.3 6.4-13.7 6.7-9.1 13-12.5 28.8-10.6 15.8 1.9 50.4 4.3 71.5 8.2 21.1 3.8 34.1 16.3 40.8 33.6 6.7 17.3 18.7 62.9 26.9 87.8s21.1 98.4-69.1 139.6c-87.9 40.2-114.2-44.1-119-61.9s-16.3-68.6-32.6-83.5-67.2-25.9-82-24.9c-14.9 1-17.8-1-14.9 8.2 2.9 9.1 5.1 22.3 5.1 22.3l-5.6 3.3c-20.2-44.6-20.6-41.4-6.7-47.7 13.9-6.2 34.1-15.8 42.7-14.4 2.9.5 4.9.7 7.2.5 44.1 5.3 85.4 16.3 94 43.6 7.1 22.4 7.4 49.3 13.9 68.4 5.2-41.4 34.6-80.6 72.7-93.3 20.3-6.8 44.5-4.5 52.5 8.7-5.6-19.6-10.4-43.7-17.8-53.8-11.5-15.8-67.1-24.2-86.4-24s-28.4 3.6-28.4 3.6Z" class="cls-2"/>
  <path d="M288.85 51.6c5.5 7.6 9.6 23 13.7 38.5l10.4 3.5s-1.3-20.9-6.3-41.4-22.7-30.6-37.1-30.1c-14.3.6-39.9-7.7-54.8-8.7-14.4-1-27-.7-19.7-6.3-6.3 1.3-10.4 4.8-14.6 10.5-4 5.4-4.6 9.7-6.4 13.7 0 0 9.2-3.4 28.4-3.7 19.3-.2 74.9 8.2 86.4 24ZM188.35 212.7c11.1 24.8 34.5 74.1 103.6 41.4 0 0-42.2 9.3-61.9-1.4-23.7-13-41.7-40-41.7-40Z" class="cls-4"/>
  <path d="M226.45 277.5c-20.4-4-38-20.2-48.9-51.2-10.9-30.9-11.6-59.6-14.1-76.6-2.5-16.9-25.2-39.9-38.9-43.5-13.7-3.6-32.4-13.7-55.8-16.6-23.1-2.8-21.6-5.3-7.8-12-10 1.5-25.9 9-37.5 14.2-13.9 6.2-13.5 3 6.7 47.7l5.6-3.3s-2.2-13.2-5.1-22.3 0-7.2 14.9-8.2 65.7 10.1 82 24.9c16.3 14.9 27.8 65.7 32.6 83.5s31.1 102.1 119 61.9c15.7-7.2 28.2-15.3 38.2-24-30.6 22.5-72 29.1-90.9 25.5Z" class="cls-4"/>
  <g>
    <path d="M276.45 253.2c-4.8 0-9-4.6-13.1-14.5-2.8-.7-4.8-3-5.3-6.1-.3-1.9.2-4 1.1-5.8-.7-2.2-1.3-4.6-1.9-7.1-10.5 9.9-27.9 24.8-36.9 24.8-2.6 0-4.2-1.1-5.1-2.1-3.3-3.6-2.2-9.9 3.6-20.5 4-7.4 10.1-16.4 17.7-26.3-2.5-.9-5-1.8-7.3-2.7-.4.2-.7.4-1.1.5-1 .4-2 .6-3 .6-3.8 0-6.8-2.7-7.3-6.5-13.6-7.6-14.8-14-13.4-18.2 2.3-6.7 12.4-10.1 30-10.1 4.5 0 9.4.2 14.5.7-1.4-38.2 5.7-46.5 10.1-48.1.7-.2 1.5-.4 2.2-.4 5.2 0 12.7 6.4 19.7 35.6 1.8-1.7 3.6-3.3 5.4-4.8.3-3.6 2.7-7.1 6.1-8.3.9-.3 1.7-.5 2.6-.5.7 0 1.4.1 2 .3 7.7-5.5 13.3-8.2 17.3-8.2 2.3 0 4.2.9 5.4 2.5 2.7 3.5 1.7 9.4-3.5 19.2-3.6 6.8-9.1 15.2-15.9 24.3 12.2 4.7 31.1 13.7 27.6 24.5-2.8 8.5-18 10.2-30.3 10.2-2.8 0-5.8-.1-8.9-.3.5 17.3-.3 42.5-9.5 46.7-.9.4-1.8.6-2.8.6Zm-3.6-19.3c1.1 2.7 2.3 4.9 3.3 6.5v-.1c1-3.4 1.8-8.3 2.2-14.2.5-6.3.5-13.4.2-21.2-1.9-.2-3.9-.5-5.9-.8-2.2 2.4-4.5 4.7-6.7 6.9.8 3.7 1.7 7.2 2.6 10.5 2.9.6 5.1 3 5.5 6.2.3 2.2-.1 4.3-1.2 6.2Zm-25.8-35.1c-5.8 7.3-10.7 14.2-14.7 20.4-3.2 5-5.6 9.3-7 12.7 2.9-1.6 6.6-4.1 10.8-7.4 5.7-4.4 11.9-9.9 18.5-16.4-.5-2.5-1-5.1-1.4-7.7-2.1-.5-4.2-1.1-6.2-1.6Zm41.2-3.6c3.7.3 7.2.4 10.4.4 2.4 0 4.6-.1 6.7-.2 6-.4 9.5-1.3 11.4-2 .2-.1.5-.2.6-.3v-.1c-1.6-1.8-4.6-4-8.4-6-4.3-2.3-9.5-4.6-15.5-6.7-1.9 2.3-3.9 4.7-5.9 7.1.3 2.6.5 5.2.7 7.8Zm-25.9-3.8c1.1.2 2.2.5 3.3.7 1.3.3 2.6.5 3.8.7 1.2-1.3 2.4-2.6 3.6-4 1.3-1.5 2.6-2.9 3.9-4.4-.2-1.6-.4-3.3-.6-4.9l-.6-4.2c-1.1-.3-2.2-.5-3.4-.8-1.3-.3-2.6-.5-3.8-.8-1.2 1.3-2.4 2.6-3.7 4-1.3 1.4-2.6 2.8-3.8 4.3.2 1.8.4 3.5.7 5.3.2 1.3.4 2.7.6 4.1Zm-27.8-8.2c2.9 1.1 6 2.3 9.3 3.3 2.1-2.5 4.3-5.1 6.5-7.7-.3-2.7-.5-5.4-.7-8-5.5-.6-10.6-.9-15.3-.9-1.4 0-2.8 0-4.2.1-5.6.2-10.2.9-13.4 1.9-.2.1-.5.2-.7.2-.2.1-.3.1-.5.2l.3.3c1.1 1.1 3.1 2.8 6.7 4.9.5-.3 1-.6 1.6-.8 1-.4 2-.6 3-.6 3.8 0 6.8 2.7 7.4 6.6v.5Zm50.4-16.7c1.9.5 3.7 1 5.5 1.6 5.3-6.8 9.7-13.1 13.3-18.9 2.8-4.4 4.9-8.3 6.2-11.4-2.2 1.2-4.8 2.8-7.6 4.9-.5 3.4-2.8 6.4-5.9 7.6-.9.3-1.8.5-2.7.5-.4 0-.9 0-1.3-.1-2.8 2.4-5.8 5.1-8.8 8 .4 2.5.9 5.1 1.3 7.8Zm-25.5-5.4c2 .3 4.1.6 6.1 1 2.3-2.3 4.5-4.6 6.7-6.8-1.7-7.8-3.6-14.7-5.7-20.5-1.6-4.4-3.3-8.1-4.8-10.5-1 3.5-1.8 8.5-2.2 14.6-.4 6.7-.4 14.1-.1 22.2Z" class="cls-6"/>
    <path d="M294.35 173.2c16.5-21.2 25.9-38.6 22.6-42.9-2.2-2.8-9.4.4-19.4 7.9-.9-.9-2.2-1.2-3.6-.7-2.3.9-3.9 3.6-3.6 6.2 0 .1 0 .2.1.3-3.6 3-7.4 6.5-11.4 10.3-5.2-24.5-12.5-40.9-18.5-38.9-6 2.1-8.8 22.3-7.4 48.7-23.6-2.8-42.5-.6-44.9 6.4-1.5 4.4 3.8 9.7 13.6 14.8-.1.5-.1 1.1 0 1.6.4 2.7 2.8 4 5.3 3 .7-.3 1.4-.7 1.9-1.3 4.2 1.8 8.9 3.5 14 5-18.1 22.7-28.8 41.9-24.8 46.2s21.1-7.6 41.4-27.4c1.2 5.4 2.5 10.5 3.9 14.9-1.1 1.3-1.7 3.1-1.5 4.7.3 2.2 2.1 3.5 4.1 3 4 10.3 8.2 15.8 11.8 14.1 5.7-2.6 8.4-21.9 7.2-47.3 21.5 1.9 37.5-.8 39.5-7.1 1.8-6.2-10.5-14.7-30.3-21.5Zm-2.7-26.9c.9.7 2.1.9 3.3.4 2.2-.8 3.8-3.5 3.6-6 4.8-3.6 9-6.2 12-7.5.2-.1.5-.2.7-.3 2.4-.9 3.4-.6 3.5-.4.2.2.4 1.6-.9 5-1.3 3.5-3.7 8.2-7.1 13.6-4 6.4-9.2 13.7-15.1 21.3-3.2-1-6.6-2-10.1-2.9-.6-4.2-1.4-8.3-2.1-12.1 4.3-4.1 8.3-7.8 12.2-11.1Zm-15.7 45c-1.7 1.9-3.4 3.7-5 5.5-2-.3-3.9-.7-5.9-1.1-2-.4-3.9-.8-5.9-1.2-.3-2.2-.7-4.5-1-6.8-.3-2.4-.6-4.7-.9-7 1.6-1.9 3.3-3.7 5-5.6 1.7-1.9 3.4-3.7 5.1-5.5 2 .4 4 .8 5.9 1.2 2 .4 4 .9 5.9 1.4.3 2.2.6 4.5.9 6.8.3 2.2.5 4.4.8 6.6-1.6 1.9-3.3 3.8-4.9 5.7Zm5.3-2.1c.3 3.1.5 6.2.7 9.2-2.6-.3-5.3-.6-8-1.1 1.2-1.3 2.4-2.7 3.6-4 1.3-1.4 2.5-2.8 3.7-4.1Zm-20 17.6c-.6-2.9-1.1-5.8-1.6-8.8l4.2.9c1.5.3 2.9.5 4.3.8-2.3 2.4-4.6 4.8-6.9 7.1Zm-6-18c.2 1.7.5 3.3.7 4.9-2.7-.7-5.4-1.4-8-2.1 2.2-2.6 4.4-5.3 6.7-8 .2 1.8.4 3.5.6 5.2Zm1.6-11.8c-.3-3.1-.6-6.2-.8-9.3 2.7.4 5.4.8 8.1 1.3-1.2 1.3-2.5 2.6-3.7 4s-2.4 2.7-3.6 4Zm13.2-10.2c2.4-2.4 4.7-4.8 7-7.1.6 2.9 1.1 5.9 1.6 9-1.4-.3-2.8-.7-4.3-1-1.5-.3-2.9-.6-4.3-.9Zm12.8 11.1c-.2-1.7-.4-3.3-.7-4.9 2.6.7 5.1 1.4 7.5 2.2-2 2.5-4.1 5-6.2 7.6-.2-1.7-.4-3.3-.6-4.9Zm-27-39.2c.4-6.4 1.3-11.8 2.4-15.5 1.1-3.6 2.2-4.7 2.5-4.8s1.6.2 3.5 2.7c1.9 2.6 4 6.9 6 12.4 2.3 6.5 4.4 14.3 6.2 23-3.1 3-6.3 6.2-9.5 9.6-3.7-.7-7.4-1.3-11-1.8-.6-9.2-.6-18-.1-25.6Zm-25.2 46.9c.2-.8.3-1.5.2-2.3-.4-2.7-2.7-4-5.3-3.1-1 .4-1.8 1-2.5 1.8-4.3-2.3-7.7-4.6-9.8-6.8-2.3-2.3-2.4-3.8-2.3-4.2.1-.3 1-1.4 3.9-2.4.3-.1.5-.2.8-.3 3.5-1.2 8.5-1.9 14.4-2.1 7-.3 14.9.1 23.2 1.1.3 4.1.6 8.3 1.1 12.6-3.2 3.6-6.2 7.2-9.1 10.8-5.3-1.5-10.2-3.2-14.6-5.1Zm7.8 41.8c-5.3 4.1-9.8 7.1-13.3 8.7-3.3 1.6-4.6 1.3-4.8 1.1-.2-.2-.5-1.6.9-5.3 1.4-3.8 4.2-8.9 7.9-14.8 4.4-7 10-14.7 16.4-22.7 3.5 1 7.1 2 10.9 2.8.7 4.2 1.4 8.2 2.2 12-7.1 7.2-14 13.3-20.2 18.2Zm43.6-.9c-.4 6.2-1.2 11.3-2.3 15-1 3.5-2.1 4.7-2.4 4.8-.3.1-1.5 0-3.3-2.3-1.8-2.2-3.6-5.9-5.5-10.6 1.3-1.4 2.1-3.3 1.8-5.1-.3-2.4-2.3-3.6-4.6-2.9-1.4-4.7-2.8-9.9-4-15.5 3.1-3.1 6.2-6.3 9.4-9.7 3.7.6 7.3 1.1 10.8 1.4.7 9.1.6 17.5.1 24.9Zm40-32.2c-.1.3-1 1.5-3.9 2.6-3 1.1-7.3 1.9-12.4 2.3-6.1.4-13.3.3-21-.5-.2-4-.6-8.2-1-12.4 3-3.5 5.8-6.9 8.5-10.3 7.2 2.4 13.5 5 18.6 7.8 4.2 2.3 7.5 4.7 9.4 6.8 1.8 2 1.9 3.4 1.8 3.7Z" class="cls-7"/>
    <path d="M267.25 195.6c-4.9 0-8.8-3.6-9.5-8.8-.8-6.1 3-12.7 8.7-14.9 1.3-.5 2.6-.8 3.9-.8 4.9 0 8.9 3.6 9.5 8.8.8 6-3 12.5-8.6 14.8-1.2.7-2.6.9-4 .9Z" class="cls-6"/>
    <path d="M267.85 175.5c-4.1 1.6-7 6.5-6.4 10.9s4.4 6.6 8.4 5 6.9-6.5 6.3-10.8c-.5-4.5-4.2-6.7-8.3-5.1Z" class="cls-7"/>
  </g>
  <path d="M139.65 158.4c-.9.4-1.8.8-2.8 1.2-15.4 5.8-20.2 8.1-44.1 2.9-23.7-5.2-69.5-8.1-69.7-16v-.5c.3-1.4 1.5-3.4 3.3-5.9l.1-.1c.8-.6 1.8-1.2 3.1-1.9 1.6-.8 3.6-1.7 6.2-2.8 1.1-.4 2.3-.9 3.6-1.4 9.4-3.6 24.4-8.6 49-17 3.5 1 6.8 2 10 3.1-38.6 13.8-47.6 15.8-53.1 19.9-5.7 4.3-3.8 4.3 23 9.1 24 4.3 52.2 9.3 69.3 4.2.6 1.7 1.4 3.4 2.1 5.2Z" class="cls-32"/>
  <path d="M107.65 154.8s-.1.1 0 0c0 0-14.7 4.6-33 2.5-18.3-2.2-49-5.4-46.1-12.4s15.5-9.9 28-10.4c7.6-2.8 20-6.8 41.7-14.6-3.2-1.1-6.5-2.1-10-3.1-24.6 8.4-39.6 13.4-49 17-1.3.5-2.5 1-3.6 1.4-2.5 1-4.5 1.9-6.2 2.8-1.2.6-2.2 1.3-3.1 1.9l-.1.1c-1.8 2.5-3 4.5-3.3 5.9v.5c.2 7.9 46 10.8 69.7 16 24 5.3 28.8 2.9 44.1-2.9 1-.4 1.9-.8 2.8-1.2-.7-1.8-1.4-3.5-2.2-5.2-7.9 2.5-18.4 2.7-29.7 1.7Z" class="cls-8"/>
  <path d="m190.75 269-17.2-15c-9.1-14.1-14.2-28.9-16.9-38.8-.6-2.1-1.2-4.6-1.9-7.4-3.2-12.3-8.4-32.6-15.1-49.4-.7-1.8-1.4-3.5-2.2-5.2-3.7-8.5-7.9-15.6-12.3-19.7-5-4.6-14.5-9.3-26.9-13.6-3.2-1.1-6.5-2.1-10-3.1-.4-.1-.7-.2-1.1-.3-14.7-4.1-31-7-39.5-7-.6 0-1.2 0-1.7.1-2.7.2-5.1.3-7 .3-1.9.1-4 .1-5.3.3.1.5.3 1.4.7 2.7 2.3 7.3 4.2 17 4.9 21-1.3.5-2.5 1-3.6 1.4-2.5 1-4.5 1.9-6.2 2.8-1.2.6-2.2 1.3-3.1 1.9l-.1.1c-1.8-4.1-3.5-7.7-5-11-9.6-21.1-12.5-27.4-10.5-32.6 1.4-3.7 4.8-5.2 9.2-7l.6-.3.4-.1c2.3-.5 5.3-.7 9-.7 23.6 0 74.3 9.8 91.9 19.4 19.7 10.8 33.3 21.8 41.8 73.6 8.1 49.1 13.7 61.7 16.5 69.1 2.8 7.2 10.1 17.8 10.6 18.5Z" class="cls-13"/>
  <use xlink:href="#reuse-1" class="cls-58"/>
  <use xlink:href="#reuse-1" class="cls-8"/>
  <path d="M109.45 377.3c-7.1 0-13.7-2.6-22.9-6.1-13.5-5.2-70.4-31.4-78-36.1-9-5.6-4.9-16.5-3.2-21.2.2-.5.4-1 .5-1.4 1-3 3.4-4.9 6.3-5.1 2-9.5 7.4-35.9 9-43.4 2.2-10.1 18.7-25.3 20.6-27l1.1-1 95.9 1c9.9.2 11 8.4 11.3 17.6.3 9.3 1.9 58.5 2.3 70.3l4.5 1.6-.3 3c-.8 7.2-1.9 19-1.8 21.9.1 1.8.2 5.3-14.2 14-7.2 4.4-15.7 8.5-20.9 10.3-3.6 1-6.9 1.6-10.2 1.6Z" class="cls-13"/>
  <path d="M138.75 240.7c5.6.1 7.2 3.4 7.6 14s2.3 72.9 2.3 72.9l4.1 1.4s-2 18.2-1.8 22.5-22.3 17.1-32.6 20.5-17.1.9-30.6-4.3-70.2-31.3-77.4-35.8-2.5-14-1.1-18.2c1.4-4.1 5.8-2.2 5.8-2.2s7.7-37.6 9.7-46.8c2-9.2 19.4-25 19.4-25l94.6 1Z" class="cls-59"/>
  <g>
    <path d="M146.55 274.7c-.7 1.6-2.6 2.2-4.1 1.5s-2.2-2.6-1.5-4.1c.7-1.6 2.6-2.2 4.1-1.5s2.2 2.6 1.5 4.1Z" class="cls-61"/>
    <path d="M144.35 274c-.2.4-.7.6-1.1.4-.4-.2-.6-.7-.4-1.1.2-.4.7-.6 1.1-.4.4.2.6.7.4 1.1Z" class="cls-12"/>
    <circle cx="136.05" cy="280.7" r="5.3" class="cls-60"/>
    <path d="M137.25 281.7c-.3.7-1.2 1.1-2 .7-.7-.3-1.1-1.2-.7-2 .3-.7 1.2-1.1 2-.7.7.4 1 1.2.7 2Z" class="cls-12"/>
    <circle cx="108.15" cy="317" r="5.3" class="cls-30"/>
    <path d="M109.25 318c-.3.7-1.2 1.1-2 .7s-1.1-1.2-.7-2c.3-.7 1.2-1.1 2-.7s1.1 1.3.7 2Z" class="cls-12"/>
    <path d="M111.25 334.4c-.1-1.1.7-2 1.8-2 1.1-.1 2 .7 2 1.8.1 1.1-.7 2-1.8 2-1 0-1.9-.8-2-1.8Z" class="cls-31"/>
    <path d="M112.65 334.1c0-.3.2-.5.5-.6.3 0 .5.2.6.5 0 .3-.2.5-.5.6-.3.1-.6-.2-.6-.5Z" class="cls-12"/>
    <path d="M128.65 312.2c-.1-1.1.7-2 1.8-2 1.1-.1 2 .7 2 1.8.1 1.1-.7 2-1.8 2-1.1.1-2-.7-2-1.8Z" class="cls-26"/>
    <path d="M129.95 312c0-.3.2-.5.5-.6.3 0 .5.2.6.5 0 .3-.2.5-.5.6-.3 0-.6-.2-.6-.5Z" class="cls-12"/>
    <path d="M121.55 326.8c-.1-1.1.7-2 1.8-2 1.1-.1 2 .7 2 1.8.1 1.1-.7 2-1.8 2-1 .1-1.9-.7-2-1.8Z" class="cls-27"/>
    <path d="M122.95 326.6c0-.3.2-.5.5-.6.3 0 .5.2.6.5 0 .3-.2.5-.5.6-.3 0-.6-.2-.6-.5Z" class="cls-12"/>
    <path d="M138.25 303.8c-2.8-.8-4.5-3.7-3.7-6.5s3.7-4.5 6.5-3.7 4.5 3.7 3.7 6.5c-.8 2.8-3.7 4.5-6.5 3.7Z" class="cls-62"/>
    <path d="M138.85 300c-.8-.2-1.3-1-1-1.8s1-1.3 1.8-1c.8.2 1.3 1 1 1.8s-1 1.2-1.8 1Z" class="cls-12"/>
    <g>
      <path d="M113.25 305.1c.1-1.1 1-1.9 2-1.8 1.1.1 1.9 1 1.8 2-.1 1.1-1 1.9-2 1.8-1.1-.1-1.9-1-1.8-2Z" class="cls-56"/>
      <path d="M114.55 305c0-.3.3-.5.6-.5s.5.3.5.6-.3.5-.6.5c-.3-.1-.5-.3-.5-.6Z" class="cls-12"/>
    </g>
    <g>
      <path d="M92.15 331.5c.1-1.1 1-1.9 2-1.8 1.1.1 1.9 1 1.8 2-.1 1.1-1 1.9-2 1.8-1.1 0-1.9-1-1.8-2Z" class="cls-50"/>
      <path d="M93.55 331.4c0-.3.3-.5.6-.5s.5.3.5.6-.3.5-.6.5-.5-.3-.5-.6Z" class="cls-12"/>
    </g>
    <g>
      <path d="M131.95 321.9c1-.3 2.1.3 2.4 1.3.3 1-.3 2.1-1.3 2.4s-2.1-.3-2.4-1.3.3-2.1 1.3-2.4Z" class="cls-49"/>
      <path d="M132.45 323.2c.3-.1.6.1.7.4.1.3-.1.6-.4.7-.3.1-.6-.1-.7-.4 0-.3.2-.6.4-.7Z" class="cls-12"/>
    </g>
    <g>
      <path d="M77.25 323.1c.1-1.1 1-1.9 2-1.8 1.1.1 1.9 1 1.8 2-.1 1.1-1 1.9-2 1.8-1 0-1.8-.9-1.8-2Z" class="cls-53"/>
      <path d="M78.65 323c0-.3.3-.5.6-.5s.5.3.5.6-.3.5-.6.5-.5-.3-.5-.6Z" class="cls-12"/>
    </g>
    <g>
      <path d="M115.05 270.8c.1-1.1 1-1.9 2-1.8 1.1.1 1.9 1 1.8 2-.1 1.1-1 1.9-2 1.8-1.1 0-1.9-.9-1.8-2Z" class="cls-52"/>
      <path d="M116.45 270.7c0-.3.3-.5.6-.5s.5.3.5.6-.3.5-.6.5-.6-.3-.5-.6Z" class="cls-12"/>
    </g>
    <g>
      <path d="M120.35 289c.1-1.1 1-1.9 2-1.8 1.1.1 1.9 1 1.8 2-.1 1.1-1 1.9-2 1.8-1-.1-1.8-1-1.8-2Z" class="cls-57"/>
      <path d="M121.75 288.9c0-.3.3-.5.6-.5s.5.3.5.6-.3.5-.6.5c-.3-.1-.5-.3-.5-.6Z" class="cls-12"/>
    </g>
  </g>
  <path d="M148.05 323.4s-24.5 15.2-40.5 15.2 3.9-32.6 8.3-44.1c4.3-11.5-1.4-25.9 7.7-29.2l-17.8-15.6-20.8-9.6-40.7-.4s-17.5 15.8-19.4 25c-2 9.2-9.7 46.8-9.7 46.8s-4.3-2-5.8 2.2c-1.4 4.1-6.1 13.7 1.1 18.2s63.9 30.6 77.4 35.8c13.5 5.2 20.3 7.7 30.6 4.3 9.2-3.1 28.4-13.8 32-19l-2.4-29.6Z" class="cls-8"/>
  <path d="M126.45 265.3c-5.1 0-10.4-.6-15.7-1.8l-3.2-.7.9-8.6.9-5.4 4.2-5.3 1.4-.3c.3-.1 7.8-1.5 11.3-2l17.7-2.9 2.1 1.3c2.9 2.9 3.7 7.8 3.9 14.2l.1 1.4-.6.8v.1c-.4 1.2-1.3 3.6-4.4 5.4-4.5 2.5-11.1 3.8-18.6 3.8Z" class="cls-13"/>
  <path d="M143.15 258.2c2.6-1.4 3-2.6 3.5-4.7s-1.4-9.4-3.3-11.2c-3.9.6-13.9 2.2-16.6 2.6-3.4.5-11.2 2-11.2 2l-2.7 3.4-.7 4.3-.5 5.2c12.8 2.9 25 2 31.5-1.6Z" class="cls-55"/>
  <path d="M143.45 242.3c-3.9.6-13.9 2.2-16.6 2.6-3.4.5-11.2 2-11.2 2l-2.7 3.4-.7 4.3-.5 5.2c5.2 1.2 10.4 1.7 15.1 1.7-6.4-1.7 1.8-4.3 8.7-8.4 5.3-3.2 7.8-8.1 8.6-10.1-.3-.2-.5-.5-.7-.7Z" class="cls-4"/>
  <path d="M73.55 317.9c-10.5 0-22.1-3.1-34.4-9.1-43.6-21.4-35.5-67.2-32-86.8.3-1.5.5-2.9.7-4 2.5-16 4.6-17.4 20.6-23.8l2.9-1.2c4.6-1.9 9.4-2.8 14.3-2.8 13.6 0 25.2 7.2 30.3 14.6l23.6 7.5c2-.8 5.7-1.9 11.1-1.9 4.1 0 8.5.6 13 1.9 15 4.2 18.6 26.8 18.8 27.8l.4 2.5-12.1 7.4-.9-5.6c-.4-2.6-2.5-10.2-6.8-11.1-.3-.1-.7-.1-1-.1-4.3 0-6.3 8.7-7 12.4-1.4 7.7-1.5 17.7-1.5 37.3.1 17.2-14.9 35-40 35Z" class="cls-13"/>
  <path d="M73.45 208c-5.3-9.1-23-18.7-40.8-11.5s-18.7 6.7-21.1 22.1c-2.4 15.4-15.2 65 29.3 86.8 45.8 22.4 69.1-3.4 69.1-22.5s.1-29.7 1.6-37.9c1.4-8.2 4.7-16.9 12.4-15.4 7.8 1.6 9.7 14.2 9.7 14.2l5.1-3.2s-3.2-21.1-16.1-24.7c-15.1-4.2-22.9.4-22.9.4l-26.3-8.3Z" class="cls-63"/>
  <path d="m99.75 216.4-1.1-.3c-4.6 1.7-18.3 2.2-17.4 15.5 1.6 22.8-4.1 31-10.3 19.5-6.2-11.6-12.4-15.7-21.3-14s-12.6-4.6-7.1-12.5 12.4-8.9 40-13.7l-9.1-2.9c-5.3-9.1-23-18.7-40.8-11.5s-18.7 6.7-21.1 22.1c-1.8 11.3-9.2 41.2 4.8 64.9 10.8 2.7 26.8 4.9 28 4.7 1.7-.2 43.9 1 46.8-1.7 2.9-2.6 5.8-16.3 6-17.5.2-1.1 4.6-48.9 5-53.6-1.6.5-2.4 1-2.4 1Z" class="cls-4"/>
  <path d="M73.55 317.9c-10.5 0-22.1-3.1-34.4-9.1-43.6-21.4-35.5-67.2-32-86.8.3-1.5.5-2.9.7-4 2.5-16 4.6-17.4 20.6-23.8l2.9-1.2c4.6-1.9 9.5-1.9 14.3-2.8 22.3-4.2 37 20.7 37 20.7s-13.1.3-15 .3c-11.2 0-26 5.3-30.3 7.1-3 1.3-6.5 15.7-6.5 26.5v3.2c-.1 5.1 0 6.5 1.7 7.4.7-.8 1.5-2 2.2-2.9 3.8-5.1 9.6-12.9 17.9-12.9 1.2 0 2.5.2 3.7.5 7.5 2.1 13.2 13.6 17.9 22.8 1.1 2.2 2.5 4.9 3.4 6.3 3.2-.6 5.9-2.2 6.6-6.7.5-3.5.1-9.9-.2-16.1-.2-3.4-.4-6.8-.4-10.1-.3-11.4 4.3-15.1 13.5-22.6l.7-.6.2-.1c.5-.3 4.8-2.7 12.8-2.7 4.1 0 8.5.6 13 1.9 15 4.2 21.6 25.3 21.8 26.3l.5 2.7-15.2 8.7-.9-5.6c-.4-2.6-2.5-10.2-6.8-11.1-.3-.1-.7-.1-1-.1-4.3 0-6.3 8.7-7 12.4-1.4 7.7-1.5 17.7-1.5 37.3-.1 17.3-15.1 35.1-40.2 35.1Z" class="cls-13"/>
  <path d="M87.15 236.3c.2 9.7 1.4 21.1.6 26.9-1.2 8.7-8.6 9.8-11.5 10.1-2.9.4-11.5-26.8-21.1-29.5-12.1-3.4-19.3 17.1-22.7 15.8-6.7-2.5-5.5-6.9-5.5-14.8s2.5-27.3 8.8-30 26-9.4 37.7-6.8c-5.3-9.1-23-18.7-40.8-11.5s-18.7 6.7-21.1 22.1c-2.4 15.4-15.2 65 29.3 86.8 45.8 22.4 69.1-3.4 69.1-22.5s.1-29.7 1.6-37.9c1.4-8.2 4.7-16.9 12.4-15.4 7.8 1.6 9.7 14.2 9.7 14.2l7.7-4.1s-5.7-20.2-18.6-23.7c-15.1-4.2-22.9.4-22.9.4-9.5 7.6-12.9 10.2-12.7 19.9Z" class="cls-64"/>
  <path d="M109.45 377.3c-7.1 0-13.7-2.6-22.9-6.1-13.5-5.2-70.4-31.4-78-36.1-9-5.6-4.9-16.5-3.2-21.2.2-.5.4-1 .5-1.4 1.1-3.2 3.8-5.1 7-5.1 1.9 0 3.5.7 3.8.8l.3.1.3.2c8.6 5.8 61.4 27.9 74.2 31.9 7.9 2.5 11.8 3.5 15.6 3.5 2.5 0 5.1-.5 9.3-1.6 7.6-2.1 15.3-7.5 23.4-13.2 2.2-1.6 4.5-3.1 6.8-4.7l1.6-1 8.7 3-.3 3c-.8 7.2-1.9 19-1.8 21.9.1 1.8.2 5.3-14.2 14-7.2 4.4-15.7 8.5-20.9 10.3-3.6 1.1-6.9 1.7-10.2 1.7Z" class="cls-13"/>
  <path d="M9.35 313.6c-1.4 4.1-6.1 13.7 1.1 18.2s63.9 30.6 77.4 35.8c13.5 5.2 20.3 7.7 30.6 4.3 10.3-3.4 32.7-16.2 32.6-20.5-.2-4.3 1.8-22.5 1.8-22.5l-4.1-1.4c-11 7.4-20.9 15.5-31.3 18.4-10.4 2.9-13.7 2.2-27-2-13.3-4.1-66.2-26.3-75.2-32.4-.1 0-4.5-2-5.9 2.1Z" class="cls-51"/>
  <path d="M118.35 371.9c10.3-3.4 32.7-16.2 32.6-20.5-29.2 20.1-42.8 19.3-57.6 13-14.9-6.2-68.1-29.7-74.1-36.5-5.9-6.7-3.7-12.5 8.1-10.1-5.7-2.7-10.2-5-12.3-6.4 0 0-4.3-2-5.8 2.2-1.4 4.1-6.1 13.7 1.1 18.2s63.9 30.6 77.4 35.8c13.5 5.2 20.4 7.8 30.6 4.3Z" class="cls-4"/>
  <path d="M304.25 98c-2-6.7-12.4-36-18.4-44.2-4.3-5.9-17.9-11.9-37.4-16.4-17.9-4.2-36-6-45.1-6h-.8c-18.2.2-27.1 3.4-27.2 3.4l-8.2 3 3.4-8c.5-1 .8-2.2 1.3-3.3l.8-2.2.9-.7c7-5.5 15.3-8.4 24-8.4 2.3 0 4.5.2 6.8.6 7.5 1.3 22.5 3.4 38.3 5.7 11.9 1.7 24.2 3.5 33.3 4.9 24.3 3.7 31.2 36.8 34.2 50.9.4 1.8.7 3.4 1 4.3 2.3 8.3 1.2 17.2.3 20.7-.6 2.5-2.9 8.5-2.9 8.5s-2.3-6.1-4.3-12.8Z" class="cls-6"/>
  <use xlink:href="#reuse-2" class="cls-3"/>
  <use xlink:href="#reuse-2" class="cls-4"/>
  <path d="m134.15 247.9-3.4 2.1-.9-5.6c-.2-1-.5-2.6-1.2-4.3l-1.7-7.3-5.6-1.3-4.9 4.9c-.8 2.3-1.2 7.7-1.4 9.3-.5 2.9-.7 3.6-.9 7.6 3.4.8 5.5 1.1 9.2 1.1 10.9-.1 15.5-.3 10.8-6.5Z" class="cls-13"/>
  <path d="M26.15 219.5c-3.8 11.5-5.8 26.9 1.1 34.8-.6-2.4-.2-5.5-.2-9.5 0-7.9 2.5-27.3 8.8-30 6.3-2.7 26-9.4 37.7-6.8-16.1-6.7-43.6 0-47.4 11.5Z" class="cls-1"/>
  <g class="cls-11">
    <path d="M117.35 345.9c-10.4 2.9-13.7 2.2-27-2-13.3-4.1-66.2-26.3-75.2-32.4 0 0-4.3-2-5.8 2.2 17.8 12.5 62.8 28.2 84.9 37.8 22.1 9.6 30.2-2.4 58.5-22.5l-4.1-1.4c-11 7.3-20.9 15.4-31.3 18.3Z" class="cls-5"/>
  </g>
  <path d="M103.85 236.6c1 14.7 3.5 41.5 1 51.7-2.5 10.1-7.5 18.4-13.9 22.3 12.6-5.8 19-17.6 19-27.7 0-19.2.1-29.7 1.6-37.9 1.4-8.2 4.7-16.9 12.4-15.4 7.8 1.6 9.7 14.2 9.7 14.2l7.7-4.1s-5.7-20.2-18.6-23.7c-8.9-.8-20 5.9-18.9 20.6Z" class="cls-1"/>
  <path d="M17.35 276.8c-9.4-15.8-8.8-39.3-.7-65.1 1.7-5.3 18.6-16.3 31.6-17.5-5-.4-10.3.3-15.6 2.4-17.8 7.2-18.7 6.7-21.1 22.1-2.4 15.4-15.2 65 29.3 86.8 19.6 9.6 35.1 10.4 46.4 6.6-39.4 3.8-60.5-19.5-69.9-35.3Z" class="cls-4"/>
  <path d="M55.25 243.8c-1.8-.5-3.6-.5-5.2 0 3.3-.1 5.7 1.7 7.3 6.7 2.1 6.5 9.1 19.7 18.5 22.7-3.3-2.3-11.6-26.8-20.6-29.4ZM125.65 273.2c-1.4 10.5-6 45.4-9 55.1-2.4 7.9 7.2-9 9.7-25.5 2.6-16.7.8-40.2-.7-29.6Z" class="cls-1"/>
  <path d="M47.15 296.8c-1.4 0-2.7-.3-4-1-6.1-3-9.3-13-7.3-22.6 1.7-8.1 6.6-13.6 12.3-13.6 1.4 0 2.7.3 4 1 6.1 3 9.3 13 7.3 22.6-1.7 8.1-6.7 13.6-12.3 13.6Z" class="cls-4"/>
  <path d="M48.75 295.5c-1.4 0-2.7-.3-4-1-6.1-3-9.3-13-7.3-22.6 1.7-8.1 6.6-13.6 12.3-13.6 1.4 0 2.7.3 4 1 6.1 3 9.3 13 7.3 22.6-1.7 8.1-6.6 13.6-12.3 13.6Z" class="cls-6"/>
  <ellipse cx="49.3" cy="276.86" class="cls-10" rx="15.6" ry="9.4" transform="rotate(-87.05 49.30214713 276.86172827)"/>
  <path d="M48.45 287.4c-4.9-2.4-7.4-11.1-5.7-19.3.2-1.1.5-2.1.8-3-1.4 1.9-2.5 4.4-3.2 7.4-1.7 8.2.8 16.9 5.7 19.3 4.3 2.1 8.9-1.2 11.1-7.5-2.3 3.3-5.6 4.6-8.7 3.1Z" class="cls-4"/>
  <g>
    <path d="M36.45 244.5c-.5 1.1-1.7 1.5-2.8 1-1.1-.5-1.5-1.7-1-2.8.5-1.1 1.7-1.5 2.8-1 1 .5 1.5 1.7 1 2.8Z" class="cls-24"/>
    <path d="M34.95 244c-.1.3-.5.4-.8.3s-.4-.5-.3-.8.5-.4.8-.3c.3.1.5.5.3.8Z" class="cls-12"/>
    <circle cx="36.45" cy="232.9" r="3.6" class="cls-23"/>
    <path d="M37.25 233.5c-.2.5-.8.7-1.3.5s-.7-.8-.5-1.3.8-.7 1.3-.5.7.8.5 1.3Z" class="cls-12"/>
    <circle cx="49.65" cy="217" r="3.6" class="cls-20"/>
    <path d="M50.45 217.7c-.2.5-.8.7-1.3.5s-.7-.8-.5-1.3.8-.7 1.3-.5.7.8.5 1.3Z" class="cls-12"/>
    <path d="M77.95 249.4c-.7-.2-1.1-.9-.9-1.6s.9-1.1 1.6-.9 1.1.9.9 1.6c-.2.7-.9 1.1-1.6.9Z" class="cls-22"/>
    <path d="M78.05 248.5c-.2-.1-.3-.3-.3-.4.1-.2.3-.3.4-.3.2.1.3.3.3.4 0 .2-.2.3-.4.3Z" class="cls-12"/>
    <path d="M47.55 232.1c-1.9-.5-3.1-2.5-2.5-4.4.5-1.9 2.5-3.1 4.4-2.5 1.9.5 3.1 2.5 2.5 4.4-.4 1.9-2.4 3.1-4.4 2.5Z" class="cls-25"/>
    <path d="M48.05 229.5c-.5-.1-.9-.7-.7-1.2.1-.5.7-.9 1.2-.7s.9.7.7 1.2c-.2.6-.7.9-1.2.7Z" class="cls-12"/>
    <path d="M73.75 228.2c0-.7.7-1.3 1.4-1.2.7 0 1.3.7 1.2 1.4 0 .7-.7 1.3-1.4 1.2-.7-.1-1.2-.7-1.2-1.4Z" class="cls-21"/>
    <path d="M74.75 228.1c0-.2.2-.4.4-.3.2 0 .4.2.3.4 0 .2-.2.4-.4.3-.2 0-.3-.2-.3-.4Z" class="cls-12"/>
    <g>
      <path d="M78.25 234.9c0-.7.7-1.3 1.4-1.2.7 0 1.3.7 1.2 1.4 0 .7-.7 1.3-1.4 1.2-.7-.1-1.2-.7-1.2-1.4Z" class="cls-18"/>
      <path d="M79.15 234.8c0-.2.2-.4.4-.3.2 0 .4.2.3.4 0 .2-.2.4-.4.3-.1 0-.3-.2-.3-.4Z" class="cls-12"/>
    </g>
    <g>
      <path d="M65.95 219.7c0-.7.7-1.3 1.4-1.2.7 0 1.3.7 1.2 1.4 0 .7-.7 1.3-1.4 1.2-.7 0-1.2-.6-1.2-1.4Z" class="cls-19"/>
      <path d="M66.95 219.7c0-.2.2-.4.4-.3.2 0 .4.2.3.4 0 .2-.2.4-.4.3-.2 0-.3-.2-.3-.4Z" class="cls-12"/>
    </g>
    <g>
      <path d="M64.65 214.6c0-.7.7-1.3 1.4-1.2.7 0 1.3.7 1.2 1.4 0 .7-.7 1.3-1.4 1.2-.7 0-1.2-.7-1.2-1.4Z" class="cls-17"/>
      <path d="M65.55 214.6c0-.2.2-.4.4-.3.2 0 .4.2.3.4 0 .2-.2.4-.4.3-.1-.1-.3-.2-.3-.4Z" class="cls-12"/>
    </g>
    <g>
      <path d="M70.95 242.2c0-.7.7-1.3 1.4-1.2.7 0 1.3.7 1.2 1.4 0 .7-.7 1.3-1.4 1.2-.7-.1-1.2-.7-1.2-1.4Z" class="cls-14"/>
      <path d="M71.95 242.2c0-.2.2-.4.4-.3.2 0 .4.2.3.4 0 .2-.2.4-.4.3-.2-.1-.3-.2-.3-.4Z" class="cls-12"/>
    </g>
    <g>
      <path d="M61.75 229c.1-2 1.8-3.5 3.8-3.4s3.5 1.8 3.4 3.8-1.8 3.5-3.8 3.4-3.5-1.8-3.4-3.8Z" class="cls-16"/>
      <path d="M64.45 228.9c0-.6.5-1 1.1-.9.6 0 1 .5.9 1.1 0 .6-.5 1-1.1.9s-1-.6-.9-1.1Z" class="cls-12"/>
    </g>
    <g>
      <path d="M83.75 216.7c.1-2 1.8-3.5 3.8-3.4s3.5 1.8 3.4 3.8-1.8 3.5-3.8 3.4-3.5-1.8-3.4-3.8Z" class="cls-15"/>
      <path d="M86.35 216.5c0-.6.5-1 1.1-.9.6 0 1 .5.9 1.1s-.5 1-1.1.9c-.5 0-.9-.5-.9-1.1Z" class="cls-12"/>
    </g>
  </g>
</svg>
