<?xml version="1.0" encoding="utf-8"?>
<!-- Generator: Adobe Illustrator 25.1.0, SVG Export Plug-In . SVG Version: 6.00 Build 0)  -->
<svg version="1.1" id="Capa_1" xmlns="http://www.w3.org/2000/svg" xmlns:xlink="http://www.w3.org/1999/xlink" x="0px" y="0px"
	 viewBox="0 0 419.9 419.9" style="enable-background:new 0 0 419.9 419.9;" xml:space="preserve">
<path d="M274.6,71.9c-30,0-54.3,24.3-54.3,54.3s24.3,54.3,54.3,54.3s54.3-24.3,54.3-54.3S304.6,71.9,274.6,71.9z M241.5,154.3
	c-11-34.6-15.8-13.7-15.8-28c0-16.7,8.4-31.5,21.2-40.3c0.9-0.6,2.1,0.5,1.6,1.5c-1.6,3.5-2.5,7.5-2.5,11.6c0,10.8,6.1,20.3,15,25.1
	c7.1,3.8,15,8.5,14.5,16.5c-0.4,8.4-3.9,17-11.6,21.5c-2.7,1.6-5.7,2.6-8.7,3.1C248.7,166.3,243.6,160.7,241.5,154.3z M315.5,140.9
	c-24.5,26.8-3.9,20.5-16.4,27.7c-14.5,8.4-31.4,8.5-45.5,1.8c-1-0.5-0.6-2.1,0.5-2.2c3.9-0.4,7.7-1.6,11.3-3.7
	c9.4-5.4,14.5-15.4,14.2-25.5c-0.2-8-0.1-17.2,7-20.8c7.5-3.8,16.7-5.2,24.4-0.7c2.7,1.6,5.1,3.7,7,6
	C322.4,128.7,320,135.9,315.5,140.9z M321.2,123c-2.3-3.1-5.2-5.9-8.8-7.9c-9.4-5.4-20.6-4.9-29.2,0.4c-6.8,4.2-14.8,8.7-21.5,4.4
	c-7.1-4.6-12.8-11.8-12.8-20.8c0-3.1,0.6-6.2,1.7-9.1c2.4-6.3,9.8-7.9,16.4-6.5c35.5,7.8,19.7-6.8,32.2,0.4
	c14.5,8.4,23,23,24.3,38.5C323.5,123.5,321.9,123.9,321.2,123z"/>
<path d="M135.4,192.5h-13.2v26.5h13.2V192.5z M294.4,218.9h13.2v-26.5h-13.2V218.9z M135.4,113h-13.2v26.5h13.2V113z M188.4,139.5
	h13.2V113h-13.2V139.5z M294.4,20.3l9.4-9.4L299.9,7h-5.5V20.3z M373.8,99.7h13.2v-5.5l-3.9-3.9L373.8,99.7z M228.1,298.4l-9.4,9.4
	L228.1,298.4z M214.9,311.7l5.9,11.8l1.1-0.5l1-0.7L214.9,311.7z M135.4,218.9h158.9v-26.5H135.4V218.9z M135.4,139.5h53V113h-53
	V139.5z M347.4,377.9H82.4v26.5h264.9V377.9z M69.2,364.6V46.8H42.7v317.9H69.2z M82.4,33.5h211.9V7H82.4V33.5z M360.6,99.7v264.9
	h26.5V99.7H360.6z M285,29.6l79.5,79.5l18.7-18.7l-79.5-79.5L285,29.6z M82.4,377.9c-7.3,0-13.2-5.9-13.2-13.2H42.7
	c0,21.9,17.8,39.7,39.7,39.7V377.9z M347.4,404.4c21.9,0,39.7-17.8,39.7-39.7h-26.5c0,7.3-5.9,13.2-13.2,13.2V404.4z M69.2,46.8
	c0-7.3,5.9-13.2,13.2-13.2V7C60.5,7,42.7,24.8,42.7,46.8H69.2z M161.2,315.9c2.9-8.8,11.3-17,22-19.9c10-2.7,22.8-0.9,35.5,11.8
	l18.7-18.7c-19.1-19.1-41.5-23.9-61.1-18.7c-18.9,5.1-34.4,19.4-40.3,37.1L161.2,315.9z M218.8,307.8c0.9,0.9,1.5,1.6,2.1,2.3
	l20.9-16.3c-1.3-1.6-2.7-3.2-4.3-4.8L218.8,307.8z M220.8,310.1c2.1,2.7,1.6,3.5,1.7,2.9c0-0.4,0.2,0.2-1.4,1.7
	c-1.6,1.5-4.2,3.1-7.7,4.5c-3.4,1.4-7.1,2.4-10.4,2.9c-3.5,0.5-5.8,0.4-6.6,0.3c-0.5-0.1,0.5,0,1.8,1c1.7,1.3,3.9,3.9,4,7.8
	c0.1,1.6-0.3,2.9-0.5,3.7c-0.3,0.8-0.6,1.2-0.6,1.2c0,0.1,0.4-0.5,1.9-1.8c3-2.4,8.6-6,17.8-10.6L209,299.8
	c-10,5-17.5,9.5-22.6,13.7c-2.6,2.1-5,4.4-6.9,7.1c-1.8,2.5-3.9,6.5-3.7,11.6c0.3,5.7,3.4,9.9,6.7,12.4c3,2.2,6.3,3.2,8.7,3.7
	c5,1,10.6,0.7,15.7,0c10.1-1.5,23.1-5.9,32-13.9c4.6-4.2,9-10.2,9.9-18.2c1-8.1-2-15.7-7.1-22.3L220.8,310.1z M222.8,322.3
	c4.9-3.7,9.4-6.3,13.7-8.1L226,289.8c-6.4,2.8-12.7,6.5-19.1,11.2L222.8,322.3z M236.6,314.1c17.2-7.5,32.6-3.5,48.4,4
	c4,1.9,7.8,3.9,11.7,6.1c3.8,2.1,7.8,4.3,11.7,6.2c7.3,3.7,16.4,7.7,25.7,7.7v-26.5c-2.5,0-6.6-1.2-13.8-4.9
	c-3.4-1.7-6.9-3.7-11-5.9c-4-2.2-8.4-4.5-13-6.7c-18.5-8.8-42.7-16.3-70.3-4.4L236.6,314.1z"/>
</svg>
