<?xml version="1.0" encoding="utf-8"?>
<!-- Generator: Adobe Illustrator 25.1.0, SVG Export Plug-In . SVG Version: 6.00 Build 0)  -->
<svg version="1.1" id="Capa_1" xmlns="http://www.w3.org/2000/svg" xmlns:xlink="http://www.w3.org/1999/xlink" x="0px" y="0px"
	 viewBox="0 0 419.9 419.9" style="enable-background:new 0 0 419.9 419.9;" xml:space="preserve">
<path d="M206.5,7C92.4,7,0,99.5,0,213.5s92.4,206.5,206.5,206.5s206.5-92.4,206.5-206.5S320.5,7,206.5,7z M80.5,320
	c-41.8-131.6-59.9-51.9-59.9-106.6c0-63.5,31.9-119.6,80.6-153.1c3.6-2.4,8,1.9,6.2,5.8c-6,13.5-9.4,28.4-9.4,44
	c0,41.2,23.1,77,56.9,95.4c26.8,14.5,56.8,32.2,55.3,62.7c-1.6,31.9-14.6,64.7-44.2,81.8c-10.2,5.9-21.7,9.7-33.1,11.7
	C107.7,366,88.3,344.5,80.5,320z M361.8,269.4c-93.1,102-15,77.8-62.3,105.2c-55,31.8-119.5,32.2-172.9,6.8
	c-3.9-1.9-2.3-7.9,1.9-8.3c14.7-1.5,29.2-6.1,42.8-13.9c35.6-20.6,55.2-58.5,54.1-97c-0.8-30.5-0.5-65.3,26.6-79.2
	c28.5-14.6,63.4-19.7,92.9-2.6c10.2,5.9,19.3,13.9,26.6,22.8C388,222.9,379.1,250.4,361.8,269.4z M383.6,201.3
	c-8.6-11.9-19.9-22.3-33.4-30.1c-35.6-20.6-78.2-18.5-111,1.6c-26,16-56.3,33.1-81.9,16.6c-26.8-17.4-48.7-45-48.7-79.2
	c0-11.8,2.4-23.6,6.4-34.5c9-24.1,37.2-30.1,62.3-24.6c134.8,29.6,74.9-25.9,122.2,1.4c55,31.8,87.6,87.4,92.3,146.3
	C392.1,203.2,386.2,204.8,383.6,201.3z"/>
</svg>
