<?xml version="1.0" encoding="utf-8"?>
<!-- Generator: Adobe Illustrator 25.1.0, SVG Export Plug-In . SVG Version: 6.00 Build 0)  -->
<svg version="1.1" id="Capa_1" xmlns="http://www.w3.org/2000/svg" xmlns:xlink="http://www.w3.org/1999/xlink" x="0px" y="0px"
	 viewBox="0 0 419.9 419.9" style="enable-background:new 0 0 419.9 419.9;" xml:space="preserve">
<path d="M344.2,117.6l-94.6-94.9c-20.7-21.3-54.7-21.8-76-1.1c-0.4,0.4-0.8,0.8-1.1,1.1l-94.9,94.9l132.9,66.3L344.2,117.6z
	 M380.5,155.9l18.8,18.8c21.3,20.5,22,54.3,1.5,75.6c-0.5,0.5-1,1-1.5,1.5L248,404.5c-3.6,3.7-7.8,6.7-12.3,9V228.4L380.5,155.9z
	 M39.5,155.9l-18.8,18.8c-21.3,20.5-22,54.3-1.5,75.6c0.5,0.5,1,1,1.5,1.5l151.2,152.7c3.6,3.7,7.8,6.7,12.3,9V228.4L39.5,155.9z"/>
</svg>
