<?xml version="1.0" encoding="utf-8"?>
<!-- Generator: Adobe Illustrator 25.1.0, SVG Export Plug-In . SVG Version: 6.00 Build 0)  -->
<svg version="1.1" id="Layer_1" xmlns="http://www.w3.org/2000/svg" xmlns:xlink="http://www.w3.org/1999/xlink" x="0px" y="0px"
	 viewBox="0 0 24 24" style="enable-background:new 0 0 24 24;" xml:space="preserve">
<style type="text/css">
	.st0{fill-rule:evenodd;clip-rule:evenodd;}
</style>
<g>
	<path d="M12,21.8V18c4,0,7.1-4,5.6-8.2C17,8.2,15.8,7,14.2,6.4C10,4.9,6,8,6,12l0,0H2.2c0-6.4,6.2-11.4,12.9-9.3
		C18,3.6,20.4,6,21.3,8.9C23.4,15.6,18.4,21.8,12,21.8L12,21.8z"/>
	<polygon class="st0" points="12,18 8.2,18 8.2,14.2 8.2,14.2 12,14.2 12,14.2 	"/>
	<polygon class="st0" points="8.2,20.9 5.3,20.9 5.3,20.9 5.3,18 8.2,18 	"/>
	<polygon class="st0" points="5.3,18 2.9,18 2.9,18 2.9,15.6 2.9,15.6 5.3,15.6 5.3,15.6 	"/>
</g>
</svg>
