<?xml version="1.0" encoding="utf-8"?>
<!-- Generator: Adobe Illustrator 25.1.0, SVG Export Plug-In . SVG Version: 6.00 Build 0)  -->
<svg version="1.1" id="Layer_1" xmlns="http://www.w3.org/2000/svg" xmlns:xlink="http://www.w3.org/1999/xlink" x="0px" y="0px"
	 viewBox="0 0 24 24" style="enable-background:new 0 0 24 24;" xml:space="preserve">
<path d="M22,20h-1V7.5c0-0.3-0.2-0.6-0.5-0.8l-5.1-3c-0.3-0.2-0.7-0.2-0.9,0C14.2,3.9,14,4.2,14,4.6V20h-1.1V2.1
	c0-0.3-0.2-0.6-0.4-0.8c-0.3-0.2-0.6-0.2-0.9-0.1l-8,3.4C3.3,4.8,3,5.2,3,5.5V20H2c-0.2,0-0.3,0.1-0.3,0.3v1.1
	c0,0.2,0.1,0.3,0.3,0.3H22c0.2,0,0.3-0.1,0.3-0.3v-1.1C22.3,20.2,22.2,20,22,20L22,20z"/>
</svg>
