<svg width="24" height="24" xmlns="http://www.w3.org/2000/svg" fill-rule="evenodd" clip-rule="evenodd"><path d="M21 23c-1.103 0-2-.897-2-2s.897-2 2-2 2 .897 2 2-.897 2-2 2zm-9-4c-3.863 0-7-3.137-7-7s3.137-7 7-7 7 3.137 7 7-3.137 7-7 7zm-9 4c-1.103 0-2-.897-2-2s.897-2 2-2 2 .897 2 2-.897 2-2 2zm-2-20c0-1.103.897-2 2-2s2 .897 2 2-.897 2-2 2-2-.897-2-2zm20-2c1.103 0 2 .897 2 2s-.897 2-2 2-2-.897-2-2 .897-2 2-2zm0 17c-.647 0-1.243.21-1.733.56l-1.254-1.254c1.256-1.413 2.025-3.269 2.025-5.306 0-1.987-.73-3.802-1.932-5.202l1.278-1.277c.468.3 1.02.479 1.616.479 1.655 0 3-1.344 3-3s-1.345-3-3-3-3 1.344-3 3c0 .698.248 1.332.648 1.842l-1.241 1.241c-1.421-1.29-3.301-2.083-5.369-2.083-2.038 0-3.892.77-5.306 2.025l-1.292-1.292c.35-.49.56-1.086.56-1.733 0-1.656-1.344-3-3-3s-3 1.344-3 3 1.344 3 3 3c.647 0 1.243-.21 1.733-.56l1.294 1.294c-1.234 1.409-1.989 3.248-1.989 5.266 0 2.068.793 3.948 2.083 5.368l-1.28 1.28c-.509-.4-1.143-.648-1.841-.648-1.656 0-3 1.345-3 3s1.344 3 3 3 3-1.345 3-3c0-.597-.179-1.149-.48-1.616l1.316-1.316c1.399 1.202 3.215 1.932 5.202 1.932 2.018 0 3.858-.755 5.266-1.989l1.256 1.256c-.35.49-.56 1.086-.56 1.733 0 1.655 1.345 3 3 3s3-1.345 3-3-1.345-3-3-3zm-5.395-7.559c.316.775.262 1.627-.045 2.263l-.897-.374c.19-.49.265-.957.036-1.519-.213-.526-.583-.851-1.086-1.062l.381-.904c.806.336 1.328.899 1.611 1.596zm1.683 1.08c0 .164-.014 1.037-.38 1.769l-.914-.394c.393-.93.378-1.819.049-2.633-.337-.829-.957-1.474-1.865-1.852l.39-.916c.517.172 2.72 1.32 2.72 4.026zm-7.336 2.235l1.123 1.751-.307.102-1.486-1.64-.305.097c-.406.125-.968.072-1.163-.41-.154-.386 0-.839.504-1.086 2.309-1.133 3.177-2.404 3.472-2.985l1.526 3.834c-1.694-.413-3.13.254-3.364.337zm2.586-4.991c-.265-.806-1.662-.695-1.611.304-.152.33-.822 1.511-3.049 2.602-.701.345-1.12.977-1.12 1.692 0 1.169 1.076 1.901 2.196 1.732l1.098 1.214c.066.072.432.445.99.264l.64-.214c.533-.177.636-.788.396-1.141l-.566-.88c.595-.095 1.254-.02 1.531.042.21.248.582.357.891.249.431-.143.667-.61.515-1.073l-1.911-4.791z"/></svg>