<svg xmlns="http://www.w3.org/2000/svg" width="24" height="24" viewBox="0 0 24 24"><path d="M16 22h5v2h-5v-2zm-13 0h5v2h-5v-2zm18-20v17h-18v-17h18zm2-2h-22v21h22v-21zm-9.092 8.312l.279.279-.473.474-.135-.145-.146-.135.475-.473zm-1.077-.634l.364.153-.262.617-.211-.097-.152-.057.261-.616zm-1.278-.178h.395v.67l-.197-.008-.197.008v-.67zm-.864.17l.256.619-.168.062-.197.089-.256-.619.365-.151zm.291 2.774l.425-.424-.595-.595c.265-.188.589-.3.939-.3.898 0 1.625.728 1.625 1.625s-.727 1.625-1.625 1.625-1.625-.727-1.625-1.625c0-.331.099-.637.268-.894l.588.588zm-1.388-2.132l.474.474-.146.134-.135.144-.473-.473.28-.279zm-.922 3.497l.62-.256.062.169.089.195-.619.257-.152-.365zm.866 1.432l-.279-.279.528-.529.135.145.146.135-.53.528zm1.133.581l-.364-.154.262-.617.211.097.152.057-.261.617zm1.278.178h-.395v-.67l.197.008.197-.008v.67zm.864-.17l-.256-.62.168-.062.197-.089.256.619-.365.152zm1.097-.644l-.474-.474.146-.135.135-.145.473.474-.28.28zm.76-.993l-.617-.261.097-.21.058-.154.617.261-.155.364zm.332-1.247h-.67l.008-.198-.008-.197h.67v.395zm-.79-1.001l-.062-.169-.089-.196.619-.255.152.365-.62.255zm-2.46-4.445c-2.645 0-4.824 1.957-5.188 4.5h-1.562l2 2.958 2-2.958h-1.424c.355-1.986 2.088-3.5 4.174-3.5 2.344 0 4.25 1.906 4.25 4.25s-1.906 4.25-4.25 4.25c-1.508 0-2.831-.792-3.586-1.979l-.6.888c.958 1.268 2.475 2.091 4.186 2.091 2.898 0 5.25-2.351 5.25-5.25s-2.352-5.25-5.25-5.25z"/></svg>